<?xml version="1.0" encoding="utf-8"?>
<!-- Generator: Adobe Illustrator 22.1.0, SVG Export Plug-In . SVG Version: 6.00 Build 0)  -->
<svg version="1.1" xmlns="http://www.w3.org/2000/svg" xmlns:xlink="http://www.w3.org/1999/xlink" x="0px" y="0px"
	 viewBox="0 0 640 123" style="enable-background:new 0 0 640 123;" xml:space="preserve">
<style type="text/css">
	.st0{display:none;}
	.st1{display:inline;}
	.st2{fill:#E01F52;}
	.st3{fill:#222438;}
	.st4{display:inline;fill:none;stroke:#222438;stroke-miterlimit:10;}
	.st5{fill:#870745;}
	.st6{fill:#753855;}
	.st7{fill:#E07A5F;}
	.st8{fill:#456B77;}
	.st9{enable-background:new    ;}
	.st10{fill:#F2CC8F;}
	.st11{fill:#5BBF8F;}
	.st12{fill:#118AB2;}
	.st13{fill:#5FA1B7;}
	.st14{fill:none;stroke:#222438;stroke-miterlimit:10;}
</style>
<g id="Layer_4" class="st0">
	<g class="st1">
		<g>
			<path class="st2" d="M69.7,56.4c0,0.6-0.1,9-0.1,9.6c0,1.3,0.1,2.5,0.2,3.8c0.6,5.6,1.4,11.2,2.7,16.7c1.4,5.6,3.6,10.5,6,15.7
				c0.6,1.3,1.3,2.9,0.6,4.3c-0.6,1.2-2.1,1.8-3.5,1.6s-2.3-1.1-2.9-2.3c-2.4-4.3-4.5-8.7-7.7-12.4c-3.6-4.2-9.7-5.1-14.6-2.8
				c-4.9,2.3-6.3,7.9-8.6,12.4c-1.9,3.8-7.7,3.1-6.4-0.7c0.6-1.6,3.6-9.2,4.8-12.4c3.7-10.3,5.6-44.1,7.8-49.6
				c2.2-5.5,5.7-10.3,7.4-16.1c0.6-2.1,0.6-4.4,1.6-6.3c0.8-1.8,2.8-3.2,4.8-3c3.3,0.4,5,4.9,4.3,7.7c-0.2,0.9-0.6,1.8-0.9,2.8
				c-0.8,3.1,0.5,6.3,1.7,9.1c1.1,2.4,3.1,4.4,3.7,7c0.9,3.7,2.4,9,3.7,12.6c0.6,1.8,1.4,3.6,2.2,5.3c0.5,1.1,2.5,3.6,2,4.8
				c-0.2,0.5-0.8,0.8-1.3,0.9c-1.9,0.2-3.2-1.3-4.1-2.8c-3.2-5.5-7.1-11-8.1-18.3"/>
			<path class="st3" d="M75.7,109c-1.5-0.2-2.7-1.1-3.6-2.7c-0.5-0.9-0.9-1.7-1.4-2.6c-1.8-3.3-3.7-6.8-6.1-9.7
				c-3.1-3.7-8.8-4.8-13.5-2.6c-3.6,1.7-5.2,5.5-6.8,9.1c-0.4,1-0.9,1.9-1.3,2.9c-1.3,2.7-4.4,3.6-6.4,2.7c-1.6-0.7-2.2-2.3-1.6-4.1
				c0.3-0.7,1-2.6,1.9-4.8c1.1-2.7,2.3-5.8,2.9-7.6c2.1-5.6,3.5-18.6,4.9-30.1c1.1-9.1,2-17.1,3-19.6c0.9-2.3,2.1-4.6,3.3-6.8
				c1.6-2.9,3.2-6,4.1-9.2c0.2-0.8,0.4-1.6,0.5-2.4c0.2-1.4,0.5-2.8,1.1-4.1c0.9-2,3.2-3.8,5.7-3.5c1.5,0.2,2.7,1,3.7,2.4
				c1.3,1.8,1.8,4.4,1.4,6.4c-0.1,0.6-0.3,1.1-0.5,1.6c-0.1,0.4-0.3,0.8-0.4,1.2c-0.7,2.8,0.4,5.6,1.7,8.5c0.4,0.9,0.9,1.8,1.5,2.7
				c0.9,1.4,1.8,2.8,2.2,4.5c0.8,3.6,2.4,8.8,3.6,12.5c0.6,1.7,1.3,3.4,2.2,5.2c0.1,0.3,0.3,0.6,0.6,1c0.9,1.4,2,3.2,1.4,4.6
				c-0.3,0.8-1.1,1.3-2,1.5c-1.3,0.2-3.2-0.3-5-3.3c-0.5-0.9-1.1-1.8-1.6-2.8c-0.1-0.2-0.2-0.4-0.3-0.6c0,2.7,0,6.1,0,6.5
				c0,1.2,0.1,2.4,0.2,3.7c0.6,6.2,1.5,11.6,2.7,16.5c1.4,5.5,3.6,10.5,5.9,15.5c0.7,1.5,1.4,3.3,0.6,5c-0.6,1.3-1.9,2.1-3.5,2.2
				C76.3,109,76,109,75.7,109z M64.4,44.1c-0.1-0.5,0.3-0.9,0.8-1c0.5-0.1,0.9,0.3,1,0.8c0.8,5.9,3.6,10.6,6.3,15.2
				c0.6,0.9,1.1,1.9,1.6,2.8c0.7,1.2,1.8,2.6,3.2,2.4c0.3,0,0.5-0.2,0.6-0.3c0.2-0.5-0.8-2.3-1.3-3c-0.3-0.4-0.5-0.8-0.7-1.1
				c-0.9-1.8-1.6-3.6-2.2-5.4c-1.3-3.7-2.8-9-3.7-12.7c-0.3-1.4-1.1-2.6-2-4c-0.6-0.9-1.2-1.9-1.7-2.9c-1.4-3.1-2.6-6.4-1.8-9.7
				c0.1-0.5,0.3-0.9,0.4-1.4c0.2-0.5,0.3-0.9,0.4-1.4c0.3-1.5-0.1-3.5-1.1-4.9c-0.5-0.7-1.3-1.5-2.5-1.7c-1.6-0.2-3.2,1.1-3.8,2.5
				c-0.5,1.1-0.7,2.3-1,3.6c-0.1,0.9-0.3,1.7-0.6,2.6c-1,3.4-2.6,6.5-4.2,9.6c-1.1,2.1-2.3,4.3-3.2,6.6c-0.9,2.3-1.9,10.5-2.9,19.2
				c-1.3,11.5-2.8,24.6-4.9,30.5c-0.6,1.8-1.9,4.9-2.9,7.6c-0.9,2.2-1.6,4-1.8,4.7c-0.3,0.9-0.1,1.5,0.6,1.8
				c1.1,0.5,3.2,0.1,4.1-1.9c0.4-0.9,0.9-1.9,1.3-2.8c1.7-4,3.5-8.1,7.7-10c5.4-2.5,12-1.2,15.6,3.1c2.6,3,4.5,6.6,6.4,10
				c0.5,0.9,0.9,1.7,1.4,2.5c0.6,1.1,1.3,1.7,2.3,1.8c1.1,0.2,2.1-0.3,2.5-1.1c0.5-1-0.1-2.3-0.6-3.5c-2.4-5.1-4.6-10.2-6-15.9
				c-1.2-5-2.1-10.5-2.8-16.8c-0.1-1.3-0.2-2.6-0.3-3.8c0-0.7,0-8.7,0.1-9.7C66.8,52.8,65,48.8,64.4,44.1z"/>
		</g>
		<g>
			<path class="st2" d="M49.1,38.7c-2.8,13.9,6.5,19.6,21.1,25.2c0.6,0.2,1.1,0.5,1.8,0.5c1,0,1.9-0.6,2.2-1.5
				c0.4-0.9,0.1-2-0.5-2.6c-0.7-0.7-1.8-0.8-2.8-1.1C59.6,54.9,54.9,47.8,56.3,44"/>
			<path class="st3" d="M72.1,65.3c1.2-0.1,2.4-0.9,2.8-2c0.5-1.2,0.2-2.7-0.8-3.6c-0.7-0.6-1.5-0.9-2.3-1.1
				c-0.3-0.1-0.6-0.1-0.8-0.3c-10.9-4.1-15.1-10.8-14-14c0.2-0.5-0.1-1-0.5-1.2c-0.5-0.2-1,0.1-1.2,0.5c-1.6,4.5,3.7,12,15.1,16.3
				c0.3,0.1,0.7,0.2,1,0.3c0.6,0.2,1.1,0.3,1.5,0.6c0.4,0.4,0.6,1.1,0.3,1.6c-0.2,0.5-0.8,0.9-1.4,0.9c-0.4,0-0.7-0.2-1.2-0.3
				L70.5,63C55.2,57.2,47.4,51.6,50,38.9c0.1-0.5-0.2-1-0.7-1.1c-0.5-0.1-1,0.2-1.1,0.7c-3.1,15.4,8.5,21.2,21.6,26.2l0.3,0.1
				c0.5,0.2,1.1,0.4,1.8,0.5C72,65.3,72.1,65.3,72.1,65.3z"/>
		</g>
	</g>
	<path class="st4" d="M64.8,50.2c-0.9,1.5-0.9,3.4-0.1,4.9c0.8,1.5,2.5,2.5,4.2,2.6c0.6,0,1.3-0.1,1.7-0.6c0.3-0.4,0.4-0.8,0.5-1.3
		c0.4-2.6,0.7-5.2,0.7-7.8c-1.2-0.3-2.5,0.4-3.3,1.5c-0.7,1-1,2.3-1.3,3.5c-0.3,1.3-0.5,2.8,0.3,3.8c0.9,1,2.6,1.1,3.7,0.3
		c2.1-1.4,2.2-4.7,0.8-6.8c-1.4-2.1-3.8-3.3-6.2-4.2c-1.4-0.5-2.9-1-4.4-0.9c-1.5,0.1-3,1-3.5,2.4c-0.7,1.9,0.7,3.9,2.1,5.4
		c1.4,1.5,2.8,3.1,4.8,3.8c1.9,0.7,4.5,0.2,5.4-1.6c0.6-1,0.5-2.3,0.5-3.5c-0.1-1.6-0.2-3.3-0.2-4.9c0-1-0.3-2.2-1.2-2.6
		c-1.1-0.4-2,0.7-2.5,1.7c-1.8,3.4-2.1,7.4-2.4,11.2c-0.1,1.1-0.1,2.3,0.7,3c1.3,1.1,3.2-0.4,4.2-1.7c2.3-3,4.5-6.1,6.6-9.3
		c0.6-0.9,1.2-2.3,0.4-3c-0.3-0.3-0.7-0.4-1.2-0.5c-4.8-1-9.7-1.2-14.5-0.7c-0.8,0.1-1.6,0.2-2.2,0.8c-0.8,0.8-0.7,2.1-0.1,3
		s1.6,1.5,2.5,2.1c4.9,2.9,10.1,5.8,15.7,5.6c0.5,0,1.1-0.1,1.5-0.4c0.4-0.4,0.5-1,0.6-1.5c0.3-1.8,0.4-3.6,0.4-5.4
		c0-1.5-0.1-3.1-0.7-4.5c-1.4-3.5-5.9-5.2-9.4-4c-3.5,1.3-5.8,5.1-5.6,8.9c0.2,3.7,2.8,7.2,6.2,8.8c0.7,0.3,1.5,0.6,2.3,0.4
		c1.6-0.4,1.9-2.6,1.8-4.3c-0.2-3.5-0.7-7.1-2.6-10c-1.9-2.9-5.6-4.9-8.9-3.9c-2.2,0.7-3.9,2.7-4.7,4.8c-0.7,1.8-1,3.7-1.1,5.5
		c-0.1,1.7-0.3,3.5,0.6,5c0.6,1.1,1.6,1.8,2.7,2.4c4.2,2.6,9,4.2,13.9,5c2.3,0.3,4.6,0.5,6.8-0.1s4.3-2.1,5.2-4.2
		c0.5-1.1,0.6-2.4,0.2-3.5c-0.5-1.7-1.9-2.9-3.3-3.9c-3.1-2.1-6.7-3.7-10.4-3.6c-1.3,0-2.8,0.4-3.4,1.6c-0.3,0.7-0.3,1.5-0.2,2.2
		c0.3,2.3,0.9,4.5,1.9,6.6c0.7,1.4,1.6,2.7,2.9,3.4s3.1,0.7,4.2-0.4c0.7-0.7,1-1.8,1.1-2.8c0.3-2.3,0.1-4.7-0.8-6.8
		c-0.9-2.1-2.6-4-4.8-4.9c-2.1-0.9-4.8-0.7-6.7,0.6c-2.3,1.6-3.3,4.6-3.2,7.3c0,2.2,0.6,4.3,1.2,6.4c0.5,1.9,1,3.9,2.4,5.3
		c1.2,1.3,3.4,1.8,4.7,0.7c1-0.8,1.3-2.1,1.5-3.4c0.4-2.2,0.8-4.3,1.1-6.5c0.1-0.4,0.1-0.9-0.1-1.3c-0.2-0.4-0.6-0.6-1-0.8
		c-2.5-1.2-5.1-2.4-7.9-2.2c-0.2,0.4-0.1,0.9,0.1,1.3c4.7,0.6,9.7-0.6,13.5-3.5c2.8-2.1,12.2-13.2,4.3-14c-2.8-0.3-6.7-0.5-8.9,1.6
		c-1.5,1.5-1.7,4-0.9,6s2.2,3.7,3.7,5.3c0.7,0.8,1.7,1.7,2.8,1.4"/>
	<path class="st4" d="M73.7,63.5c4.7,0.4,10.1,1.8,12,6.2c1.3,3,0.5,6.6,2,9.5c2.9,5.2,11.2,4.1,15.3,8.4c2.1,2.2,2.7,5.4,4.9,7.5
		c2.5,2.4,6.3,2.5,9.8,2.5c33.4,0.1,67.3,1.7,100.5,0.4c51.5-2,102.2,4.1,153.6,6.3c40.5,1.7,81.1,0.2,121.6-0.8
		c20.3-0.5,40.5-1,60.8-0.9c18.3,0.1,68.1,0.5,86.1,3"/>
</g>
<g id="Layer_3" class="st0">
	<g class="st1">
		<g>
			<path class="st5" d="M49.8,52.3c0.1-0.2-0.8,21-0.8,21c6.2-0.8,5.1-28.4,1.2-31.1c-2.7-1.8-3.5-2.4-4.9-5.4
				c-1.9-4,2.3-4.8,1.8-8.9c-0.1-0.9-1-3.2-1.6-3.9c-1.1-1.4-3.4-1.6-5-0.8c-1.6,0.8-4.4,4.5-2.4,8c0.8,1.5,2.1,3,2.1,4.8
				c0,2.5-6.9,5.8-8.9,11.6c-0.8,2.3-3.6,18.3,0.3,25.2c1.2,2.2,1.6-2.3,1.3-4c0.6-5.7,0.4-3.4,2.2-15.4c0,0-2.5,16.3-2.7,31.1
				c0,2.1,0.2,7.9,0.4,9.3c0,0,0.4,10.5,3.1,10.5s3.5-1.6,3.5-3.9s0.4-8.5,0.4-8.5c-0.2,0.2,0.2,2.6,0.2,3c0.1,1.1,0.2,2.3,0.2,3.4
				c0.1,1.4-0.8,6.1,2,6.1c3.1,0,3.7-2.9,4-5.1c0.2-1.7,1.1-12.9,1.7-16.8c1.3-7.3,1-14.5,1.3-21.9C49.1,57.9,49.1,54.9,49.8,52.3z"
				/>
			<path class="st3" d="M42,105c-0.7,0-1.3-0.2-1.7-0.7c-0.4-0.4-0.6-0.9-0.7-1.4c-0.6,1.4-1.8,2.1-3.7,2.1c-3.1,0-3.7-8.5-3.8-11.1
				c-0.2-1.5-0.4-7.3-0.4-9.4c0.1-3.4,0.2-7,0.5-10.4c0,0,0,0,0,0c-0.3,0-0.8-0.2-1.2-0.9c-4-7.3-1.1-23.4-0.3-25.8
				c1.1-3.4,3.8-6,6-8c1.4-1.3,2.8-2.6,2.8-3.4c0-1.2-0.7-2.3-1.4-3.4c-0.2-0.4-0.5-0.7-0.7-1.1c-0.8-1.5-1-3.1-0.4-4.8
				c0.6-2,2.1-3.6,3.2-4.2c1.8-0.9,4.5-0.8,5.9,1c0.6,0.8,1.6,3.2,1.7,4.2c0.3,2.1-0.6,3.5-1.3,4.6c-0.8,1.3-1.4,2.2-0.5,4.1
				c1.4,2.8,2,3.4,4.7,5.2c3.4,2.3,4.5,18.5,2.5,26.6c-0.8,3.4-2.1,5.3-3.8,5.6c-0.1,2.9-0.4,5.8-0.9,8.8c-0.4,2.5-0.9,8.2-1.3,12.3
				c-0.2,2.1-0.3,3.8-0.4,4.4C46.5,101.2,45.9,105,42,105C42.1,105,42,105,42,105z M40.3,92.8c0,0.5,0.1,1.2,0.2,1.5
				c0,0.3,0.1,0.5,0.1,0.5l0,0.4c0.1,1,0.1,2,0.2,3.1c0,0.3,0,0.6,0,1.1c-0.1,1.2-0.2,3.3,0.5,4c0.2,0.2,0.4,0.3,0.8,0.3
				c2.3,0,3-1.7,3.3-4.5c0.1-0.6,0.2-2.2,0.4-4.4c0.4-4.2,0.9-9.9,1.3-12.4c0.9-5.4,1-10.7,1.1-16.2c0-1.9,0.1-3.7,0.1-5.6
				c0-0.4,0-0.9,0-1.4c0.1-2.4,0.1-4.8,0.8-7.1c0.1-0.3,0.4-0.5,0.7-0.5c0.3,0.1,0.5,0.1,0.5,0.8l0,0c0,0,0,0,0,0
				c0,0.6,0,1.5-0.1,3.1c-0.1,2-0.2,4.6-0.3,7.2c-0.1,3.8-0.3,7.7-0.4,9.5c0.8-0.6,1.6-2.1,2.1-4.3c2-8.5,0.4-23.6-2-25.2
				c-2.8-1.9-3.7-2.6-5.2-5.7c-1.2-2.5-0.2-4,0.6-5.4c0.7-1.1,1.3-2.1,1.1-3.8c-0.1-0.8-1-3-1.4-3.6c-0.9-1.2-2.9-1.2-4.2-0.6
				c-0.7,0.3-2,1.7-2.5,3.4c-0.4,1.3-0.3,2.6,0.3,3.7c0.2,0.3,0.4,0.7,0.6,1c0.7,1.2,1.6,2.5,1.6,4.1c0,1.4-1.4,2.7-3.2,4.4
				c-2.1,1.9-4.6,4.3-5.7,7.4c-0.7,2.2-3.5,17.7,0.1,24.6c0.2-0.8,0.3-2.4,0.1-3.4c0-0.1,0-0.1,0-0.2c0.4-3.4,0.5-4,0.8-6.4
				c0.2-1.5,0.6-3.8,1.2-8.1c0.1-0.6,0.1-1,0.1-1c0.1-0.4,0.4-0.6,0.8-0.6c0.4,0.1,0.6,0.4,0.6,0.8c0,0.3-0.1,0.7-0.1,1
				c-0.5,3.7-2.4,17.5-2.6,30c0,2,0.2,7.8,0.4,9.2c0.2,4.7,1.2,9.9,2.4,9.9c2,0,2.8-0.9,2.8-3.2c0-1.8,0.2-5.8,0.3-7.7
				c-0.1-0.9,0-1.2,0.3-1.4c0.2-0.1,0.5-0.2,0.7,0c0.2,0.1,0.3,0.4,0.3,0.6C40.4,91.9,40.4,92.3,40.3,92.8z"/>
		</g>
		<path class="st3" d="M51,52.3c-4.3,0-8.7-0.9-12.8-1.8c-2.6-0.6-4.9-1.1-7.1-2.2c-0.6-0.3-1.4-0.8-1.5-1.7c-0.2-1,0.6-1.8,1.4-2.1
			l0.2-0.1c0.5-0.2,0.6-0.2,1-0.1l0.1,0c0.3,0,0.5,0.3,0.5,0.6c0,0.3-0.3,0.5-0.6,0.5l-0.1,0c-0.3,0-0.3,0-0.5,0l-0.2,0.1
			c-0.4,0.1-0.7,0.5-0.7,0.9c0.1,0.3,0.4,0.6,0.9,0.9c2.1,1,4.3,1.6,6.8,2.1c4.7,1.1,9.8,2.1,14.7,1.7c0.7-0.1,1.1-0.2,1.4-0.4
			c-0.6-0.4-1.2-0.6-1.9-0.6c-0.3,0-0.5-0.3-0.5-0.6c0-0.3,0.3-0.5,0.6-0.5c1.1,0.1,2.1,0.5,2.9,1.2c0.2,0.2,0.2,0.4,0.2,0.6
			c-0.5,1.3-2.1,1.4-2.6,1.4C52.6,52.3,51.8,52.3,51,52.3z"/>
		<path class="st3" d="M41.5,55.9c-2.4,0-4.7-0.1-7.1-0.4c-1.4-0.2-2.9-0.4-4.3-1c-0.4-0.2-0.9-0.4-1.1-0.9
			c-0.2-0.4-0.2-0.8-0.2-1.2c0.2-2.2,1-4.3,2.3-6c0.2-0.2,0.5-0.3,0.8-0.1c0.2,0.2,0.3,0.5,0.1,0.8c-1.2,1.6-1.9,3.5-2,5.4
			c0,0.2,0,0.4,0.1,0.6c0.1,0.2,0.4,0.3,0.6,0.4c1.2,0.5,2.4,0.7,4,0.9c5.4,0.7,10.8,0.5,16.2-0.3c1.1-0.2,1.9-0.5,2.3-0.9l-0.2-0.1
			c-0.3-0.1-0.4-0.4-0.3-0.7c0.1-0.3,0.4-0.4,0.7-0.3l0.7,0.3c0.3,0.1,0.4,0.4,0.3,0.7c-0.5,1.5-2.2,1.9-3.4,2.1
			C47.8,55.6,44.6,55.9,41.5,55.9z"/>
		<path class="st3" d="M48.3,59.1c-6.4,0-12.8-0.9-19-2.7c-0.3-0.1-0.5-0.4-0.4-0.7c0.1-0.3,0.4-0.5,0.7-0.4c6.9,2,14,2.9,21.1,2.6
			c0.7,0,1.4-0.1,1.9-0.3c0.4-0.2,1-0.6,1.1-1.1c0-0.2,0-0.5-0.2-0.7c-0.1-0.1-0.2-0.2-0.4-0.3c-0.3,0-0.5-0.3-0.5-0.6
			c0-0.3,0.3-0.5,0.6-0.5c0.5,0,0.9,0.3,1.2,0.7c0.3,0.4,0.5,1,0.4,1.6c-0.1,0.8-0.8,1.6-1.7,1.9c-0.7,0.3-1.5,0.4-2.3,0.4
			C50,59.1,49.2,59.1,48.3,59.1z"/>
		<path class="st3" d="M44.3,63.8c-5.2,0-10.5-0.7-15.5-2.1c-0.1,0-0.4-0.1-0.6-0.3c-0.3-0.3-0.4-0.7-0.4-0.9
			c-0.1-0.4-0.1-0.9,0-1.4c0.2-0.6,0.7-1.1,1.4-1.1c0.3,0,0.5,0.3,0.5,0.6c0,0.3-0.3,0.5-0.6,0.5c-0.1,0-0.2,0.1-0.3,0.3
			c-0.1,0.3,0,0.6,0,0.9c0,0,0,0.2,0.1,0.2c0,0,0.1,0,0.1,0c7.2,2,14.9,2.5,22.3,1.6c0.7-0.1,1.3-0.2,1.7-0.5
			c0.3-0.2,0.6-0.5,0.6-0.9L53,60.7c-0.3-0.1-0.5-0.4-0.4-0.7c0.1-0.3,0.4-0.5,0.7-0.4l1.1,0.3c0.2,0.1,0.3,0.2,0.4,0.4
			c0.2,0.8-0.2,1.8-1,2.4c-0.7,0.4-1.4,0.6-2.2,0.7C49.2,63.7,46.7,63.8,44.3,63.8z"/>
		<path class="st3" d="M47.6,68.8c-0.1,0-0.3,0-0.4,0c-5.3-0.1-11.6-0.3-17.7-2c-0.3-0.1-1-0.3-1.3-0.9c-0.3-0.6,0.1-1.2,0.4-1.6
			c0.1-0.2,0.2-0.4,0.3-0.6c0.1-0.3,0.4-0.5,0.7-0.4c0.3,0.1,0.5,0.4,0.4,0.7c-0.1,0.3-0.3,0.6-0.4,0.9c-0.2,0.3-0.3,0.5-0.3,0.6
			c0.1,0.1,0.4,0.2,0.6,0.3c6,1.7,12.1,1.9,17.4,2c1.9,0,3.8-0.1,5.2-1.1c0.3-0.3,0.5-0.5,0.6-0.8c0-0.2-0.1-0.4-0.2-0.5
			c-0.3-0.1-0.5-0.4-0.4-0.7c0.1-0.3,0.4-0.5,0.7-0.4c0.7,0.2,1.1,1,1,1.7c-0.1,0.5-0.4,1-1,1.4C51.6,68.6,49.6,68.8,47.6,68.8z"/>
		<path class="st3" d="M28.8,69.7c-0.3,0-0.5-0.1-0.7-0.3c-0.2-0.2-0.3-0.5-0.2-0.9c0.1-0.8,0.9-1.4,1.8-1.4c0.3,0,0.5,0.3,0.5,0.6
			c0,0.3-0.3,0.5-0.6,0.5c-0.2,0-0.4,0.1-0.5,0.3c6.7-2.4,13.2-5.6,19.1-9.5c1.4-0.9,2.9-2,4.1-3.3c0.6-0.7,1.2-1.6,1.2-2.6l-0.1,0
			c-0.3-0.1-0.5-0.4-0.4-0.7c0.1-0.3,0.4-0.5,0.7-0.4l0.5,0.1c0.2,0,0.4,0.2,0.4,0.4c0.2,1.2-0.3,2.5-1.4,3.9
			c-1.3,1.5-2.9,2.6-4.3,3.5c-6.1,4-12.6,7.3-19.4,9.7C29.1,69.7,28.9,69.7,28.8,69.7z"/>
		<path class="st3" d="M32.2,82.1c-0.4,0-0.9-0.1-1.3-0.5c-0.2-0.3-0.3-0.7-0.3-1c0-1.2,0.4-2.5,1.2-3.4c0.2-0.2,0.5-0.2,0.8,0
			c0.2,0.2,0.2,0.5,0,0.8c-0.6,0.7-1,1.7-1,2.6c0,0.2,0,0.3,0.1,0.3c0,0,0.2,0.1,0.7,0.1c5.1-0.6,10.1-2.6,14.3-5.6
			c0.8-0.6,1.7-1.3,2.1-2.2l-0.5-0.1c-0.3,0-0.5-0.3-0.5-0.6c0-0.3,0.3-0.5,0.6-0.5l1.2,0.1c0.1,0,0.3,0.1,0.4,0.2
			c0.1,0.1,0.1,0.3,0.1,0.4c-0.3,1.6-1.6,2.7-2.7,3.5c-4.4,3.1-9.5,5.1-14.8,5.8C32.6,82.1,32.4,82.1,32.2,82.1z"/>
		<path class="st3" d="M37.4,97.7c-1.6,0-3.4,0-5.1-0.6c-0.7-0.2-1.1-0.6-1.2-1.1c-0.1-0.5,0.2-1,0.6-1.1c0.4-0.2,0.8,0,1,0.3
			c0.2,0.3,0.1,0.6-0.2,0.8c0,0-0.1,0.1-0.2,0.1c0.1,0,0.1,0.1,0.2,0.1c1.6,0.5,3.3,0.5,5,0.5c2.9,0,5.9,0,8.9-0.3
			c-0.1,0-0.1-0.1-0.2-0.1c-0.3,0-0.5-0.3-0.5-0.6c0-0.3,0.3-0.5,0.6-0.5c0.4,0.1,0.8,0.3,1,0.6c0.2,0.3,0.4,0.7,0.3,1.1
			c0,0.2-0.2,0.4-0.5,0.5c-3.2,0.3-6.5,0.3-9.7,0.3C37.6,97.7,37.5,97.7,37.4,97.7z M47.3,96.8L47.3,96.8L47.3,96.8z"/>
		<path class="st3" d="M45.5,102.4c-1,0-1.8-0.5-2.6-1c-3.3-2-6.5-4.2-9.7-6.5c-0.7-0.5-1.5-1.1-2-2c-0.2-0.4-0.3-0.8-0.2-1.1
			c0.1-0.3,0.3-0.5,0.5-0.7c0.2-0.1,0.5-0.2,0.8-0.1c0.3,0.1,0.4,0.4,0.3,0.7c-0.1,0.2-0.3,0.4-0.6,0.4c0,0,0,0.1,0.1,0.3
			c0.4,0.7,1.1,1.2,1.7,1.6c3.1,2.2,6.3,4.4,9.6,6.4c0.7,0.5,1.5,0.9,2.2,0.8c0,0,0,0,0,0l0-1.6c0-0.3,0.2-0.6,0.5-0.6c0,0,0,0,0,0
			c0.3,0,0.5,0.2,0.6,0.5l0,1.6c0,0.2,0,0.5-0.2,0.8c-0.3,0.3-0.6,0.3-0.8,0.3C45.7,102.4,45.6,102.4,45.5,102.4z M45.6,101.4
			L45.6,101.4L45.6,101.4z"/>
		<path class="st3" d="M31.9,99.7c-0.2,0-0.5-0.2-0.5-0.4c-0.1-0.5,0-1,0.4-1.4c0.4-0.4,0.9-0.5,1.4-0.3c0.3,0.1,0.4,0.4,0.3,0.7
			c0,0,0,0.1,0,0.1c4.3-0.5,9.2-1.4,12.8-4.3c0,0,0,0,0.1-0.1c-0.1,0-0.1,0-0.2-0.1c-0.3-0.2-0.3-0.5-0.1-0.8
			c0.2-0.3,0.6-0.4,0.9-0.3c0.4,0.1,0.7,0.5,0.7,0.9c0,0.6-0.5,1-0.7,1.1C42.7,98.5,36.7,99.2,31.9,99.7
			C31.9,99.7,31.9,99.7,31.9,99.7z"/>
		<path class="st3" d="M43.8,93.9c-0.3,0-0.7,0-1,0L32,93.3c-0.2,0-0.4-0.1-0.5-0.3c-0.1-0.4-0.1-0.8,0.1-1.1
			c0.2-0.4,0.6-0.6,0.9-0.6c0.3,0,0.6,0.2,0.6,0.5c0,0.2-0.1,0.5-0.3,0.6l10.1,0.5c0.8,0,1.8,0.1,2.6-0.2c0.5-0.2,1-0.6,1.1-1.1
			l-0.2,0c-0.3,0-0.5-0.3-0.5-0.6s0.3-0.5,0.6-0.5l0.8,0c0.3,0,0.5,0.2,0.5,0.5c0.1,1.3-0.9,2.3-1.9,2.7
			C45.2,93.8,44.5,93.9,43.8,93.9z"/>
		<path class="st3" d="M43.4,78.9c-3.1,0-6.5-0.4-10.2-1.2c-0.4-0.1-1-0.2-1.4-0.7c-0.3-0.3-0.3-0.8-0.1-1.2
			c0.1-0.3,0.4-0.6,0.8-0.6c0.3,0,0.6,0.2,0.6,0.5c0,0.3-0.1,0.5-0.4,0.6c0,0,0,0.1,0,0.1c0.1,0.2,0.4,0.2,0.7,0.3
			c5.6,1.2,10.3,1.4,14.6,0.8c0.1,0,0.2,0,0.2,0c-0.1,0-0.1-0.1-0.1-0.1c-0.2-0.2-0.1-0.6,0.1-0.8c0.3-0.2,0.7-0.2,1,0
			c0.3,0.3,0.5,0.8,0.3,1.2c-0.3,0.6-1,0.7-1.3,0.7C46.6,78.8,45,78.9,43.4,78.9z"/>
	</g>
	<g class="st1">
		<g>
			<path class="st6" d="M583.3,62.9c0,0.5-0.9,7.8-1,8.3c-0.2,1.1-0.4,2.2-0.6,3.2c-1.1,4.8-2.5,9.5-4.2,14
				c-1.8,4.6-4.2,8.7-6.9,12.8c-0.7,1.1-1.4,2.4-1,3.6c0.4,1.1,1.6,1.8,2.8,1.8c1.2,0,2.1-0.7,2.8-1.6c2.5-3.4,4.8-7,8-9.8
				c3.5-3.2,8.9-3.3,12.9-0.8c3.9,2.5,4.6,7.5,6,11.7c1.2,3.5,6.3,3.6,5.6,0.2c-0.3-1.4-2.1-8.3-2.7-11.2
				c-2.1-9.3,0.1-38.6-1.2-43.6c-1.3-5-3.8-9.5-4.6-14.7c-0.3-1.8-0.1-3.9-0.6-5.6c-0.5-1.6-2-3.1-3.8-3.1c-2.8,0-4.8,3.6-4.6,6.1
				c0.1,0.8,0.3,1.6,0.4,2.5c0.3,2.8-1.1,5.4-2.5,7.6c-1.2,2-3.1,3.5-4,5.6c-1.1,3.1-3.1,7.5-4.6,10.4c-0.7,1.5-1.6,2.9-2.5,4.3
				c-0.6,0.9-2.5,2.8-2.2,4c0.1,0.5,0.6,0.8,1,0.9c1.6,0.4,2.9-0.8,3.8-2c3.3-4.4,7.3-8.7,9-14.9"/>
			<path class="st3" d="M571.4,107.4c-1.3-0.3-2.4-1.1-2.7-2.3c-0.5-1.5,0.3-3,1.1-4.2c2.6-4.1,5-8.1,6.8-12.7
				c1.6-4.1,3-8.7,4.2-13.9c0.3-1.1,0.5-2.1,0.6-3.2c0.1-0.4,0.4-3.4,0.7-5.6c-0.1,0.1-0.2,0.3-0.3,0.4c-0.6,0.7-1.2,1.5-1.7,2.2
				c-1.8,2.4-3.5,2.5-4.6,2.2c-0.8-0.2-1.4-0.8-1.6-1.5c-0.3-1.3,0.8-2.7,1.7-3.8c0.2-0.3,0.5-0.6,0.6-0.8c0.9-1.4,1.7-2.8,2.4-4.2
				c1.5-3,3.4-7.4,4.5-10.3c0.5-1.4,1.5-2.6,2.4-3.6c0.6-0.7,1.2-1.4,1.6-2.1c1.4-2.4,2.7-4.7,2.4-7.1c0-0.4-0.1-0.7-0.2-1.1
				c-0.1-0.5-0.2-0.9-0.2-1.4c-0.2-1.8,0.6-3.9,1.9-5.3c1-1.1,2.2-1.7,3.5-1.7c2.2,0,4,1.8,4.5,3.7c0.4,1.2,0.4,2.4,0.5,3.6
				c0,0.7,0.1,1.5,0.2,2.1c0.4,2.9,1.5,5.7,2.5,8.4c0.7,2,1.5,4.1,2,6.2c0.6,2.3,0.5,9.2,0.4,17.2c-0.2,10-0.3,21.3,0.8,26.4
				c0.4,1.6,1.1,4.4,1.7,6.9c0.5,2,0.9,3.7,1.1,4.3c0.3,1.6-0.4,2.9-1.8,3.3c-1.8,0.5-4.4-0.6-5.2-3.1c-0.3-0.8-0.5-1.7-0.8-2.6
				c-1-3.3-2-6.8-4.9-8.6c-3.8-2.4-8.8-2.1-11.9,0.7c-2.4,2.2-4.4,5-6.4,7.6c-0.5,0.7-1,1.4-1.5,2.1c-0.9,1.3-2.1,1.9-3.4,1.9
				C572,107.5,571.7,107.5,571.4,107.4z M584,63c-0.1,0.8-0.9,7.8-1,8.3c-0.2,1-0.4,2.1-0.6,3.3c-1.2,5.3-2.6,10-4.3,14.1
				c-1.8,4.7-4.3,8.8-7,13c-0.6,0.9-1.2,2-0.9,2.9c0.2,0.7,1.1,1.3,2,1.2c0.8,0,1.5-0.4,2.2-1.3c0.5-0.7,1-1.4,1.5-2
				c2-2.7,4-5.6,6.6-7.9c3.6-3.3,9.4-3.7,13.8-0.9c3.4,2.1,4.5,5.9,5.5,9.5c0.3,0.9,0.5,1.7,0.8,2.6c0.6,1.8,2.3,2.3,3.3,2.1
				c0.7-0.2,0.9-0.7,0.7-1.5c-0.1-0.6-0.6-2.3-1-4.3c-0.6-2.5-1.3-5.3-1.7-6.9c-1.2-5.3-1-16.7-0.8-26.8c0.1-7.6,0.2-14.7-0.3-16.8
				c-0.5-2-1.3-4.1-2-6c-1-2.8-2.1-5.7-2.6-8.7c-0.1-0.8-0.2-1.5-0.2-2.3c-0.1-1.2-0.1-2.2-0.4-3.2c-0.4-1.2-1.6-2.6-3-2.6
				c-1,0-1.8,0.6-2.3,1.2c-1,1.1-1.6,2.8-1.5,4.1c0,0.4,0.1,0.8,0.2,1.2c0.1,0.4,0.2,0.8,0.2,1.2c0.4,3-1.1,5.7-2.6,8.1
				c-0.5,0.8-1.1,1.6-1.8,2.3c-0.9,1-1.7,2-2.1,3.2c-1.1,3-3.1,7.4-4.6,10.5c-0.7,1.4-1.6,2.9-2.5,4.4c-0.2,0.2-0.4,0.6-0.7,0.9
				c-0.5,0.6-1.6,1.9-1.4,2.4c0,0.1,0.2,0.3,0.5,0.4c1.2,0.3,2.3-0.7,3-1.7c0.6-0.7,1.1-1.5,1.7-2.2c2.9-3.6,5.8-7.4,7.2-12.4
				c0.1-0.4,0.5-0.7,1-0.6c0.4,0.1,0.7,0.5,0.6,1C588.2,56.9,586.2,60.1,584,63z"/>
		</g>
		<g>
			<path class="st6" d="M603,50c0.9,12.3-7.8,16.2-21,19.3c-0.5,0.1-1,0.3-1.6,0.2c-0.8-0.1-1.6-0.7-1.8-1.5
				c-0.2-0.8,0.1-1.7,0.8-2.2c0.7-0.5,1.7-0.4,2.5-0.6c10.1-2.4,14.9-8,14.2-11.4"/>
			<path class="st3" d="M580.2,70.3c-1-0.2-1.9-1-2.2-2.1c-0.3-1.1,0.1-2.3,1.1-3c0.6-0.5,1.4-0.6,2.1-0.7c0.3,0,0.5-0.1,0.8-0.1
				c9.8-2.3,14.2-7.6,13.6-10.4c-0.1-0.4,0.2-0.8,0.6-0.9c0.4-0.1,0.8,0.2,0.9,0.6c0.9,4-4.5,9.9-14.8,12.3
				c-0.3,0.1-0.6,0.1-0.9,0.2c-0.5,0.1-1,0.1-1.3,0.4c-0.4,0.3-0.6,0.9-0.5,1.4c0.1,0.5,0.6,0.9,1.1,0.9c0.3,0,0.7-0.1,1-0.2
				l0.3-0.1c13.8-3.3,21.1-7.2,20.4-18.5c0-0.4,0.3-0.8,0.7-0.8c0.4,0,0.8,0.3,0.8,0.7c1,13.6-9.7,17.3-21.6,20.1l-0.2,0.1
				c-0.5,0.1-1,0.3-1.6,0.2C580.3,70.3,580.3,70.3,580.2,70.3z"/>
		</g>
	</g>
	<line class="st4" x1="41.3" y1="63.8" x2="579" y2="68"/>
</g>
<g id="Layer_5" class="st0">
	<g class="st1">
		<g>
			<path class="st7" d="M594.5,21.3c0.4-1,0.8-2,1.5-2.8c1.1-1,2.9-1.2,4.1-0.4s1.9,2.4,1.5,3.9c-0.3,1-1,1.8-1.6,2.7
				c-1.2,1.9-1.6,4.1-1.5,6.2c0.2,4.3,1,8.6,1.3,13c0.3,4.6,0.4,9.2,0.9,13.8c0.4,4.6,1.2,9.2,2.8,13.6c1.6,4.4,4.3,8.4,5.9,12.8
				c0.9,2.5,1.6,5.3,1.3,7.9c-0.3,2.8-1.8,5.2-3.1,7.6c-1.4,2.7-2.5,5.7-4.4,8.1c-0.7,0.9-1.8,1.7-3,1.6c-0.9-0.1-1.8-0.7-2.3-1.4
				c-2.9-4,2.1-8.1,3.2-11.8c2.2-7.1-17.3,0.2-22.1,1.8c-4.3,1.4-7.3,3.9-10.1,7.5c-0.9,1.1-1.8,2.4-3,3c-1.3,0.7-3.1,0.6-3.9-0.6
				c-0.5-0.7-0.6-1.7-0.4-2.5c0.5-2.9,2.6-5.2,4.4-7.4c9.5-11.7,13.3-26.4,16.3-40.9C585.1,44.7,590.1,33.1,594.5,21.3z"/>
			<path class="st3" d="M600.6,110c-0.1,0-0.1,0-0.2,0c-1-0.1-2-0.7-2.8-1.7c-2.3-3.1-0.3-6.2,1.4-8.9c0.7-1.2,1.4-2.3,1.8-3.4
				c0.4-1.1,0-1.5-0.2-1.6c-2.3-2.3-15.5,2.2-19.8,3.7c-0.5,0.2-1,0.4-1.4,0.5c-3.9,1.3-6.9,3.5-9.8,7.3l-0.2,0.2
				c-0.9,1.1-1.8,2.3-3.1,3c-1.5,0.8-3.7,0.7-4.7-0.8c-0.5-0.7-0.7-1.8-0.5-3c0.4-2.7,2.2-4.9,4-7l0.6-0.7
				c9.6-11.8,13.4-27.2,16.2-40.6c2-9.9,5.7-19.5,9.3-28.7c0.9-2.4,1.8-4.8,2.7-7.2l0,0c0.4-1,0.8-2.1,1.7-3
				c1.3-1.2,3.4-1.4,4.9-0.5c1.5,0.9,2.3,2.9,1.8,4.6c-0.2,0.8-0.7,1.5-1.2,2.2c-0.2,0.2-0.3,0.5-0.5,0.7c-1,1.6-1.5,3.7-1.4,5.9
				c0.1,2.4,0.4,4.8,0.7,7.1c0.2,1.9,0.5,3.9,0.6,5.9c0.1,1.9,0.2,3.9,0.3,5.7c0.1,2.6,0.3,5.4,0.5,8c0.5,5.4,1.4,9.7,2.8,13.4
				c0.8,2.2,1.9,4.2,2.9,6.3c1.1,2.1,2.2,4.2,3,6.5c1.2,3.1,1.6,5.8,1.3,8.2c-0.3,2.6-1.5,4.9-2.7,7l-0.4,0.8
				c-0.5,0.9-0.9,1.8-1.3,2.7c-0.9,1.9-1.8,3.8-3.1,5.5C602.9,109.3,601.7,110,600.6,110z M598,92.6c1.5,0,2.7,0.3,3.4,0.9
				c0.5,0.5,0.9,1.3,0.5,2.9c-0.4,1.2-1.1,2.4-1.9,3.7c-1.6,2.7-3.2,5.2-1.4,7.6c0.5,0.7,1.2,1.1,1.9,1.2c0.8,0.1,1.7-0.5,2.5-1.4
				c1.2-1.6,2.1-3.4,2.9-5.3c0.4-0.9,0.9-1.9,1.4-2.8l0.4-0.8c1.2-2.2,2.3-4.2,2.6-6.6c0.3-2.2-0.1-4.7-1.2-7.7
				c-0.8-2.2-1.9-4.3-2.9-6.4c-1-2.1-2.1-4.2-3-6.4c-1.4-3.9-2.4-8.2-2.9-13.8c-0.3-2.7-0.4-5.4-0.5-8.1c-0.1-1.9-0.2-3.8-0.3-5.7
				c-0.1-1.9-0.4-3.9-0.6-5.8c-0.3-2.3-0.6-4.8-0.7-7.2c-0.1-2.5,0.4-4.8,1.6-6.6c0.2-0.3,0.3-0.5,0.5-0.7c0.4-0.6,0.8-1.2,1-1.8
				c0.3-1.2-0.2-2.6-1.3-3.2c-1-0.6-2.5-0.5-3.4,0.4c-0.7,0.6-1.1,1.6-1.4,2.5l0,0c-0.9,2.4-1.8,4.8-2.7,7.2
				c-3.5,9.2-7.2,18.7-9.2,28.5c-2.8,13.6-6.6,29.1-16.4,41.1l-0.6,0.7c-1.6,2-3.3,4-3.7,6.4c-0.1,0.6-0.1,1.5,0.3,2.1
				c0.7,0.9,2.1,0.9,3.1,0.4c1.1-0.6,1.9-1.6,2.7-2.6l0.2-0.2c3-3.9,6.2-6.3,10.3-7.7c0.4-0.1,0.8-0.3,1.4-0.5
				C587,94.7,593.8,92.6,598,92.6z M594.5,21.3L594.5,21.3L594.5,21.3z"/>
		</g>
		<g>
			<path class="st7" d="M591.6,42.7c3.3-2.4,6.7-4.6,9.8-7.1c0.4-0.3,0.8-0.7,1-1.1c0.8-2.1-2.1-2.9-2.8-4.3
				c-0.3-0.7-0.3-1.6,0.1-2.2c2-2.4,5,3.3,5.6,4.5c0.9,1.7,0.4,3.5-1,4.9c-2.2,2.2-4,4-6.5,5.7"/>
			<path class="st3" d="M597.7,43.7c-0.2,0-0.4-0.1-0.5-0.3c-0.2-0.3-0.1-0.7,0.1-0.9c2.4-1.7,4-3.3,6.2-5.4l0.2-0.2
				c1.3-1.2,1.6-2.8,0.9-4.2c-1.4-2.8-2.9-4.6-3.9-4.7c-0.2,0-0.4,0-0.7,0.4c-0.3,0.4-0.3,1-0.1,1.5c0.2,0.4,0.7,0.8,1.2,1.2
				c1,0.8,2.3,1.9,1.7,3.6c-0.2,0.6-0.7,1-1.2,1.4c-2.3,1.8-4.7,3.5-7,5.2c-0.9,0.7-1.9,1.3-2.8,2c-0.3,0.2-0.7,0.1-0.9-0.1
				c-0.2-0.3-0.1-0.7,0.1-0.9c0.9-0.7,1.9-1.3,2.8-2c2.3-1.6,4.7-3.3,7-5.1c0.4-0.3,0.7-0.6,0.8-0.9c0.3-0.8-0.2-1.3-1.3-2.2
				c-0.6-0.5-1.2-1-1.5-1.6c-0.5-1-0.4-2.1,0.2-2.8c0.6-0.8,1.3-0.9,1.8-0.8c1.8,0.2,3.6,3,4.8,5.4c1,1.9,0.5,4-1.1,5.7l-0.2,0.2
				c-2.1,2-3.9,3.8-6.3,5.6C598,43.7,597.9,43.7,597.7,43.7z"/>
		</g>
	</g>
	<path class="st4" d="M58.8,60.5c3.5,4.5,8.9,7.5,14.6,8c1,0.1,2.2,0,2.9-0.7c0.7-0.9,0.5-2.2,0.1-3.2c-1.7-4.7-5.2-8.6-9.7-10.8
		c-4.4-2.1-11.6-0.8-11.5,4c0,2.3,1.8,4.1,3.6,5.5c4,3.1,8.8,5.3,13.9,6.1C70,62,60.5,60.1,52.7,59.9c-1.9-0.1-3.9-0.1-5.4,1
		c-2.2,1.5-2.7,4.7-1.8,7.2c0.9,2.5,2.7,4.5,4.6,6.5c2.9,3,7.5,6.3,10.8,3.8c2.7-2,2-6.6-0.6-8.8c-2.5-2.2-6.1-2.7-9.5-3
		c-4.7-0.3-10.5,0.2-12.4,4.5c-1.6,3.6,0.7,7.9,4,9.9c3.3,2,7.4,2.3,11.3,2.4c1.7,0.1,3.6,0.1,5-0.9c1.3-0.9,1.9-2.6,2.4-4.1
		c2.1-6.9,3.4-14,3.7-21.2c0.1-2.7,0.1-5.6-0.9-8.1c-2.6-6.2-10.2-8.3-16.8-9.7c-4.6-0.9-11.1-0.7-12,3.9c-0.4,2.4,1.1,4.7,2.7,6.6
		c9.9,11.9,23.5,20.4,38.4,24.4c2.6,0.7,5.5,1.3,8.1,0.5c3.9-1.2,6.3-5.5,6.3-9.6c0-4.1-2-8-4.6-11.1c-5-6.2-12.5-10.3-20.3-11.3
		c-6-0.8-12.6,0.5-16.6,5c-4.1,4.7-4.4,11.7-2.4,17.6c2.6,7.8,8.8,14.2,16.5,17.1c2.5,1,5.6,1.5,7.8-0.2c1.5-1.1,2.2-3,2.8-4.8
		c3.5-10.9,5.5-22.2,6.1-33.6c0.2-4.3,0.2-8.8-1.4-12.8c-2.5-6.4-8.6-10.8-15.1-12.9c-6.5-2.2-14.1-2.5-21-2.7
		c-3.4-0.1-7.2,0.9-9,3.7c-1.2,1.8-1.4,4.2-1.4,6.4c-0.1,13.6,5.7,27.1,15.7,36.4c9.7,9.1,23.2,14,36.5,13.4c3.7-0.2,7.8-1,10.2-3.8
		c1.6-1.8,2.4-4.3,2.9-6.7c1.6-7.2,2-14.7,1.1-22.1c-0.2-1.9-0.6-4-1.9-5.4c-1.3-1.4-3.4-2-5.3-2.5c-5.7-1.4-11.4-2.8-17.1-4.3
		c-4.2-1-8.6-2.1-12.8-0.8c-4.9,1.5-8.5,6.2-9.6,11.2s0.1,10.4,2.4,15c4.1,8.5,11.8,15.2,20.8,18c2.6,0.8,5.5,1.3,8,0.3
		c3.5-1.5,5.3-5.5,5.6-9.3c1-10.5-6.2-20.5-15.5-25.6s-20.2-6-30.8-5.8c-4,0.1-8.2,0.3-11.6,2.4c-17.1,10.5-1,33.5,11.1,40.6
		c6.2,3.6,14.2,5.4,20.4,1.8c3.4-2,5.9-5.5,7.2-9.2c1.3-3.8,1.6-7.8,1.6-11.8c-0.1-5-0.7-10.2-2.8-14.8c-2.1-4.6-5.8-8.6-10.5-10.3
		c-8.1-2.9-17.7,1.8-21.6,9.4S32.8,59,36.9,66.5s11,13.2,18.4,17.6c11.9,7.1,25.8,11.3,39.6,9.9c2.6-0.3,5.3-0.8,7.3-2.5
		c1.7-1.5,2.6-3.8,3.4-6c1.6-4.7,2.6-9.5,3.1-14.4c0.7-6.3,0.3-13.2-3.3-18.4c-2.6-3.7-6.7-6.2-11.1-7.6c-4.3-1.4-8.9-1.8-13.5-1.9
		c-5.6-0.2-11.3,0-16.6,1.6c-5.3,1.7-10.3,5.1-12.9,10.1c-4,7.7-1.4,17.3,3.6,24.4c1.9,2.7,4.1,5.2,7,6.7c2.9,1.5,6.5,1.8,9.4,0.2
		c2.2-1.2,3.6-3.4,4.7-5.7c3.4-7.6,2.6-16.9-1.7-24.1c-4.3-7.2-11.8-12.2-20-13.9c-7.2-1.5-15.4-0.3-20.6,4.9
		c-4.1,4.1-5.7,10.1-5.6,15.9c0.2,7.9,3.6,15.7,9.3,21.2c2.4,2.3,5.3,4.3,8.6,5c3.3,0.7,7,0.1,9.4-2.2c2.3-2.2,3.2-5.4,3.9-8.5
		c0.8-3.8,1.4-7.7,0.9-11.5c-0.4-3.9-1.9-7.7-4.7-10.4c-5.1-4.9-13.4-4.9-20.1-2.2c-7.3,2.9-13.9,9.3-14,17.1
		c-0.1,4.6,2.1,9,5.3,12.4c3.2,3.3,7.3,5.7,11.5,7.5c9.7,4.3,20.4,6.3,31,5.8c3.2-0.1,6.6-0.6,9.3-2.3c3.3-2.1,5.1-5.9,6.2-9.6
		c3.4-11.2,1.7-23.9-4.7-33.7c-2.6-4-5.9-7.5-10.1-9.7c-4.2-2.2-9.3-2.8-13.7-1s-7.7,6.3-7.5,11c0.2,4.6,3.4,8.5,6.7,11.6
		c7.2,6.6,16,11.5,25.4,14c3.6,1,7.3,1.6,10.9,1.1c2-0.3,4-1,5.3-2.5c2.6-2.9,1.2-7.9-1.9-10.3C92,63.5,87.9,63,84,62.8
		c-2.3-0.1-5.1,0-6.3,2.1c-0.6,1-0.5,2.2-0.5,3.3c0.5,7.3,2.9,14.4,7.1,20.4c1.5,2.2,3.3,4.2,5.7,5.3c2.4,1.1,5.5,0.9,7.3-1
		c1.8-1.9,1.8-5.1,0.6-7.5c-1.2-2.4-3.4-4.1-5.6-5.7C75.6,67.5,54.6,61.6,34,62.8c1.2-0.4,1.6-1.9,1.7-3.1
		c0.8-5.9,0.7-12.1-1.1-17.8s-5.3-11-10.4-14.2c-1.8-1.1-3.9-2-6-1.7s-4.1,2.2-3.9,4.3c0.1,1.4,1.1,2.6,2.2,3.6
		c7.3,7.3,17.1,12.2,27.3,13.6c2.6,0.4,6,0.1,7-2.3c0.8-1.8-0.3-3.9-1.9-5c-1.6-1-3.7-1.2-5.6-1c-6.3,0.6-12.2,4.2-15.5,9.6
		c-2.7,4.4-3.3,10.7,0.3,14.3c2.4,2.3,6.1,2.9,9.4,2.4c3.3-0.6,6.3-2.2,9.3-3.8c-6.4-2.2-13.7-1.6-19.7,1.6s-10.6,8.9-12.4,15.4
		c-1.1,3.8-1.1,8.3,1.3,11.4c2.7,3.6,7.6,4.7,12,4.4C38.4,93.9,48,87.3,52.3,78c0.9-1.9,1.5-4,1.2-6c-0.3-2.1-1.8-4-3.9-4.3
		c-1.7-0.2-3.4,0.7-4.4,2.1c-1,1.3-1.6,3-2,4.6c-1,3.6-1.6,7.5-0.4,11.1c1.1,3.6,4.4,6.7,8.1,6.6c3-0.1,5.7-2.2,7.1-4.9
		s1.6-5.8,1.4-8.8c-0.2-2.7-0.8-5.4-1.7-7.9c-0.4-1.1-0.9-2.1-1.7-2.9c-0.8-0.8-2.2-1.1-3.1-0.5c-0.6,0.4-1,1-1.4,1.6
		c-4.4,7.6-5.8,16.9-4,25.4c0.6,3.1,2,6.4,4.9,7.7c3.3,1.5,7.4-0.7,9.1-3.8c1.8-3.1,1.8-7,1.3-10.6c-0.6-4.5-1.8-9-4.3-12.7
		s-6.6-6.7-11.1-7.1c1.2,3.4,5.1,5.3,8.7,5.1c3.6-0.1,7-1.9,9.9-4c9.8-7,14.5-31.6,11.2-31.4c-3.3,0.2-6.6,1.8-8.1,4.8
		c-1.4,3-0.3,7.1,2.7,8.4c1.8,0.8,3.9,0.5,5.9,0c11-2.5,21.4-8,29.5-15.9c1.6-1.5,3.2-3.4,2.8-5.6c-0.4-2.6-3.2-3.9-5.7-4.5
		c-6.4-1.6-13.3-1.6-19.5,0.6c-2.6,0.9-5.2,2.2-6.9,4.4c-1.7,2.2-2.5,5.3-1.3,7.7c1.2,2.5,4.6,3.8,6.9,2.3c2.7-1.7,2.6-5.7,1.3-8.6
		C81.7,23.7,73.8,19.4,66,18.7c-3.8-0.3-8.2,0.4-10.3,3.6c-1.4,2.1-1.4,4.8-1.2,7.3c0.6,7.6-4.4,18-6.7,17.3
		c-4.6-1.3-9.2-2.3-13.9-3c-9.1-1.5-22.7,6.9-18,8.8c4.7,1.8,9.6,3.5,14.7,3.4s10.3-2.1,13.1-6.3s2.2-10.7-2-13.5
		c-3.5-2.4-8.9-1.3-11.3,2.2c-5.3,7.8,5.4,18.1,11,22c4.6,3.2,9.7,5.9,15.2,6.5c9.3,1.1,16.5-4.8,19.6-13.2
		c2.1-5.9,2.3-12.3,2.1-18.6C75,48.7,82.2,64,94.6,70.2c3.7,1.9,8.2,3,12.1,1.6c7.5-2.6,8.9-14.8,2.2-19
		c-6.7-4.2-17.1,2.3-16.1,10.2c0.1,0.9,0.3,1.9-0.4,2.5s-2-0.5-1.2-1l500.3-37.1"/>
</g>
<g id="Layer_6" class="st0">
	<g class="st1">
		<g>
			<path class="st8" d="M305.7,40.1c-8.8,6.3-17.4,13-25.8,20c-0.2,0.2-0.4,0.3-0.4,0.6c-0.1,0.3,0.1,0.6,0.2,0.8
				c1.5,2.2,4.8,2.6,7.3,1.6c2.5-1,4.4-3.1,6.2-5.1c4.6-5.1,9.1-10.1,13.7-15.2"/>
			<path class="st3" d="M284.3,64.5c-2,0-4.1-0.7-5.3-2.5c-0.1-0.2-0.5-0.8-0.4-1.5c0.1-0.5,0.5-0.8,0.7-1c8.3-7,17-13.7,25.8-20.1
				l1,1.4c-8.8,6.3-17.4,13-25.7,20c0,0-0.1,0.1-0.1,0.1c0,0,0,0.1,0.1,0.1c1.3,1.9,4.2,2.1,6.2,1.3c2.4-1,4.2-3,5.9-4.8l13.7-15.2
				l1.3,1.2l-13.7,15.2c-1.8,2-3.8,4.2-6.5,5.3C286.4,64.2,285.4,64.5,284.3,64.5z"/>
		</g>
		<g>
			<path class="st8" d="M306.8,42.1c-10.9,0.2-21.8,0-32.6-0.6c-0.2,0-0.5,0-0.7-0.2c-0.2-0.2-0.3-0.5-0.3-0.8
				c-0.1-2.7,2.3-5,4.9-5.6s5.4-0.2,8,0.4c6.7,1.3,14.7,2.8,21.4,4.1"/>
			<path class="st3" d="M298.9,43.1c-8.3,0-16.6-0.2-24.8-0.7c-0.3,0-0.8,0-1.2-0.4c-0.6-0.5-0.6-1.2-0.6-1.4
				c-0.1-3.3,2.7-5.8,5.5-6.5c2.9-0.7,5.8-0.2,8.4,0.4c3.3,0.7,7,1.4,10.7,2c3.7,0.7,7.4,1.4,10.7,2.1l-0.3,1.7
				c-3.3-0.7-7-1.4-10.7-2c-3.7-0.7-7.4-1.4-10.7-2.1c-2.4-0.5-5.1-1-7.6-0.4c-2.2,0.6-4.3,2.5-4.2,4.7c0,0,0,0.1,0,0.1
				c0,0,0.1,0,0.1,0c10.8,0.6,21.7,0.8,32.6,0.6l0,1.8C304.2,43.1,301.6,43.1,298.9,43.1z"/>
		</g>
		<g>
			<g class="st9">
				<path class="st10" d="M342.3,43.9c-1.5,0.4-3.1,0.9-4.5,1.6c-0.6,0.3-1.3,0.7-1.7,1.4c-0.4,0.7-0.6,1.7-0.2,2.4
					c0.4,0.7,1.2,0.8,1.8,0.6c0.6-0.2,1.2-0.6,1.8-0.9c1.1-0.6,2.2-0.7,3.4-0.9"/>
				<path class="st3" d="M337.2,50.8c-0.8,0-1.6-0.4-2-1.1c-0.7-1.1-0.4-2.5,0.2-3.3c0.5-0.8,1.4-1.3,2.1-1.7
					c1.3-0.7,2.8-1.2,4.7-1.7l0.4,1.7c-1.7,0.4-3.1,0.9-4.3,1.5c-0.6,0.3-1.1,0.6-1.4,1.1c-0.3,0.4-0.4,1.1-0.2,1.4
					c0.2,0.4,0.7,0.2,0.8,0.2c0.3-0.1,0.7-0.3,1-0.5c0.2-0.1,0.4-0.2,0.6-0.4c1.2-0.6,2.5-0.8,3.6-1l0.3,1.8
					c-1.1,0.2-2.1,0.3-3.1,0.8c-0.2,0.1-0.4,0.2-0.5,0.3c-0.4,0.3-0.9,0.5-1.4,0.7C337.7,50.8,337.4,50.8,337.2,50.8z"/>
			</g>
			<g>
				<path class="st11" d="M307.1,42.3c3.3-2.1,6.4-4.6,9.2-7.4c1.4-1.4,2.7-3,4.6-3.5c1.2-0.3,2.5-0.2,3.7-0.3
					c3.4-0.3,6.5-2.4,8-5.4c3.6-7.1-2.6-14.9-10.4-11.8c-3.7,1.5-6.2,5.5-6.2,9.5c0,1.3,0.2,2.6-0.1,3.9c-0.4,2.1-2.1,3.7-3.8,5
					c-1.7,1.3-3.6,2.4-4.8,4.1C306.2,38.1,305.8,40.7,307.1,42.3z M320.7,20.2c1.6-2.4,7.1-4.5,8.6-0.9c0.4,0.8,0.3,1.7,0.1,2.6
					c-0.2,0.8-0.5,1.5-0.9,2.2c-0.8,1.2-1.9,2.2-3.3,2.6C321.3,27.6,318.7,23.3,320.7,20.2z"/>
				<path class="st3" d="M306.9,43.5l-0.5-0.6c-1.7-2-1.1-5,0.3-7c1.1-1.5,2.5-2.6,4-3.6c0.3-0.3,0.7-0.5,1-0.8c1.3-1,3-2.5,3.4-4.4
					c0.2-0.8,0.1-1.6,0.1-2.4c0-0.4,0-0.9,0-1.3c0-4.5,2.8-8.7,6.8-10.3c3.8-1.5,7.6-0.7,10.2,2.1c2.7,2.9,3.2,7.2,1.3,11
					c-1.7,3.3-5.1,5.6-8.8,5.9c-0.4,0-0.9,0-1.3,0c-0.8,0-1.6,0-2.3,0.2c-1.5,0.4-2.7,1.7-3.9,2.9l-0.3,0.3
					c-2.8,2.9-5.9,5.4-9.3,7.6L306.9,43.5z M325.8,14.1c-1,0-2.1,0.2-3.2,0.6c-3.3,1.3-5.6,4.9-5.7,8.7c0,0.4,0,0.8,0,1.2
					c0,0.9,0.1,1.9-0.1,2.9c-0.5,2.5-2.6,4.3-4.1,5.5c-0.3,0.3-0.7,0.5-1.1,0.8c-1.4,1-2.6,1.9-3.6,3.2c-0.8,1.1-1.3,2.9-0.8,4.2
					c3-1.9,5.8-4.2,8.2-6.8l0.3-0.3c1.3-1.3,2.7-2.9,4.7-3.4c0.9-0.2,1.8-0.3,2.7-0.3c0.4,0,0.8,0,1.2,0c3.1-0.2,5.9-2.2,7.3-4.9
					c1.5-3.1,1.2-6.6-1-9C329.5,14.9,327.7,14.1,325.8,14.1z M324.1,27.7c-1.6,0-3-0.7-4-2.1c-1.2-1.8-1.3-4.1-0.1-5.9
					c1.1-1.7,4.1-3.4,6.8-3.2c1.6,0.1,2.8,1,3.4,2.4c0.4,0.9,0.4,1.9,0.1,3.1c-0.2,0.9-0.6,1.7-1,2.4c-1,1.5-2.3,2.6-3.9,3
					C324.9,27.6,324.5,27.7,324.1,27.7z M320.7,20.2l0.7,0.5c-0.8,1.2-0.8,2.7,0,3.9c0.8,1.1,2.1,1.5,3.4,1.2
					c1.1-0.3,2.1-1.1,2.8-2.2c0.4-0.6,0.6-1.3,0.8-1.9c0.2-0.8,0.2-1.5,0-2c-0.4-0.8-1-1.2-1.9-1.3c-1.9-0.2-4.3,1.2-5.1,2.4
					L320.7,20.2z"/>
			</g>
			<g>
				<path class="st11" d="M309.4,44.2c1.9,0.9,4.1,1.1,6.2,1.4c2.1,0.3,4.3,1,5.7,2.6c0.8,1,1.3,2.2,1.9,3.4c1.9,3.5,6,5.9,10,5.4
					c8.3-1,10-10.7,3.5-15.3c-2.8-1.9-6.6-2.3-9.6-0.9c-1.1,0.5-2.2,1.2-3.4,1.5c-1.9,0.4-3.9-0.3-5.7-0.9
					c-3.8-1.2-7.7-1.9-11.6-2.2C305.9,41.2,307.5,43.2,309.4,44.2z M329.6,44.3c1.4-0.4,2.9,0,4.2,0.7c0.7,0.4,1.3,0.9,1.9,1.5
					c0.6,0.6,1.1,1.4,1.2,2.3c0.3,3.8-5.5,4.6-8,3.3C325.5,50.3,325.8,45.3,329.6,44.3z"/>
				<path class="st3" d="M332.1,57.9c-3.9,0-7.8-2.3-9.8-5.9c-0.2-0.4-0.4-0.8-0.6-1.1c-0.4-0.8-0.7-1.5-1.2-2.1
					c-1.3-1.5-3.5-2-5.1-2.3c-0.4-0.1-0.8-0.1-1.3-0.2c-1.7-0.2-3.5-0.5-5.2-1.3h0c-2.2-1-4.1-3.5-3.6-6l0.2-0.8l0.8,0.1
					c4,0.3,8,1,11.8,2.2l0.4,0.1c1.6,0.5,3.3,1.1,4.8,0.7c0.7-0.2,1.4-0.5,2.1-0.9c0.4-0.2,0.8-0.4,1.2-0.6c3.4-1.5,7.5-1.1,10.5,1
					c3.4,2.4,5,6.5,4.1,10.3c-0.9,3.7-3.9,6.2-8,6.6C332.9,57.8,332.5,57.9,332.1,57.9z M307.1,40.1c0.2,1.4,1.4,2.7,2.6,3.3h0
					c1.4,0.7,3,0.9,4.6,1.1c0.4,0.1,0.9,0.1,1.3,0.2c1.9,0.3,4.5,0.9,6.2,2.9c0.6,0.8,1.1,1.6,1.5,2.5c0.2,0.4,0.3,0.7,0.5,1.1
					c1.8,3.3,5.6,5.4,9.1,5c3.3-0.4,5.8-2.4,6.5-5.3c0.8-3.1-0.5-6.4-3.4-8.4c-2.5-1.8-6-2.1-8.8-0.9c-0.4,0.2-0.7,0.4-1.1,0.5
					c-0.8,0.4-1.6,0.8-2.5,1c-2,0.5-4-0.2-5.8-0.8l-0.4-0.1C314.2,41.1,310.7,40.4,307.1,40.1z M331.7,53.6c-1.3,0-2.5-0.3-3.3-0.7
					c-1.9-1-3-3.1-2.7-5.2c0.3-2.1,1.7-3.7,3.8-4.2h0c1.5-0.4,3.3-0.1,4.8,0.8c0.8,0.4,1.5,1,2.1,1.7c0.9,0.9,1.3,1.9,1.4,2.8
					c0.1,1.5-0.5,2.8-1.9,3.7C334.7,53.3,333.1,53.6,331.7,53.6z M329.9,45.2c-1.4,0.3-2.3,1.4-2.5,2.7c-0.2,1.4,0.5,2.7,1.8,3.4
					c1.3,0.7,4.1,0.7,5.7-0.3c0.8-0.5,1.1-1.2,1.1-2.1c0-0.5-0.4-1.1-0.9-1.8c-0.5-0.5-1-1-1.6-1.3C332.2,45.1,331,44.9,329.9,45.2
					L329.9,45.2z"/>
			</g>
			<g class="st9">
				<path class="st10" d="M340.9,21.5c-0.2-0.9-0.5-1.9-0.3-2.8c0.3-1.4,1.7-2.5,3.2-2.4s2.8,1.1,3.2,2.5c0.4,1.3,0.2,2.7,0.1,4
					c0,2.9,1.1,5.7,2.1,8.4c10.3,26.2,18.8,53.5,20.8,81.5c0.1,1.1,0.1,2.3-0.2,3.4c-0.4,1.3-1.6,2.4-3.1,2.1
					c-0.6-0.1-1.1-0.6-1.3-1.2c-0.3-1,0.3-1.5,0.7-2.2c0.9-1.5,0.5-3.5-0.1-5.2c-1.8-4.9-4.8-9.3-8.7-12.7
					c-2.9-2.4-6.9-4.4-10.3-2.8c-2.8,1.2-4.1,4.3-4.8,7.3c-0.3,1.2-0.5,2.5-1.1,3.6c-0.7,1.2-2.1,2.2-3.5,1.8
					c-0.8-0.2-1.3-0.9-1.4-1.7c-0.1-1.1,0.7-1.5,1.2-2.1c0.6-0.7,0.8-1.7,0.9-2.7c1.9-14.4,3.3-28.9,4.2-43.4
					c0.5-7.9,0.6-16.4-3.9-22.9c-2.2-3.2-5.3-5.5-8-8.3c-1.9-2.1-3.7-4.6-4.3-7.3c-0.2-0.9,0.8-1.4,1.5-0.9c1.1,1,2.3,2,2.7,2.3
					c1.6,1.5,3.2,3,4.9,4.4c1.1,0.9,3.1,3.3,4.6,2.5C341.6,26,341.1,22.8,340.9,21.5z"/>
				<path class="st3" d="M367.2,119.1c-0.2,0-0.4,0-0.7-0.1c-0.9-0.2-1.7-0.9-2-1.8c-0.4-1.2,0.2-2,0.6-2.6c0.1-0.1,0.2-0.2,0.2-0.3
					c0.6-1,0.5-2.4-0.2-4.5c-1.7-4.8-4.6-9-8.5-12.3c-1.2-1.1-5.6-4.4-9.3-2.7c-2.6,1.2-3.8,4.3-4.3,6.7l-0.1,0.6
					c-0.2,1.1-0.5,2.3-1.1,3.3c-0.8,1.5-2.6,2.8-4.6,2.2c-1.1-0.3-1.9-1.3-2-2.4c-0.2-1.3,0.6-2,1.1-2.4c0.1-0.1,0.2-0.2,0.3-0.3
					c0.4-0.5,0.6-1.3,0.7-2.2c1.9-14.3,3.3-28.9,4.2-43.4c0.5-7.9,0.6-16.1-3.7-22.3c-1.4-1.9-3.1-3.6-4.9-5.3c-1-0.9-2-1.9-3-3
					c-2.4-2.6-3.9-5.2-4.5-7.8c-0.2-0.8,0.2-1.5,0.9-1.9c0.7-0.4,1.5-0.3,2.1,0.2c0.6,0.6,1.3,1.2,1.8,1.6c0.4,0.3,0.7,0.6,0.8,0.7
					c1.6,1.5,3.2,3,4.9,4.3c0.2,0.2,0.5,0.4,0.8,0.7c0.8,0.8,2.2,2.1,2.9,1.7c0.3-0.1,1.1-0.8,0.4-4.2l-0.1-0.5
					c-0.2-0.8-0.4-1.7-0.2-2.6c0.3-1.8,2.2-3.2,4.1-3.2c1.8,0.1,3.5,1.3,4,3.1c0.4,1.1,0.3,2.2,0.2,3.3c0,0.3,0,0.7,0,1
					c0,2.7,1,5.4,2,8c12.7,32.3,19.2,57.6,20.9,81.8c0.1,1.1,0.2,2.4-0.3,3.7C370.2,117.8,368.9,119.1,367.2,119.1z M349.7,92.6
					c3.5,0,6.8,2.4,8.2,3.6c4.1,3.5,7.2,8,9,13.1c0.6,1.6,1.2,4,0,6c-0.1,0.1-0.2,0.3-0.3,0.4c-0.4,0.5-0.4,0.7-0.3,1
					c0.1,0.3,0.4,0.5,0.7,0.6c1,0.2,1.8-0.8,2.1-1.5c0.3-0.9,0.3-1.9,0.2-3c-1.7-24.1-8.1-49.2-20.8-81.3c-1.1-2.8-2.2-5.7-2.2-8.7
					c0-0.4,0-0.7,0.1-1.1c0.1-0.9,0.1-1.8-0.1-2.6c-0.4-1.1-1.4-1.9-2.4-1.9c-1-0.1-2.1,0.8-2.3,1.7c-0.1,0.6,0,1.2,0.2,1.9
					c0,0.2,0.1,0.4,0.1,0.6c0.6,3.4,0.2,5.4-1.4,6.2c-1.8,0.8-3.7-0.9-4.9-2c-0.3-0.2-0.5-0.5-0.7-0.6c-1.7-1.4-3.4-2.9-5-4.4
					c-0.1-0.1-0.4-0.4-0.7-0.6c-0.5-0.5-1.3-1.1-1.9-1.7c0.5,2.3,1.9,4.6,4.1,7c0.9,1,1.9,1.9,2.9,2.9c1.8,1.7,3.7,3.5,5.1,5.6
					c4.7,6.7,4.6,15.2,4,23.4c-0.9,14.5-2.3,29.1-4.2,43.5c-0.1,0.9-0.3,2.2-1.1,3.1c-0.1,0.2-0.3,0.3-0.5,0.5
					c-0.5,0.4-0.6,0.6-0.5,0.9c0.1,0.4,0.4,0.8,0.8,0.9c1,0.3,2-0.5,2.5-1.4c0.5-0.8,0.7-1.8,0.9-2.8l0.1-0.6c0.9-4,2.8-6.7,5.3-7.9
					C347.7,92.8,348.7,92.6,349.7,92.6z"/>
			</g>
			<g class="st9">
				<path class="st10" d="M334.2,45.1c1.4-0.2,2.9,0.7,3.6,2c0.1,0.2,0.2,0.4,0.1,0.6c0,0.2-0.2,0.4-0.4,0.6c-0.5,0.4-1,0.9-1.6,0.9
					c-0.5,0-1-0.3-1.3-0.6c-0.8-0.9-1.6-2.8-0.2-3.6"/>
				<path class="st3" d="M335.9,50c-0.7,0-1.4-0.3-1.9-0.9c-0.7-0.8-1.4-2.1-1.2-3.3c0.1-0.7,0.5-1.3,1.2-1.7l0.2,0.4l0-0.3
					c1.8-0.2,3.6,0.8,4.4,2.4c0.1,0.3,0.3,0.7,0.2,1.2c-0.1,0.5-0.5,0.9-0.7,1.1C337.6,49.3,336.9,50,335.9,50
					C335.9,50,335.9,50,335.9,50z M334.5,46c0,0,0,0.1,0,0.1c-0.1,0.5,0.3,1.4,0.7,1.8c0.2,0.2,0.4,0.4,0.6,0.3c0.3,0,0.7-0.3,1-0.7
					c0,0,0.1-0.1,0.1-0.1c0,0,0,0,0,0C336.5,46.5,335.5,46,334.5,46z"/>
			</g>
		</g>
	</g>
	<line class="st4" x1="0" y1="46" x2="640" y2="46"/>
	<path class="st4" d="M549.5,46.5c1.7-0.8,4.4-3.1,3.1-4.4c-1.1-1-2.5-1.4-4-1.4c-1,0-1.8,0.7-1.7,1.7c0.1,1.2,0.9,2.4,2,3
		c1.7,0.9,3.7,0.8,5.6,0.6c0.2-1.2-0.6-2.5-1.8-2.9c-1.5-0.5-3.4,0.7-3.7,2.3c-0.3,1.6,1,3.3,2.6,3.5c2.8,0.4,5.7-3.1,2.6-6.1
		c-0.3-0.3-0.6-0.5-1-0.6c-1.6-0.4-3.5,1-3.5,2.7c0.1,2.3,2.8,3.3,5,3.7c2,0.4,4,0.7,5.9-0.2c1.4-0.7,2.3-2.1,2-3.6
		c-0.5-2.3-3.4-3-5.7-3.1c-1.2-0.1-2.5-0.1-3.6,0.5c-1.1,0.6-1.8,2-1.3,3.1c0.6,1.1,2.6,1,2.8-0.2c-1.9-1.1-4.2-1.6-6.4-1.5
		c-0.6,0-1.2,0.1-1.6,0.5c-0.4,0.3-0.5,0.9-0.7,1.4c-0.2,0.9-0.3,1.8-0.4,2.8c-0.1,2,2.5,3.1,3.9,1.6c0,0,0,0,0,0
		c0.9-1.1,1.3-2.5,1.7-3.8"/>
</g>
<g id="Layer_7">
	<g>
		<g>
			<path class="st12" d="M24.1,48.9c-1.2,8.5,0,15.5,0.9,24c0.6,6.1,1.2,12.2,1.8,18.3c0.2,2.1,0.2,4.2,0.5,6.3c0.3,2,0.6,4.1,0,6.1
				c-0.3,1.1-0.9,2.2-1.3,3.4s-0.4,2.5,0.2,3.5c1.3,1.9,8.6-3.4,8-5.7c-0.4-1.7-0.2-3.4,0.4-5c0.9-2.6,3.4-3.9,5.7-4.8
				c2.7-1.1,5.6-1.4,8.4-0.6c2.9,0.9,5.5,3,6.9,5.7c1.5,2.7,1.8,6.1,3.7,8.6c1.7,2.2,4.8,2.8,7.3,1.8c2.6-1.1-0.5-3.3-1.6-5
				c-1.8-2.6-2.8-5.6-4.1-8.4c-1.7-3.8-3.3-7.7-4.8-11.7c-3.1-8-5.2-14.6-7.8-22.8c0,0-5.5-26.8-15.2-23.2
				C23.3,42.8,24.1,48.9,24.1,48.9z"/>
			<path class="st3" d="M58.5,109.1c-1.2-1.6-1.8-3.4-2.4-5.2c-0.4-1.2-0.8-2.4-1.4-3.5c-1.3-2.5-3.6-4.4-6.3-5.2
				c-2.4-0.7-5-0.6-7.8,0.5c-2.3,0.9-4.4,2-5.2,4.2c-0.6,1.7-0.7,3.1-0.4,4.5c0.6,2.4-3.6,5.7-6,6.8c-2.4,1-3.3,0.2-3.7-0.3
				c-0.7-1.1-0.8-2.6-0.3-4.3c0.2-0.6,0.4-1.2,0.7-1.7c0.2-0.6,0.5-1.1,0.6-1.6c0.5-1.8,0.3-3.8,0-5.7c-0.2-1.3-0.3-2.7-0.4-4
				c0-0.8-0.1-1.6-0.2-2.4L24,72.9c-0.1-1.5-0.3-2.9-0.5-4.2c-0.7-6.6-1.4-12.7-0.4-19.8c-0.1-1,0-6.9,9.6-10.5
				c1.7-0.6,3.4-0.5,5.1,0.4c7.3,4.1,11.2,22.7,11.3,23.4c2.6,8.5,4.7,14.9,7.7,22.8c1.6,4.2,3.2,8,4.8,11.6c0.3,0.8,0.7,1.5,1,2.3
				c0.9,2.1,1.7,4.2,3,5.9c0.2,0.3,0.6,0.7,1,1.2c1,1.1,2.1,2.3,1.8,3.6c-0.2,0.7-0.7,1.2-1.6,1.6c-0.2,0.1-0.5,0.2-0.7,0.3
				C63.4,112.3,60.3,111.4,58.5,109.1z M33.4,40.1c-8.8,3.3-8.4,8.4-8.4,8.6l0,0.2c-1,6.9-0.3,12.7,0.4,19.5
				c0.2,1.4,0.3,2.8,0.5,4.3L27.7,91c0.1,0.8,0.1,1.6,0.2,2.5c0.1,1.3,0.1,2.5,0.4,3.8c0.4,2.1,0.6,4.3-0.1,6.5
				c-0.2,0.6-0.4,1.2-0.7,1.8c-0.2,0.5-0.4,1-0.6,1.5c-0.2,0.6-0.4,1.8,0.1,2.7c0.4,0.2,2-0.4,4-2c1.8-1.4,2.4-2.6,2.3-3
				c-0.4-1.7-0.3-3.5,0.4-5.5c1-2.9,3.7-4.4,6.2-5.4c3.1-1.3,6.2-1.5,9-0.6c3.2,1,5.9,3.2,7.4,6.2c0.6,1.2,1.1,2.5,1.5,3.7
				c0.6,1.7,1.1,3.3,2.1,4.7c1.4,1.8,4,2.4,6.2,1.5c0.4-0.2,0.5-0.3,0.5-0.3c0.1-0.3-0.9-1.5-1.4-1.9c-0.4-0.4-0.8-0.9-1.1-1.3
				c-1.4-2-2.3-4.2-3.2-6.3c-0.3-0.8-0.6-1.5-1-2.3c-1.7-3.7-3.2-7.5-4.9-11.7c-3-7.9-5.1-14.4-7.8-23c0-0.2-3.9-18.6-10.4-22.2
				c-1.1-0.6-2.2-0.7-3.3-0.4C33.5,40,33.4,40.1,33.4,40.1z"/>
		</g>
		<g>
			<path class="st12" d="M38.8,43.1c3,4.2,3.8,8.5,4,15.6c0,1.5,0.5,3,1.7,4.1c0.6,0.6,1.4,0.9,2.2,0.7c1.8-0.4,2.1-2.6,2-4.3
				c-0.7-11.3-2.1-16.5-8.9-25.6C37.5,30.4,35,26.9,35,23c0-1.9,0.6-3.7,0-5.6c-0.2-0.7-0.6-1.3-1.2-1.7c-2.2-1.6-4.8,0.8-5.2,3.2
				c-0.4,2.2,0.3,4.5,0.1,6.7c-0.1,1.5-0.7,3-1.2,4.4l-4,10.7c-1,2.6-0.5,5.5,0.5,8c1.9,4.8,4.4,9.9,8.3,13.5
				c2.4,2.2,9,6.2,11.5,2.2c0.2-0.4,0.4-0.9,0.4-1.3c-0.1-1.2-1.5-1.8-2.6-2.3c-3.8-1.6-7.8-4.8-9.9-8.4c-1.1-1.8-2-5-0.7-6.9"/>
			<path class="st3" d="M41.4,67.1c-3.3,0.5-7.6-2.2-9.7-4.1c-4.1-3.8-6.6-9.1-8.5-13.8c-0.9-2.2-1.7-5.5-0.5-8.7l4-10.7
				c0.5-1.4,1-2.8,1.2-4.2c0.1-0.9,0-1.9-0.1-2.9c-0.1-1.3-0.2-2.6,0-3.9c0.3-1.8,1.6-3.6,3.2-4.2c1.2-0.5,2.4-0.3,3.4,0.4
				c0.7,0.5,1.2,1.3,1.5,2.2c0.4,1.4,0.3,2.8,0.1,4.1C36,21.9,36,22.4,36,23c-0.1,3.8,2.6,7.2,4.7,10c6.9,9.2,8.3,14.6,9,26.1
				c0.2,2.9-0.8,4.9-2.7,5.3c-0.6,0.1-1.3,0.1-1.9-0.2c-0.1,0.3-0.2,0.5-0.4,0.8c-0.6,1-1.4,1.6-2.5,2C41.9,67,41.7,67.1,41.4,67.1z
				 M31.5,44.8c0.4,0.3,0.5,0.9,0.2,1.3c-1,1.5-0.2,4.4,0.7,5.9c1.9,3.2,5.6,6.3,9.5,8c-0.1-0.4-0.1-0.8-0.1-1.2
				c-0.2-6.6-0.8-11-3.8-15.1c-0.3-0.4-0.2-1,0.2-1.3c0.4-0.3,1-0.2,1.3,0.2c3.2,4.5,4,9.1,4.2,16.1c0,1.4,0.5,2.6,1.4,3.4
				c0.4,0.4,0.9,0.5,1.4,0.4c1.4-0.3,1.3-2.7,1.3-3.4c-0.7-11.1-2-16.2-8.7-25.1c-2.3-3-5.1-6.8-5-11.2c0-0.7,0.1-1.3,0.2-1.9
				c0.1-1.2,0.3-2.3-0.1-3.3c-0.2-0.5-0.5-0.9-0.8-1.2c-0.5-0.4-1-0.4-1.6-0.2c-1,0.4-1.9,1.6-2.1,2.8c-0.2,1.1-0.1,2.2,0,3.4
				c0.1,1,0.2,2.1,0.1,3.2c-0.2,1.7-0.7,3.2-1.3,4.7l-4,10.7c-1,2.6-0.3,5.5,0.5,7.4c1.8,4.5,4.2,9.6,8,13.1c1.9,1.7,5.7,4,8.1,3.6
				c0.8-0.1,1.5-0.5,1.9-1.3c0.2-0.3,0.3-0.5,0.2-0.7c-0.1-0.6-1-1.1-2-1.5c-4.3-1.9-8.2-5.2-10.4-8.8c-1.1-1.9-2.3-5.6-0.7-7.9
				c0.1-0.2,0.3-0.3,0.5-0.4C31,44.6,31.3,44.6,31.5,44.8z"/>
		</g>
	</g>
	<g>
		<g>
			<path class="st13" d="M592.1,58.5c-0.1,0.6-1.4,9.2-1.5,9.8c-0.2,1.3-0.5,2.5-0.9,3.8c-1.5,5.6-3.3,11.2-5.5,16.5
				c-2.3,5.5-5.4,10.1-8.7,15c-0.9,1.3-1.8,2.8-1.4,4.2c0.4,1.4,1.8,2.2,3.2,2.2c1.4,0,2.5-0.7,3.4-1.8c3.1-3.9,6-8.1,9.9-11.4
				c4.3-3.7,10.7-3.6,15.3-0.5c4.6,3.1,5.2,9.1,6.7,14.1c1.3,4.2,7.4,4.5,6.6,0.4c-0.3-1.7-2.2-10-2.8-13.4
				c-2.1-11.1,1.6-45.9,0.2-51.9c-1.3-6-4.1-11.5-4.9-17.6c-0.3-2.2,0.1-4.6-0.5-6.7c-0.5-1.9-2.3-3.8-4.4-3.8
				c-3.4-0.1-5.9,4.1-5.7,7.1c0.1,1,0.3,2,0.4,3c0.3,3.3-1.5,6.3-3.3,9c-1.5,2.3-3.9,4-4.9,6.6c-1.5,3.6-4,8.8-5.8,12.2
				c-0.9,1.7-2,3.4-3.1,5c-0.7,1.1-3.1,3.2-2.8,4.6c0.1,0.6,0.6,1,1.2,1.1c1.9,0.6,3.5-0.8,4.6-2.2c4.1-5.1,9.1-10.1,11.3-17.4"/>
			<path class="st3" d="M576.3,111c-1.5-0.3-2.8-1.4-3.2-2.8c-0.5-1.9,0.5-3.6,1.5-5c3.2-4.7,6.3-9.4,8.6-14.9
				c2.1-4.8,3.9-10.2,5.5-16.4c0.3-1.3,0.6-2.5,0.9-3.7c0.1-0.4,0.6-4,1.1-6.7c-0.1,0.2-0.3,0.3-0.4,0.5c-0.7,0.9-1.4,1.7-2.1,2.6
				c-2.2,2.8-4.2,2.9-5.6,2.5c-0.9-0.3-1.6-1-1.8-1.8c-0.3-1.5,1.1-3.1,2.2-4.5c0.3-0.3,0.6-0.7,0.7-0.9c1.2-1.6,2.2-3.3,3.1-4.9
				c1.9-3.5,4.3-8.6,5.8-12.1c0.7-1.7,1.9-3,3-4.2c0.7-0.8,1.4-1.6,2-2.5c1.8-2.8,3.4-5.5,3.1-8.4c0-0.4-0.1-0.9-0.2-1.3
				c-0.1-0.5-0.2-1.1-0.2-1.7c-0.1-2.1,0.9-4.6,2.5-6.3c1.2-1.3,2.7-1.9,4.2-1.9c2.6,0.1,4.6,2.3,5.2,4.5c0.4,1.4,0.4,2.9,0.4,4.3
				c0,0.9,0,1.7,0.1,2.5c0.4,3.5,1.6,6.8,2.6,10.1c0.8,2.4,1.6,4.9,2.2,7.4c0.6,2.8,0.2,11-0.2,20.5c-0.6,11.9-1.2,25.4,0,31.5
				c0.4,1.9,1.1,5.3,1.7,8.2c0.5,2.4,1,4.4,1.1,5.2c0.4,1.9-0.6,3.5-2.3,3.9c-2.2,0.5-5.2-0.9-6.1-3.9c-0.3-1-0.6-2.1-0.9-3.1
				c-1-4-2.1-8.2-5.5-10.4c-4.4-3-10.4-2.8-14.2,0.4c-3,2.5-5.5,5.7-7.9,8.8c-0.6,0.8-1.2,1.6-1.9,2.4c-1.2,1.5-2.6,2.2-4.1,2.2
				C577,111.1,576.7,111.1,576.3,111z M593,58.7c-0.1,1-1.4,9.2-1.5,9.9c-0.2,1.2-0.5,2.5-0.9,3.9c-1.7,6.3-3.5,11.7-5.6,16.7
				c-2.4,5.6-5.5,10.4-8.8,15.2c-0.7,1.1-1.5,2.4-1.2,3.5c0.2,0.9,1.3,1.5,2.4,1.6c1,0,1.8-0.5,2.6-1.5c0.6-0.8,1.2-1.6,1.8-2.4
				c2.5-3.2,5-6.5,8.1-9.1c4.4-3.8,11.4-4,16.4-0.6c4,2.7,5.1,7.2,6.2,11.5c0.3,1,0.5,2.1,0.8,3.1c0.6,2.1,2.7,2.9,3.9,2.6
				c0.8-0.2,1.1-0.8,0.9-1.8c-0.1-0.7-0.6-2.8-1.1-5.1c-0.6-3-1.4-6.4-1.7-8.3c-1.2-6.3-0.6-19.9,0-31.9c0.4-9,0.8-17.5,0.2-20
				c-0.5-2.5-1.4-4.9-2.2-7.2c-1.1-3.3-2.3-6.8-2.7-10.5c-0.1-0.9-0.1-1.8-0.1-2.7c0-1.4,0-2.7-0.4-3.9c-0.4-1.5-1.8-3.1-3.5-3.2
				c-1.2,0-2.2,0.7-2.8,1.3c-1.2,1.3-2,3.3-1.9,4.9c0,0.5,0.1,1,0.2,1.5c0.1,0.5,0.2,1,0.2,1.5c0.3,3.5-1.5,6.7-3.4,9.6
				c-0.6,1-1.4,1.9-2.2,2.7c-1.1,1.2-2.1,2.3-2.7,3.7c-1.5,3.6-3.9,8.7-5.8,12.3c-0.9,1.7-2,3.4-3.2,5.1c-0.2,0.3-0.5,0.6-0.9,1
				c-0.6,0.7-1.9,2.2-1.8,2.8c0,0.2,0.3,0.4,0.5,0.4c1.4,0.4,2.7-0.8,3.6-1.9c0.7-0.9,1.4-1.7,2.1-2.6c3.5-4.2,7.2-8.6,9-14.5
				c0.1-0.5,0.7-0.8,1.2-0.6c0.5,0.1,0.8,0.7,0.6,1.2C598.1,51.6,595.7,55.3,593,58.7z"/>
		</g>
		<g>
			<path class="st13" d="M616,43.9c0.6,14.6-9.9,18.9-25.6,22.2c-0.6,0.1-1.2,0.3-1.9,0.2c-1-0.1-1.8-0.9-2-1.9c-0.2-1,0.2-2,1-2.6
				c0.9-0.6,2-0.5,3-0.7c12.1-2.5,18.1-8.9,17.3-13"/>
			<path class="st3" d="M588.2,67.2c-1.2-0.3-2.3-1.3-2.6-2.5c-0.3-1.3,0.3-2.8,1.4-3.6c0.8-0.5,1.7-0.6,2.5-0.7
				c0.3,0,0.6-0.1,0.9-0.1c11.8-2.4,17.2-8.5,16.6-11.9c-0.1-0.5,0.2-1,0.7-1.1c0.5-0.1,1,0.2,1.1,0.7c0.9,4.8-5.8,11.6-18,14.1
				c-0.4,0.1-0.7,0.1-1.1,0.1c-0.6,0.1-1.2,0.1-1.6,0.4c-0.5,0.3-0.8,1-0.6,1.6c0.1,0.6,0.7,1.1,1.3,1.2c0.4,0.1,0.8,0,1.2-0.1
				l0.3-0.1c16.6-3.4,25.4-7.8,24.9-21.2c0-0.5,0.4-0.9,0.9-1c0.5,0,0.9,0.4,1,0.9c0.6,16.2-12.1,20.2-26.4,23.1l-0.3,0.1
				c-0.6,0.1-1.2,0.3-1.9,0.2C588.3,67.2,588.2,67.2,588.2,67.2z"/>
		</g>
	</g>
	<line class="st14" x1="43" y1="61" x2="586" y2="64"/>
	<path class="st14" d="M595,64.5c4.7-0.5,9.8-0.9,14,1.4c5,2.8,7.1,8.7,9.3,14c4.2,10.3,10.8,20.8,21.3,24"/>
	<path class="st14" d="M32.7,63.9c-5.1,4.9-8.3,11.8-8.8,18.9c-0.3,4.3,0.4,8.6,2,12.6c0.7,1.7,1.5,3.2,2.4,4.8
		c0.9,1.5,2.2,2.8,3.2,4.2c1,1.5,1.6,3.6,0.5,5.1c-0.6,0.8-1.6,1.2-2.5,1.6c-6,2.4-12.3,3.7-18.7,4.2c-3.3,0.3-3.3-2.7-6.3-2.7h-2H0
		"/>
</g>
</svg>
