<?xml version="1.0" encoding="utf-8"?>
<!-- Generator: Adobe Illustrator 22.1.0, SVG Export Plug-In . SVG Version: 6.00 Build 0)  -->
<svg version="1.1" xmlns="http://www.w3.org/2000/svg" xmlns:xlink="http://www.w3.org/1999/xlink" x="0px" y="0px"
	 viewBox="0 0 640 123" style="enable-background:new 0 0 640 123;" xml:space="preserve">
<style type="text/css">
	.st0{display:none;}
	.st1{display:inline;}
	.st2{clip-path:url(#SVGID_2_);}
	.st3{fill:#C6A659;enable-background:new    ;}
	.st4{opacity:0.25;fill:#D7B970;enable-background:new    ;}
	.st5{opacity:0.25;fill:#A5884E;enable-background:new    ;}
	.st6{opacity:0.25;fill:#F2CC8F;enable-background:new    ;}
	.st7{fill:#E01F52;}
	.st8{fill:#222438;enable-background:new    ;}
	.st9{fill:#3D405B;}
	.st10{fill:#222438;}
	.st11{fill:#262842;}
	.st12{fill:#1F4D5C;}
	.st13{fill:#063B4C;}
	.st14{fill:#456B77;}
	.st15{display:inline;fill:#222438;}
	.st16{fill:#BBEAD2;}
	.st17{display:inline;enable-background:new    ;}
	.st18{fill:#02D69F;}
	.st19{fill:#D7B970;}
	.st20{fill:#76DBF7;}
	.st21{fill:#870745;}
	.st22{display:inline;fill:none;stroke:#222438;stroke-miterlimit:10;}
	.st23{fill:#753855;}
	.st24{fill:#E07A5F;}
	.st25{enable-background:new    ;}
	.st26{fill:#F2CC8F;}
	.st27{fill:#5BBF8F;}
	.st28{fill:none;stroke:#222438;stroke-miterlimit:10;}
</style>
<g id="Layer_2" class="st0">
	<g class="st1">
		<defs>
			<polygon id="SVGID_1_" points="640,123 0,123 0.5,-134 640,-134 			"/>
		</defs>
		<clipPath id="SVGID_2_">
			<use xlink:href="#SVGID_1_"  style="overflow:visible;"/>
		</clipPath>
		<g class="st2">
			<rect x="0" y="-134" class="st3" width="640" height="257"/>
			<path class="st4" d="M520.2-134.1c-2,2.8-2,6.3,1.3,8.5c3.3,2.2,10.3,2.1,12.4-0.7c-0.7,5.4-1.2,11.3,3.7,15.8
				c3.5,3.2,9.3,5.3,12.8,8.6c2.5,2.3,3.5,5.1,5.5,7.6c2,2.5,5.3,4.9,9.7,5.2c1.1-3.1,3-6.1,5.7-8.8c0.4-0.4,0.8-0.8,1.5-0.9
				c1.6-0.4,2.9,0.8,3.6,1.8c4.5,6.4,9,12.8,13.6,19.2c2.5-3.7,6.5-7,11.7-9.4c0.1,6.9,2.3,13.8,6.5,20.2c0.4-2.4,6.2-2.9,9-1.3
				c2.8,1.6,3.2,4.2,3.3,6.6c0.1,3.6-0.4,7.7-4.9,10c-1,0.5-2.2,1-3.5,1c-5,0-5.2-4.9-8.9-7c0.1,2.2-0.8,4.6-3.6,6
				c-2.8,1.3-7.8,0.8-8.8-1.3c-7.9,4.7-15.2,9.8-21.9,15.1c-2,1.6-3.4,4.3-0.5,5.1c1.4,0.3,2.9-0.1,4.3-0.1c3.6-0.1,6.3,2.2,7,4.5
				s0.4,4.6,1.6,6.7s4.9,4,8.3,3.2c1.6-0.4,2.7-1.3,4.3-1.8c4.7-1.2,8.7,2.4,10.1,5.4C609-3.6,608,8.5,611,20.3
				c3.1,12.2,10.6,24.2,9.8,36.5c-0.1,2-0.7,4.3-3.3,5.4c-1.7-0.8-3-1.9-3.8-3.2c2,8,2.7,17.4,4.6,25.5c5.5,0.7,11,1.4,16.6,2.1
				c1.7,0.2,3.6,0.5,4.8,1.3c1.5,1,1.6,2.5,1.5,3.9c-0.2,8.2-0.3,16.5-0.5,24.7c0,1.5-0.1,3.1-1.6,4.3c-1.3,1-3.5,1.5-5.5,1.9
				c-16.2,2.9-33.2,3.1-50.1,3.3c-17.4,0.2-35.3,0.3-51.7-3.3c-8.5-1.9-16.4-4.8-25.1-6.5c-12.2-2.4-25.4-2.4-37.3-5.3
				c-4.8-1.1-9.3-2.7-14.4-3.2s-10.9,0.2-13.7,2.9c2.1-3.7-2.7-7.7-8.4-9.2s-12.3-1.4-18.5-1.7c-10.9-0.7-21.5-3.3-30.3-7.4
				c-1.3-0.6-2.6-1.2-4.2-1.2c-5.1,0-6.5,6.2-11.4,5.4c-1.2-0.2-2.1-0.7-3-1.2c-9.2-5.3-23.2-7.1-35-4.6c-5-5.1-13.6-8.8-23-9.8
				c0.1,1.6-1.9,3.1-4.3,3.4c-2.5-1.6-4.9-3.2-7.4-4.9c0.7,4.9-11.2,8.3-16.7,4.7c-2.4-1.6-4.2-4.3-7.7-4.1c-1.8,0.1-3.1,1-4.6,1.6
				c-7,3.2-18.4,1.2-21.7-3.9c-3.2,3-6.8,5.8-10.9,8.3c-3.8-3.4-7.5-6.9-11.3-10.3c-0.3,2.9-6.7,4.2-10.9,2.8
				c-4.1-1.3-11.7,6-13.8,3.4s0.9-15.5-3.3-16.8c-0.1,1.2-0.1,2.5-0.2,3.7c0.4-0.9-18,15-19,15.7c-2.4-1.9-9.4-3.1-11.8-5
				c-4.3,3.2,7-7.3,0.5-6c-0.7-2.2,0.4-8.9-0.3-11.1c-0.4-1.2-1.2-2.7-3.2-3c-1.2-0.2-2.4,0.2-3.4,0.6c-7.5,3-10.1,10.4-18.9,11.4
				c-1.4,0.2-11.1,26-12.3,25.5c-3.2-1.2,4.9-30.4,1.5-31.5c-6.5-2.1-12.2,6.9-18.8,4.9c-1.5-0.5-2.5-1.5-3.4-2.4
				c-3-3.1-6.5-6.1-10.3-8.9c-1.2-0.8-2.9-1.8-4.6-1.4c-1.2,0.2-1.9,1-2.5,1.7c-4.2,4.9-8.4,9.8-12.7,14.6
				c-1,1.2-28.2,20.8-30.3,20.6c-3.9-0.4,22.6-23.6,18.7-23.6c-0.6,0.8-1.2,1.6-1.7,2.5c-4.2,0-6.8-2.8-8.8-5.2
				c-3.8-4.5-8.9-8.5-14.9-11.9c-0.8,4.9-2.4,10.5-9.3,12.9c-1.1,0.4-2.3,0.7-3.3,1.2c-2.1,1.2-2.2,3.1-2.6,4.9
				c-0.6,3.1-2.3,6.1-5,8.8c-0.2-2.7-1.9-5.3-4.9-7.3C12.2,81,7.2,89.2,0.5,88.2C12.3,15-14-64.1-7.4-137.6
				c153.5,4,307.1,5.8,460.7,5.4c22.1-0.1,43.9-0.3,65.6-2.8C519.2-135,519.9-134.1,520.2-134.1z"/>
			<path class="st5" d="M10.8-114.9c2.3,1.2,4.7,2.6,7.7,3.1c3,0.5,6.7-0.1,7.8-1.9c0.4-0.7,0.4-1.4,0.4-2.1
				c-0.1-6.7-0.1-13.5-0.2-20.2c-11.4-1.4-22.9-2.5-34.4-3.2c0.6,3-0.2,6.1-0.2,9.2C-8-121.8,2-119.5,10.8-114.9z"/>
			<path class="st6" d="M133.9-137c-0.5,4.5-0.1,9.1,1.1,13.5c0.1,0.5,0.3,1,0.9,1.4c1.1,0.7,3.2,0.4,4.3-0.2s1.7-1.7,2.5-2.5
				c1.3-1.4,3.5-2.7,6.1-2.9c7.2-0.7,11.3,5.6,18.4,6.4c0.8-3.2,2.5-6.4,4.9-9.3c5.9,3.3,11.9,6.5,17.8,9.8c1.1-2.5,6.9-3.4,9.9-1.6
				c0.8,0.5,1.4,1.1,2.3,1.5c2,0.7,4.4-0.1,6.3-0.9c2.2-0.9,4.3-1.8,6.5-2.8c2-0.9,4.6-1.8,6.8-1.1c4.5,1.5,0.8,7.4,5.7,8.2
				c4.6,0.7,7.3-5,11.8-4c-0.4,1.3,0.2,2.7,1.6,3.7c3.2-0.8,7,0.3,8.7,2.2s2,4.1,3.1,6.1s3.5,4.1,6.9,4.3c0.5,0,1.1,0,1.6,0.2
				c0.9,0.3,1.3,0.9,1.6,1.5c3.5,6.2,8.9,11.9,15.9,16.8c0.3-4.7,5.7-9.1,12.9-10.5c0.1,2.4,1.3,4.7,3.5,6.7c4.4-2.2,9.1-4.2,13.9-6
				c0.5,1.4,4.1,1.1,5.8,0.1s3.4-2.5,5.7-2.2c1,4.1,1.1,8.2,0.2,12.3c2.7-0.8,5.4,1.2,6.3,3.1c0.9,1.8,1.8,4.1,4.7,4.5
				c4.4,0.7,6.7-3.5,11-4.5c-0.8-7.7-1.9-15.6-0.1-23.2c0.1-0.6,0.3-1.2,1-1.5c1.2-0.6,3.1,0,3.8,0.8c0.7,0.9,0.6,1.9,0.6,2.8
				c0.2,2.4,1.8,4.8,4.4,6.5c1.6-1.4,4.5-2.1,7.1-1.8c-0.6,3.5-0.1,7.1,1.5,10.5c1.8-2.6,3.8-5.1,6.8-7.2s7.3-3.6,11.8-3.4
				c1,1.4,2.1,2.8,3.3,4.3c0.3,0.3,0.6,0.7,1.1,0.9c0.9,0.3,2-0.1,2.8-0.5c4.1-1.8,10-3.5,13.7-1.3c0.9,0.5,1.4,1.2,2.3,1.7
				c3.6,2.2,9.6,1.1,14.2-0.2c1.3-0.4,3.3,0.2,3.8,1.1s0.8,1.9,2,2.4c0.8,0.3,1.9,0.3,2.9,0.3c6.1-0.3,12.8-1.1,17.8,1.1
				c2.8,1.3,4.4,3.3,6.5,5c2.2,1.7,5.6,3.1,8.9,2.4c1.6-0.3,3.3-1.1,4.6-0.5c0.8,0.3,1.1,0.9,1.6,1.3c1.9,1.6,6.1,0.9,8.7-0.3
				c2.7-1.1,5.5-2.7,8.7-2.2c3.7,0.6,4.9,3.4,5.5,5.8c1.2,5.2,2.3,10.4,3.5,15.6c13.1-1,14.1-15.5,27.2-16.5c0,1.5,0.1,2.9,0.1,4.4
				c0.1,3.8,5.4,7.3,10.1,9.7c4.7,2.4,12.7,2.8,16.3-0.2c0.8,2.4,4,4.5,7.9,5.2c-1.3-3.1,4.6-6.4,9.4-5.2c2.6-6,3.5-12.2,2.4-18.4
				c-0.4-2.3-1.3-4.8-4.4-6c-2.8-1.1-6.8-0.8-9.2-2.2c-2.4-1.4-3.6-4.4-6.8-4c-1.8,0.2-2.6,1.5-4.2,2c-2.5,0.8-5.3-0.4-7.4-1.5
				c-9.2-4.9-18.3-9.8-27.5-14.7c2.5-8,0.7-16.6-5.2-23.9c-4.1,6.9-11.2,13.1-20.4,17.6c-1.2,0.6-2.6,1.2-4.2,1.3
				c-3.2,0.1-5.2-2.1-6.8-3.9c-4.1-4.6-12.5-8.7-20.3-6.8c-3.2,0.8-5.8,2.5-9.2,2.7c-7.2,0.4-11.9-6.1-19.1-5.5
				c-3,0.2-5.2,1.7-7.8,2.7c-6.4,2.5-15.5,1.8-20.9-1.5c-2.2-1.4-4.4-3.3-7.5-3c-2.2,0.2-3.7,1.5-5.7,2c-5.1,1.5-10.3-1.7-14.8-3.9
				c-9.1-4.3-21.4-4.5-32.8-4.5C265.3-137.5,199.4-136.8,133.9-137z"/>
			<path class="st6" d="M588.7-14c6.2,4.8,11.2,10.1,15,15.8c7.3-3.4,18.4-3.1,25.3,0.6c7.7,4.1,9.3,11.1,10.3,17.4
				c0.8,4.9,1.7,9.9,2.5,14.8c0.5,2.9-1.7,7.3-6.1,6.2c-1.5-3.3-3.2-6.8-7.1-9.3s-10.7-3.5-15-1.4c-1.4,0.7-2.5,1.7-4.2,1.9
				c-5,0.7-6.2-4.7-10.7-6.2c-3.8-1.2-8.1,0.7-10.8,2.8c-2.6,2.1-5.3,4.6-9.5,4.9c-5.3,0.4-9.1-2.9-12.2-5.6s-8.7-5.4-13.2-3.6
				c-2.9,1.2-4.3,4-7.8,4.1c-6.4,0.2-5.1-8.4-11.5-8.4c-2,2.7-4.8,5.2-8.2,7.3c-0.5-1.5-1.8-2.8-3.6-3.7c-1.6,1-3.3,2.1-4.9,3.1
				c0.5-4.9-1.4-9.8-5.4-14c-1.5,2.4-3,4.8-4.4,7.3c-7.2-6.9-18.4-12.1-31-14.4c-1.3-0.2-2.7-0.5-4-0.3c-1.9,0.3-3.3,1.3-4.7,2.1
				c-5.3,3.1-13.9,4.5-20.2,2.1c-1.8-0.7-3.3-1.6-4.7-2.5c-2.8-1.7-5.6-3.4-8.4-5.2c-1.6,2.7-3.6,5.4-5.8,7.9
				c-0.7,0.8-1.6,1.7-2.9,2.1c-3.7,1.1-7.2-1.8-8.5-4.2c-1.3-2.5-3.5-5.6-7.7-5.2c-6.7,0.5-6.1,9.3-12.7,8.6
				c2.5-2.9,0.6-6.9-3.9-8.6c-4.5-1.7-11-0.7-14,2c-2.8-3-6.4-5.7-10.6-8c-1.7-0.9-4-1.9-6.1-1.4c-3.6,0.8-3,4.2-5.6,5.9
				c-3,1.9-8.4,0.6-11-1.5s-3.6-4.9-6.4-6.9s-8.6-3-11-0.8c-1.2-3.7-3.9-7.3-7.8-10.2c-1.4,0.8-2.7,1.5-4.1,2.3
				c-1.7-4.5-5-8.8-9.8-12.3c-1.5-1.2-4.1-2.3-6.1-1.5c-1.7,0.7-1.6,2.3-3.1,3.2c-2.5,1.5-6.5-0.4-8.5-2.2
				c-6.8-5.7-13.5-11.5-20.3-17.2c-7.4,9.3-10.1,20-7.6,30.3c-2.1-3.3-4.2-6.5-6.4-9.8c0.5,3.6-0.1,7.3-1.7,10.8
				c-6.1-5.4-12.1-10.7-18.2-16.1c-0.8,1.4-2.5,2.6-4.5,3.3c-2-1.9-5.5-3.3-9.2-3.5c1.7,2.8-1.7,6.3-6.5,6.8c-4.8,0.5-9.7-2-10.4-5
				c-10.1,4.1-26.9,2.2-34.7-3.5c0.9,5.8,0,13.3-8.9,15c-1-7.4-5.6-14.6-13-20.4c-9.7,10.5-17.4,21.8-22.7,33.4
				c-2.1-5.5-9.6-10.1-18.5-11.3c0.1,2.6-0.9,5.1-3,7.4c-1.8-2.7-6.1-4.7-10.8-5c-0.4,1.8-0.7,3.5-1.1,5.3
				C81.7-21.1,67.3-32.4,49.7-41c0.5,4.2-0.1,9.7-6.5,11.1c-1.6-3.3-5.1-6.2-9.8-8.1C19.7-19.2,20.7,3.5,36.1,21.8
				c-4.6-2.5-10.3-4.1-16.2-4.7c0.1,5.8-3.6,11.6-10.1,15.7C0.1,25.9-3.9,16.5-4.5,7.4s1.9-18.2,3.9-27.3c5.3-24.2,7.3-48.6,5.8-73
				c7.5,0.2,15.1,0.5,22.6,0.7c1.2,0,2.5,0.1,3.6-0.3c1.9-0.6,2.4-2.2,3.5-3.3c4-4,14.3-2.2,19.6,1.3s9.3,8.2,16.6,9.4
				c9.3,1.6,18.1-3.4,23.3-8.4s9.4-11.1,18-13.8c0.8,3.2,5,6,10.1,6.8c1-4.7,3.8-9.3,7.9-13.2c2.2-2.1,6.5-4.3,9.9-2.9
				c1.9,0.8,2.6,2.3,3.2,3.7c3,6.1,10.7,11.3,20.2,13.7c0.2-1.8,0.4-3.7,0.6-5.5c4.7,5.7,12.7,10.4,22.2,13c3.3,0.9,7.5,1.5,10.3,0
				c1.5-0.8,2.2-2.1,3.8-2.8c4-1.9,9.4,0.8,12.3,3.4c2.9,2.6,7.3,5.6,11.9,4.4c2.5-0.6,4-2.4,6.5-3c4-1,8,1.2,11.7,2.5
				c3.7,1.4,10.3,1.1,10.3-1.6c10.5,10.8,21.1,21.5,31.6,32.3c4.7-3.7,9.4-7.4,14-11.1c0.9-0.7,1.8-1.4,3.1-1.6
				c4.2-0.7,5.7,3.1,6.6,5.8c1.8,5.3,10.3,9.4,19,9.2c2.5,0,5.1-0.4,7.6-0.1c7.6,1.1,8.6,7.6,7.8,12.4c4.7,0.3,9.5-0.2,13.8-1.4
				c0.6,2.8,1.1,5.6,1.7,8.4c0.2,1.1,0.4,2.2-0.4,3.2c-2.3,2.7-9.1,1.2-12.5-1.1c-3.4-2.2-7.8-5.1-12.4-3.9
				c-1.4,5.8-2.8,11.5-4.2,17.3c-0.8-1.9,0.2-4.1,2.5-5.5c-1,3.3,2.2,6.9,7.2,8.1c5,1.2,11.2-0.1,14.1-2.9c2.1,3.6,7.3,6.4,13.3,7.2
				c3.2-3.6,6.4-7.1,9.7-10.7c3.5,3.9,7.3,8,13.5,10.3c6.2,2.3,15.4,2.2,19.4-1.6c2.4,2.8,4.8,5.7,7.2,8.5
				c1.2-3.6,10.7-4.5,13.5-1.2c1.1-7.2-1-15.9-7.9-21.7c-6.2-5.3-17.1-7.4-25.6-11.2c-2.3-1.1-4.7-2.7-4-4.5
				c13.1-0.7,26.2-1.5,39.3-2.2c0.1,1.7-0.6,3.5-2,4.9c9.6-2.5,19.8-4.2,30.1-5c-3.6,3.9-5.6,8.3-5.9,12.8c-0.2,3.1,0.5,6.2-0.6,9.2
				c-1.8,5.1-8.4,9.1-10.6,14.1c3.7,1.8,8.3,3,13,3.2c2,0.1,4.1,0.1,5.9-0.5c6.7-2,4.9-8.7,10.1-12.1c3,1.9,6,3.8,8.9,5.6
				c1.7,1.1,4,2.2,6.2,1.6c1-0.3,1.7-0.9,2.3-1.5c7-6.9,13.2-14,18.7-21.4c2.9-3.9,5.8-8.1,11.1-10.9c0.9,9.8,2.8,19.6,5.7,29.3
				c1.3,4.3,4,9.3,10.9,10.1c1.7-2.3,4.1-4.5,7-6.3c1.8,2.3,1.3,4.9,1.6,7.4s1.9,5.3,5.7,6.2c2.9-2,3.1-5.7,7.2-6.7
				c1.7-0.4,3.6-0.2,5.4,0c7.4,0.6,15.1-0.5,21.5-3C583.1-11.1,587.4-12.8,588.7-14z"/>
			<path class="st6" d="M643.9,102.7c-0.3-2.7-5.8-4.1-9.8-3.2c-4.1,0.9-6.9,3.1-9.4,5.3c-3.9-5.2-8.9-10-14.8-14.5
				c-0.6,2-1.7,4.3-4.7,5c-3,0.6-6.1-0.8-8.1-2.3s-3.7-3.4-6.5-4.2c-2.9-0.8-7.3,0.3-6.8,2.3c-2.3-3.5-1.3-7.7,2.5-10.7
				c1-0.8,2.3-1.5,3.9-1.5c4.1,0.1,3.6,4.1,6.4,5.9c2,1.3,5.4,1.1,8.3,0.9c4.8-0.4,9.6-0.8,14.4-1.2c10.5-0.9,23.8-0.8,28.3,5.1
				c-0.4-9.9-2.1-19.8-5.1-29.6c-0.4-1.2-1.1-2.7-3-3c-1.9-0.3-3.7,0.7-5.1,1.6c-4.2,2.8-10.3,5.8-15.8,4c-5.7-1.9-4.9-7.2-8.3-10.5
				c-3-2.9-9.1-4.1-14.6-3.8c-5.5,0.3-10.7,1.8-15.7,3.3c0.4-5.7-7.7-11-16.8-11c-1.8,0-3.8,0.2-5,1c-1,0.6-1.4,1.5-1.8,2.4
				c-2.2,4.9-4.4,9.9-6.5,14.8c-4.2-6.3-8.4-12.7-12.6-19c-2.5-3.8-7.7-8.5-14-7c-2.9,0.7-4.8,2.6-7.8,3.3
				c-5.9,1.3-10.8-2.8-14.4-5.9c-4.8-4.2-11.2-7.6-18.6-10c-1.7-0.5-3.7-1-5.3-0.4c-1.1,0.4-1.7,1.2-2.3,1.9
				c-3.2,3.9-11.4,7.3-16.8,4.4c-1.6-0.9-2.6-2.1-4.1-3c-3.5-2-9.3-1.6-13.2,0c-3.9,1.6-6.6,4.2-9.2,6.7c-3.4,3.1-7.2,6.1-11.2,9
				c-1.8,1.3-3.9,2.6-6.6,2.9c-4.6,0.6-8.6-1.8-11.4-4.1c-4.9-3.9-9.1-8.2-15.3-11.3s-14.9-4.9-22.1-2.8c-9.6,2.7-12.7,10.8-22,14
				c-2.4-5.8-6.6-11.3-12.4-16.1c-1.7-1.4-3.7-2.9-6.4-3.5c-5.8-1.4-11.9,1.3-17.5,3.1c-14,4.5-32.3,3.2-44.2-3.3
				c-0.6,4.3-2.8,9.7-9.6,10.4c-5.8,0.6-10.5-2.7-15.3-4.9c-4.8-2.2-13.6-2.5-14.7,1.1c-2-3-8.8-5.1-14-5.6
				c2.3,6.5-7.3,13.6-18,13.3c-12.9-0.4-20.8-8.9-31.9-13c-1.6-0.6-3.7-1.1-5.1-0.4c-1.2,0.6-1.4,1.6-1.6,2.5c-0.8,3.1-4.1,6.2-9,7
				c-4.9,0.8-10.9-1.3-11.1-4.5c0.3,2.6-0.5,6.2-4.7,6.5c-2.2,0.2-4.3-0.7-6-1.6c-6.2-3-12.4-6-18.6-9.1c-1.1-0.5-2.6-1.1-3.8-0.7
				c-0.8,0.3-1.1,0.9-1.3,1.4c-5.5,13.3-10.2,26.8-13.9,40.3c12.4-1.2,15.9-12.8,28.1-14.6c1.1,1.9,2.2,3.8,3.3,5.7
				c2.4-2,6.5-4.2,9.9-2.9c1.1,0.4,1.9,1.2,2.9,1.7c5.5,2.7,12.9-2.5,19.9-2.1c8.4,0.4,12.6,8.7,21,7.9c2.5-0.2,4.6-1.3,6.6-2.2
				c4.1-1.9,8.8-3.5,13.9-3.6c5.1-0.1,10.6,1.7,11.9,4.8c0.4,0.9,0.5,1.9,1.5,2.6c2,1.4,5.6,0.4,8-0.7c6.6-2.9,13.2-5.7,19.8-8.6
				c3.9-1.7,8-3.4,12.7-3.9c4.7-0.4,10.2,0.9,11.7,3.8c0.5,1,0.7,2.3,2.3,2.7c1.6,0.4,3.2-0.4,4.5-1.1c3.5-1.9,7.4-3.5,11.7-4.6
				c1.5-0.4,3.3-0.7,4.7-0.2c1.3,0.5,1.7,1.6,2,2.5c2.4,8.3,4.2,16.7,5.5,25.1c12.6-8.3,26.2-16.1,40.6-23.2
				c5.5,8-2.7,17.2-0.3,25.7c4.9-1.1,9.9-2,15-2.7c1-0.2,2.2-0.3,3.1,0c1.2,0.4,1.4,1.4,1.6,2.2c1.5,5.5,6.7,10.5,14.1,13.6
				c2.1-2.2,5.5-3.9,9.4-4.7c0.9-0.2,1.8-0.3,2.7-0.2c3.8,0.6,2.2,4.8,5.5,6.1c3.5,1.5,7.6-1.7,11.8-1.9c3.3-0.1,5.9,1.7,7.9,3.4
				c-0.3,1.6,0,2.8,1.1,4.3c3-0.1,4.7-2.1,7.1-3.2c4.6-2,11-0.5,15.3,1.8c4.3,2.2,7.8,5.2,13,6.5c0.8,0.2,1.7,0.3,2.4,0.1
				c0.7-0.2,1.1-0.7,1.5-1.1c2.2-3,2.4-6.4,4.7-9.3c2.3-2.9,8.4-5.2,12.7-3.3c1.3,0.6,2.2,1.4,3.2,2.2c2.9,2.3,6.6,4.3,10.8,5.6
				c1.2,0.4,2.6,0.8,4,0.6c1.4-0.2,2.4-0.9,3.4-1.6c5.2-3.4,11.8-5.9,19-7.3c2.4-0.5,5.7-0.6,6.9,0.8c0.5,0.5,0.5,1.2,1.2,1.6
				c2.3,1.4,5.3-1.8,8.5-1.7c3.8,0.1,3.6,4.3,7.2,5.2c1.5-1.5,4.4-2.5,7.3-2.4c0.7,2.5,2.4,5.6,6.5,5.7c3.2,0.1,6.2-1.9,9.2-1.3
				c2.7,0.6,3.3,2.7,4.3,4.4c2.5,4.1,10.8,6.5,17.5,5c10.3-2.4,22.9,0.9,31.9,4.8c1.2-1.6,4.8-2,7.5-1.4c2.7,0.5,5,1.7,7.7,2.4
				c5.2,1.3,11.2,0.7,16.5,1.9c2.4,0.5,4.7,1.5,7.2,1.6c6.2,0.4,11.6-3.7,17.8-3.1C649.5,107.3,647.3,105.3,643.9,102.7z"/>
			<path class="st5" d="M637.8-89.7c-2.7-0.6-5.5-0.1-8.3,0.4c-0.7,3.6-2.1,7.1-4,10.3c-0.4,0.6-0.8,1.3-1.5,1.6
				c-1.5,0.7-3.1-0.6-4.4-1.7c-6.1-5.4-13.8-9-21.9-10.2c-0.5,3.4-0.9,6.8-1.4,10.2c-0.2,1.6-0.7,3.5-2.2,4.1
				c-1.1,0.4-2.3-0.2-3.4-0.7c-3.3-1.7-6.7-3.2-10.4-3.6c-3.7-0.4-7.6,0.5-10.2,3.2c-3.9,4.1-3.5,11-7.8,14.7c-1,0.9-2.3,1.6-3,2.7
				c-0.7,1.2-0.7,2.7-0.6,4.1c0.1,2.3,0.2,4.6,0.3,6.9c0.1,2.7,0.9,6.1,3.6,6.3c1.8,0.2,3.2-1.3,4.3-2.8
				c8.3-11.5,8.4-26.7,11.1-40.7c0.5-2.5,2.7-5.7,4.8-4.3c0.9,0.6,1.2,1.8,1.4,2.9c1.3,6.4,4.1,12.5,8,17.7c0.7,0.9,1.5,1.8,2.6,1.7
				c1.1-0.1,1.8-1.3,2.3-2.4c3.1-7,6.1-13.9,9.2-20.9c4.6,7.5,9.4,14.9,14.6,22c2.4-5.9,4.8-11.8,7.3-17.7c0.3-0.8,0.8-1.7,1.7-1.8
				c0.7-0.1,1.3,0.5,1.8,1.1c2.8,3.1,5.5,6.3,8.3,9.4C636.9-80.8,648.9-87.4,637.8-89.7z"/>
			<path class="st5" d="M28.9-75.8C35-62.7,43.6-50.9,54.1-41c3.5,3.3,7.9,6.5,12.6,5.6c3.9-0.8,6.6-4.2,9.1-7.2
				c15.7-18.6,39-30.6,63.2-32.5c5.9-0.5,12-0.3,17.3,2.1c4.7,2.1,8.4,5.8,12.2,9.3c8.9,8.2,18.8,15.7,30.4,19
				c11.6,3.3,25.2,1.5,33.8-6.9c2.1-2.1,5.2-4.7,7.6-3c0.7,0.5,1.1,1.3,1.5,2c3.1,6.7,1.9,14.5,2.4,21.8c0.5,7.4,4.1,15.8,11.3,17
				c5.3,0.9,10.3-2.5,14.8-5.5c12.4-8.3,29.4-14.8,41.5-6.1C326.3-15,323,9.2,336.4,21c11.3,10,29.3,6.1,42.1-1.7
				c12.8-7.9,23.7-19.3,37.9-24.3c2.7-1,5.9-1.7,8.5-0.3c1.6,0.9,2.7,2.4,3.8,3.9C433.5,5.2,528.2,2.3,533,9c0.2-10,105.8,5,106-5
				c0.7,17.5-195.2,19.7-196.6,37.2c-3.8-7.2-7.6-14.4-11.4-21.5c-2.6-4.9-5.4-10-10.1-12.9c-9.4-5.7-21.8-0.1-29.6,7.6
				c-7.9,7.7-13.9,17.6-23.6,22.7c-3.1,1.7-7.1,2.7-10,0.7c-1.6-1.1-2.5-2.9-3.3-4.7c-8-18-7.3-39.1-16.5-56.5
				c-1.2-2.2-2.7-4.5-5-5.3c-3.2-1.1-6.6,0.9-9,3.1C313.6-16.5,308.2-1,295,2.2c-8.6,2-17.2-2.2-25.8-4.1
				c-15.5-3.5-32.6,1.1-44.4,11.8c-3.7-13.1-10.8-25.2-20.5-34.8c-2-2-4.2-4-7-4.7c-6.3-1.8-12.5,3.3-16,8.8
				c-3.5,5.6-5.7,12.1-10.6,16.4c-2.6,2.2-6,3.7-9.3,2.8c-2.2-0.6-4-2.2-5.8-3.7c-8.1-7.3-15.9-15.2-25.8-19.5
				c-10-4.3-22.9-3.9-30.2,4.1c-2.6,2.9-4.3,6.5-7.1,9.2s-7.4,4.2-10.5,1.8c-1.5-1.2-2.3-3.1-3.1-4.9c-4.6-11.5-11.4-25.2-23.8-25.6
				C53.4-24.6,44.2-10,30.9-1.6C23.7,2.9,15.2,6,10.1,12.8C6,18.2,4.1,26-2.2,28.5c3-1.2,3.3-28.1,3.5-32C2-14.7,2.1-26,1.6-37.2
				C0.8-55,14.2-66.9,28.9-75.8z"/>
		</g>
	</g>
</g>
<g id="Layer_1" class="st0">
	<g class="st1">
		<rect x="64.4" y="-49.4" class="st7" width="19.1" height="10.7"/>
		<path class="st8" d="M83.5-50H64.2v11.7h9.4v12h0.6v-12h9.3V-50z M82.9-38.9h-18v-10.4h18V-38.9z"/>
	</g>
	<g class="st1">
		<path class="st9" d="M0.7,121.8V9.2C12.8,8.9,44.3,8.5,76,8.5c31.9,0,72.6,0.4,85.7,2.4c9.8,1.5,19.3,4.6,29.8,8.4
			c24.3,8.6,96.2,9.7,163.3,9.7c23.8,0,48.9-0.2,73.1-0.3c23.6-0.2,47.9-0.3,70.5-0.3c60.7,0,124.7,1,141,8.6v84.8H0.7z"/>
		<path class="st10" d="M76,9.2c31.8,0,72.5,0.4,85.6,2.3c9.8,1.5,19.2,4.6,29.6,8.3c24.4,8.6,96.3,9.8,163.5,9.8
			c23.8,0,48.9-0.2,73.1-0.3c23.6-0.2,47.9-0.3,70.5-0.3c60.1,0,123.5,1,140.2,8.4v83.7H1.4V9.9C14,9.6,44.9,9.2,76,9.2 M76,7.8
			c-32.8,0-64.7,0.4-76,0.7v114h640v-86c-14.9-7.4-72.3-8.9-141.7-8.9c-45.6,0-96.4,0.6-143.6,0.6c-74.4,0-140.1-1.6-163-9.7
			c-9.8-3.5-19.6-6.9-29.9-8.4C149.4,8.3,112.1,7.8,76,7.8L76,7.8z"/>
	</g>
	<g class="st1">
		<path class="st11" d="M324.9,121.8l3.3-45.9C348.4,64.1,441.3,50.4,491.3,43c11.1-1.6,19.9-2.9,25-3.8c1-0.2,2.4-0.3,4.2-0.3
			c7.7,0,21,1.7,33.9,3.3c12.9,1.6,25.2,3.2,32.3,3.2c1.4,0,2.6-0.1,3.5-0.2c3.8-0.5,11.9-0.6,20.4-0.6c11.4-0.1,23.1-0.1,28.7-1.2
			v78.4H324.9z"/>
		<path class="st10" d="M520.5,39.6c7.6,0,20.9,1.7,33.8,3.3c13,1.6,25.2,3.2,32.4,3.2c1.5,0,2.6-0.1,3.6-0.2
			c3.8-0.5,11.8-0.6,20.3-0.6c10.9-0.1,22-0.1,28-1.1v76.9H325.6l3.2-44.7c20.8-11.7,116.4-25.8,162.6-32.6
			c11.1-1.6,19.9-2.9,25-3.8C517.4,39.7,518.8,39.6,520.5,39.6 M520.5,38.2c-1.7,0-3.2,0.1-4.3,0.3c-27.8,4.7-164.6,22.4-188.7,37
			l-3.4,47H640v-80c-8.9,2.2-40.9,0.8-49.9,2c-0.9,0.1-2.1,0.2-3.4,0.2C572.3,44.7,535.7,38.2,520.5,38.2L520.5,38.2z"/>
	</g>
	<g class="st1">
		<path class="st12" d="M226.2,122.3V75.9c2.5-1.1,7.6-1.7,15.2-1.7c10.7,0,24.2,1.1,35,1.9c7.2,0.6,12.9,1,15.9,1
			c0.5,0,0.9,0,1.2,0c10.3-0.8,18.9-1.1,26.2-1.1c12.4,0,20.8,1.1,31.4,2.4c8.5,1.1,19.1,2.4,34.7,3.5l-1.5,40.3H226.2z"/>
		<path class="st10" d="M241.4,75c10.6,0,24.1,1.1,35,1.9c7.2,0.6,12.9,1,16,1c0.5,0,0.9,0,1.3,0c10.3-0.8,18.9-1.1,26.1-1.1
			c12.4,0,20.7,1.1,31.3,2.4c8.4,1.1,18.8,2.4,34.1,3.5l-1.4,38.9H226.9V76.4C229.4,75.5,234.3,75,241.4,75 M241.4,73.6
			c-7.3,0-13.2,0.5-15.9,1.9V123H385l1.5-41.6c-35.3-2.5-44-6-66.8-6c-7,0-15.4,0.3-26.2,1.1c-0.3,0-0.7,0-1.2,0
			C284.8,76.5,259.1,73.6,241.4,73.6L241.4,73.6z"/>
	</g>
	<g class="st1">
		<path class="st13" d="M347.2,122.3V112L364,93.9c5.6-6,31.8-16.7,40.1-17.1c12.8-0.7,23.7-3.8,35.3-7.2c5.2-1.5,10.5-3,16.1-4.4
			c1.1-0.3,2.6-0.4,4.3-0.4c12.3,0,37.1,6.7,61,13.1c21.8,5.9,42.4,11.4,51.8,11.4c0.6,0,1.1,0,1.6-0.1c9-0.7,46.1-3.1,61.4-3.1
			c1.5,0,2.8,0,3.8,0.1v36.1H347.2z"/>
		<path class="st10" d="M459.8,65.5c12.2,0,36.9,6.6,60.8,13.1c21.8,5.9,42.5,11.4,52,11.4c0.6,0,1.1,0,1.6-0.1
			c9-0.7,46-3.1,61.3-3.1c1.2,0,2.2,0,3.1,0v34.7H347.9v-9.3l16.6-17.9c5.4-5.8,31.6-16.5,39.6-16.9c12.9-0.7,23.8-3.9,35.4-7.2
			c5.2-1.5,10.5-3,16.1-4.4C456.7,65.6,458.1,65.5,459.8,65.5 M459.8,64.1c-1.8,0-3.3,0.1-4.5,0.4C437.2,68.8,422.6,75,404,76
			c-8.6,0.5-35,11.3-40.6,17.4c-5.7,6.1-11.3,12.2-17,18.3V123H640V85.5c-1.1-0.1-2.6-0.1-4.5-0.1c-15.2,0-52.2,2.3-61.4,3.1
			c-0.5,0-1,0.1-1.5,0.1C553,88.6,483.5,64.1,459.8,64.1L459.8,64.1z"/>
	</g>
	<g class="st1">
		<path class="st14" d="M1.2,122.3V50.2c1.1-0.1,2.3-0.1,3.6-0.1c14.5,0,38.8,3.8,60.2,7.2c16.9,2.7,31.6,5,38.6,5
			c0.8,0,1.5,0,2-0.1c2.8-0.3,6.2-0.4,10.1-0.4c33.5,0,97.5,11,109.4,14.5c5.9,1.8,12.5,6.3,18.9,10.7c5.1,3.5,10,6.9,14.5,8.8
			c22.8,10.1,23.4,10.1,29,10.1c5.1,0,14.6,0.1,50.7,8.5l23.5,7.8H1.2z"/>
		<path class="st10" d="M4.8,50.8c14.5,0,38.7,3.8,60.1,7.2c17,2.7,31.6,5,38.7,5c0.8,0,1.5,0,2.1-0.1c2.8-0.3,6.1-0.4,10-0.4
			c33.4,0,97.3,10.9,109.2,14.5c5.8,1.7,12.3,6.2,18.7,10.6c5.2,3.5,10,6.9,14.6,8.9c22.9,10.1,23.5,10.1,29.3,10.2
			c5.1,0,14.5,0.1,50.5,8.5l19.4,6.5H1.9V50.8C2.8,50.8,3.8,50.8,4.8,50.8L4.8,50.8 M4.8,49.4c-1.5,0-3,0-4.3,0.1V123H366l-27.7-9.2
			c-74.7-17.4-35.7,0.8-79.6-18.6c-10.2-4.5-22.8-16.4-33.5-19.6c-11.9-3.6-75.8-14.6-109.6-14.6c-3.8,0-7.2,0.1-10.1,0.4
			c-0.6,0.1-1.2,0.1-2,0.1C87.7,61.6,30.7,49.4,4.8,49.4L4.8,49.4z"/>
	</g>
	<g class="st1">
		<path class="st9" d="M322.8,122.3l1-0.3l0.1,0c32.4-18,82.6-19.5,131.3-19.5c9.2,0,18.4,0.1,28.2,0.1c9.8,0.1,19.9,0.1,30.1,0.1
			c38.4,0,83.4-1,125.9-8.4v27.9H322.8z"/>
		<path class="st10" d="M638.6,95.2v26.4H326.1c32.3-16.9,81.5-18.4,129.1-18.4c9.2,0,18.4,0.1,28.2,0.1c9.8,0.1,19.9,0.1,30.1,0.1
			C580.8,103.5,614.7,99.3,638.6,95.2 M640,93.5c-41.7,7.4-85,8.6-126.6,8.6c-20,0-39.5-0.3-58.3-0.3c-53.5,0-100.4,2.2-131.6,19.6
			l-5.8,1.7H640V93.5L640,93.5z"/>
	</g>
	<g class="st1">
		<path class="st11" d="M1.2,121.8v-13.9c15.2-7.5,91.9-13.6,134.6-13.6c12.5,0,21.3,0.5,25.5,1.5c17.9,4.1,35.7,12.8,54.6,26.5
			L1.2,121.8z"/>
		<path class="st10" d="M135.8,95c12.4,0,21.2,0.5,25.3,1.5c17.2,4,34.4,12.2,52.5,25.1L1.9,121.1v-12.7C17.9,101,93.5,95,135.8,95
			L135.8,95 M135.8,93.6c-43,0-120.6,6.1-135.3,13.9v15L218,123c-17-12.6-35.9-23.1-56.6-27.9C156.9,94.1,147.7,93.6,135.8,93.6
			L135.8,93.6z"/>
	</g>
	<polygon class="st15" points="81.1,-44.6 77.1,-47.4 77.4,-45.4 66.4,-43.5 66.8,-40.8 77.9,-42.7 78.2,-40.6 	"/>
	<g class="st1">
		<rect x="115.2" y="13.3" class="st16" width="38.8" height="21.7"/>
		<path class="st8" d="M154,12h-39.3v23.9h19v24.3h1.3V35.9h19V12z M152.7,34.5h-36.6V13.3h36.6V34.5z"/>
	</g>
	<polygon class="st15" points="149.1,27.7 143.2,19.7 142.6,23.8 120.1,20.4 119.2,25.9 141.7,29.4 141.1,33.6 	"/>
	<g class="st1">
		<g>
			<path class="st7" d="M69.4-31.9c0.2-0.4,0.3-0.9,0.7-1.2c0.5-0.5,1.3-0.5,1.9-0.2c0.6,0.3,0.9,1.1,0.7,1.7
				c-0.1,0.5-0.5,0.8-0.7,1.2c-0.5,0.8-0.7,1.8-0.7,2.8c0.1,2,0.5,3.9,0.6,5.8c0.1,2.1,0.2,4.1,0.4,6.2c0.2,2.1,0.5,4.2,1.3,6.1
				c0.7,2,1.9,3.8,2.6,5.7c0.4,1.1,0.7,2.4,0.6,3.6c-0.1,1.3-0.8,2.3-1.4,3.4c-0.6,1.2-1.1,2.6-2,3.7c-0.3,0.4-0.8,0.8-1.3,0.7
				c-0.4,0-0.8-0.3-1-0.6c-1.3-1.8,0.9-3.7,1.4-5.3c1-3.2-7.8,0.1-9.9,0.8C60.6,3.2,59.3,4.4,58,6c-0.4,0.5-0.8,1.1-1.4,1.4
				s-1.4,0.3-1.8-0.3c-0.2-0.3-0.2-0.8-0.2-1.1c0.2-1.3,1.2-2.3,2-3.3c4.3-5.2,6-11.9,7.3-18.4C65.2-21.4,67.4-26.6,69.4-31.9z"/>
			<path class="st10" d="M72.1,8c0,0-0.1,0-0.1,0c-0.5,0-0.9-0.3-1.2-0.8c-1-1.4-0.1-2.8,0.6-4c0.3-0.5,0.6-1,0.8-1.5
				c0.2-0.5,0-0.7-0.1-0.7c-1.1-1-6.9,1-8.9,1.7c-0.2,0.1-0.5,0.2-0.6,0.2c-1.7,0.6-3.1,1.6-4.4,3.3l-0.1,0.1
				c-0.4,0.5-0.8,1-1.4,1.3c-0.7,0.4-1.6,0.3-2.1-0.3c-0.2-0.3-0.3-0.8-0.2-1.3c0.2-1.2,1-2.2,1.8-3.1l0.3-0.3
				c4.3-5.3,6-12.2,7.3-18.3c0.9-4.5,2.6-8.8,4.2-12.9c0.4-1.1,0.8-2.1,1.2-3.2l0,0c0.2-0.4,0.4-1,0.8-1.3c0.6-0.5,1.5-0.6,2.2-0.2
				c0.7,0.4,1,1.3,0.8,2.1c-0.1,0.4-0.3,0.7-0.5,1c-0.1,0.1-0.1,0.2-0.2,0.3c-0.5,0.7-0.7,1.6-0.6,2.6c0.1,1.1,0.2,2.1,0.3,3.2
				c0.1,0.9,0.2,1.8,0.3,2.7c0.1,0.9,0.1,1.7,0.1,2.6c0.1,1.2,0.1,2.4,0.2,3.6c0.2,2.4,0.6,4.4,1.3,6c0.4,1,0.8,1.9,1.3,2.8
				c0.5,0.9,1,1.9,1.3,2.9C76.9-2.3,77.1-1.1,77,0c-0.1,1.2-0.7,2.2-1.2,3.2l-0.2,0.4c-0.2,0.4-0.4,0.8-0.6,1.2
				c-0.4,0.8-0.8,1.7-1.4,2.5C73.2,7.7,72.7,8,72.1,8z M71,0.2c0.7,0,1.2,0.1,1.5,0.4c0.2,0.2,0.4,0.6,0.2,1.3
				c-0.2,0.5-0.5,1.1-0.9,1.6c-0.7,1.2-1.4,2.3-0.6,3.4c0.2,0.3,0.5,0.5,0.8,0.5c0.4,0,0.8-0.2,1.1-0.6c0.5-0.7,0.9-1.5,1.3-2.4
				c0.2-0.4,0.4-0.8,0.6-1.2l0.2-0.4c0.5-1,1-1.9,1.2-3c0.1-1-0.1-2.1-0.6-3.4c-0.4-1-0.8-1.9-1.3-2.9c-0.5-0.9-1-1.9-1.3-2.9
				C72.6-11,72.2-13,72-15.5c-0.1-1.2-0.2-2.4-0.2-3.6c0-0.8-0.1-1.7-0.1-2.6c-0.1-0.9-0.2-1.8-0.3-2.6c-0.1-1.1-0.3-2.1-0.3-3.2
				c-0.1-1.1,0.2-2.1,0.7-3c0.1-0.1,0.1-0.2,0.2-0.3c0.2-0.3,0.4-0.5,0.5-0.8c0.1-0.5-0.1-1.1-0.6-1.4c-0.5-0.3-1.1-0.2-1.5,0.2
				c-0.3,0.3-0.5,0.7-0.6,1.1l0,0c-0.4,1.1-0.8,2.1-1.2,3.2c-1.6,4.1-3.2,8.4-4.1,12.8c-1.3,6.1-3,13.1-7.4,18.5l-0.3,0.3
				C55.9,4,55.1,4.9,55,6c0,0.3-0.1,0.7,0.1,0.9c0.3,0.4,1,0.4,1.4,0.2c0.5-0.3,0.8-0.7,1.2-1.2l0.1-0.1c1.4-1.8,2.8-2.8,4.7-3.5
				c0.2-0.1,0.4-0.1,0.6-0.2C66,1.1,69.1,0.2,71,0.2z M69.4-31.9L69.4-31.9L69.4-31.9z"/>
		</g>
		<g>
			<path class="st7" d="M66.7-23.9c1.8,0,3.6,0,5.4-0.1c0.2,0,0.5,0,0.6-0.2c0.8-0.6,0-1.6,0.1-2.3c0-0.3,0.3-0.7,0.6-0.8
				c1.4-0.4,1,2.5,0.9,3.1c-0.1,0.8-0.8,1.4-1.6,1.6c-1.4,0.2-2.5,0.4-3.9,0.5"/>
			<path class="st10" d="M68.8-22c-0.1,0-0.1-0.1-0.1-0.2c0-0.2,0.1-0.3,0.3-0.3c1.3,0,2.4-0.2,3.7-0.4l0.1,0
				c0.8-0.1,1.3-0.6,1.4-1.3c0.2-1.4,0.1-2.4-0.2-2.7c-0.1-0.1-0.2-0.1-0.4,0c-0.2,0.1-0.4,0.3-0.4,0.5c0,0.2,0,0.5,0.1,0.8
				c0.2,0.5,0.4,1.3-0.3,1.8c-0.2,0.2-0.5,0.2-0.8,0.2c-1.3,0.1-2.6,0.1-3.9,0.1c-0.5,0-1,0-1.5,0c-0.2,0-0.3-0.1-0.3-0.3
				c0-0.2,0.1-0.3,0.3-0.3c0.5,0,1,0,1.5,0c1.3,0,2.6,0,3.9-0.1c0.2,0,0.4,0,0.5-0.1c0.3-0.2,0.3-0.5,0.1-1.2
				c-0.1-0.3-0.2-0.7-0.1-1c0.1-0.5,0.4-0.9,0.8-1c0.4-0.1,0.7,0,0.9,0.2c0.6,0.5,0.6,2,0.4,3.2c-0.1,0.9-0.8,1.6-1.9,1.8l-0.1,0
				c-1.3,0.2-2.4,0.4-3.8,0.4C68.9-21.9,68.8-21.9,68.8-22z"/>
		</g>
	</g>
	<g class="st17">
		<path class="st18" d="M402,12.9c-0.1-0.5-0.2-1-0.2-1.5c0.1-0.7,0.9-1.3,1.6-1.3s1.4,0.6,1.7,1.3c0.2,0.7,0.1,1.4,0.1,2.1
			c0,1.5,0.5,2.9,1.1,4.3c5.3,13.5,9.7,27.5,10.7,42c0,0.6,0.1,1.2-0.1,1.7c-0.2,0.7-0.8,1.2-1.6,1.1c-0.3-0.1-0.6-0.3-0.7-0.6
			c-0.2-0.5,0.2-0.8,0.4-1.1c0.5-0.8,0.3-1.8-0.1-2.7c-0.9-2.5-2.5-4.8-4.5-6.5c-1.5-1.3-3.5-2.3-5.3-1.5c-1.4,0.6-2.1,2.2-2.5,3.7
			c-0.1,0.6-0.3,1.3-0.6,1.9c-0.4,0.6-1.1,1.1-1.8,0.9c-0.4-0.1-0.7-0.5-0.7-0.9c-0.1-0.6,0.3-0.8,0.6-1.1c0.3-0.4,0.4-0.9,0.5-1.4
			c1-7.4,1.7-14.9,2.2-22.3c0.2-4.1,0.3-8.4-2-11.8c-1.1-1.6-2.8-2.8-4.1-4.3c-1-1.1-1.9-2.4-2.2-3.8c-0.1-0.4,0.4-0.7,0.8-0.4
			c0.5,0.5,1.2,1,1.4,1.2c0.8,0.8,1.7,1.5,2.5,2.3c0.6,0.5,1.6,1.7,2.4,1.3C402.4,15.2,402.1,13.6,402,12.9z"/>
		<path class="st10" d="M415.5,63c-0.1,0-0.2,0-0.3,0c-0.4-0.1-0.8-0.4-0.9-0.8c-0.2-0.6,0.1-1,0.3-1.2c0-0.1,0.1-0.1,0.1-0.2
			c0.3-0.5,0.3-1.3-0.1-2.4c-0.9-2.5-2.4-4.7-4.4-6.4c-0.7-0.6-2.9-2.3-4.9-1.4c-1.4,0.6-2,2.2-2.3,3.5l-0.1,0.3
			c-0.1,0.6-0.3,1.1-0.6,1.7c-0.4,0.7-1.3,1.4-2.2,1.1c-0.5-0.2-0.9-0.6-1-1.2c-0.1-0.6,0.3-0.9,0.5-1.2c0.1-0.1,0.1-0.1,0.2-0.2
			c0.2-0.3,0.3-0.7,0.4-1.2c1-7.4,1.7-14.9,2.2-22.3c0.3-4.1,0.3-8.3-1.9-11.5c-0.7-1-1.6-1.9-2.5-2.7c-0.5-0.5-1-1-1.5-1.5
			c-1.2-1.3-2-2.6-2.3-4c-0.1-0.4,0.1-0.7,0.4-0.9c0.3-0.2,0.7-0.1,1,0.1c0.3,0.3,0.7,0.6,0.9,0.8c0.2,0.2,0.3,0.3,0.4,0.4
			c0.8,0.8,1.7,1.5,2.5,2.2c0.1,0.1,0.2,0.2,0.4,0.4c0.5,0.4,1.2,1.1,1.6,0.9c0.4-0.2,0.5-1,0.3-2.3l0,0c0-0.1,0-0.2-0.1-0.3
			c-0.1-0.4-0.2-0.9-0.1-1.3c0.2-0.9,1-1.6,2-1.5c0.9,0,1.7,0.7,2,1.5c0.2,0.6,0.1,1.1,0.1,1.7c0,0.2,0,0.4,0,0.5
			c0,1.4,0.5,2.8,1.1,4.2c6.5,16.6,9.9,29.6,10.7,42.1c0,0.6,0.1,1.2-0.1,1.9C417,62.4,416.3,63,415.5,63z M406.5,49.6
			c1.8,0,3.4,1.2,4.2,1.8c2.1,1.8,3.7,4.1,4.6,6.7c0.3,0.8,0.6,2,0,3c0,0.1-0.1,0.1-0.1,0.2c-0.2,0.3-0.3,0.4-0.2,0.6
			c0.1,0.2,0.2,0.3,0.4,0.4c0.5,0.1,1-0.3,1.2-0.8c0.2-0.5,0.1-1.1,0.1-1.6c-0.9-12.4-4.2-25.3-10.7-41.8c-0.6-1.4-1.1-2.9-1.1-4.5
			c0-0.2,0-0.4,0-0.6c0-0.5,0.1-1-0.1-1.4c-0.2-0.6-0.8-1-1.3-1c-0.6,0-1.2,0.4-1.3,1c-0.1,0.3,0,0.7,0.1,1c0,0.1,0,0.2,0.1,0.3
			c0.3,1.7,0.1,2.7-0.7,3.1c-0.9,0.4-1.8-0.4-2.4-1c-0.1-0.1-0.3-0.2-0.4-0.3c-0.9-0.7-1.7-1.5-2.6-2.3c-0.1-0.1-0.2-0.2-0.4-0.3
			c-0.3-0.2-0.6-0.5-1-0.9c0,0,0,0-0.1,0c0,0-0.1,0,0,0.1c0.3,1.2,1,2.4,2.1,3.6c0.5,0.5,1,1,1.5,1.5c0.9,0.9,1.9,1.8,2.6,2.8
			c2.4,3.4,2.3,7.8,2.1,12c-0.5,7.4-1.2,15-2.2,22.4c-0.1,0.5-0.1,1.1-0.5,1.6c-0.1,0.1-0.2,0.2-0.2,0.2c-0.2,0.2-0.3,0.3-0.3,0.6
			c0,0.3,0.2,0.5,0.5,0.6c0.6,0.2,1.1-0.3,1.4-0.8c0.3-0.4,0.4-0.9,0.5-1.5l0.1-0.3c0.5-2,1.4-3.4,2.7-4
			C405.5,49.6,406,49.6,406.5,49.6z"/>
	</g>
	<g class="st1">
		<rect x="379.1" y="-26" class="st18" width="30.8" height="17.2"/>
		<path class="st8" d="M409.9-27h-31.1v18.9h15.1v19.3h1V-8.1h15V-27z M408.9-9.1h-29V-26h29V-9.1z"/>
	</g>
	<polygon class="st15" points="382.6,-17.9 388.1,-12.4 388.1,-15.6 405.9,-15.5 405.9,-19.9 388.1,-20 388.1,-23.3 	"/>
	<g class="st1">
		<g>
			<path class="st19" d="M568.8,88.9c0,0.3,0,4.4,0,4.7c0,0.6-0.1,1.2-0.1,1.8c-0.3,2.7-0.7,5.4-1.3,8.1c-0.7,2.7-1.7,5.1-2.9,7.6
				c-0.3,0.7-0.6,1.4-0.3,2.1c0.3,0.6,1,0.9,1.7,0.8c0.7-0.1,1.1-0.5,1.4-1.1c1.2-2.1,2.2-4.2,3.7-6c1.7-2,4.7-2.5,7.1-1.4
				c2.4,1.1,3.1,3.8,4.2,6c0.9,1.8,3.7,1.5,3.1-0.3c-0.3-0.8-1.8-4.5-2.3-6c-1.8-5-2.7-21.4-3.8-24.1c-1.1-2.7-2.8-5-3.6-7.8
				c-0.3-1-0.3-2.1-0.8-3.1c-0.4-0.9-1.3-1.6-2.3-1.4c-1.6,0.2-2.4,2.4-2.1,3.7c0.1,0.5,0.3,0.9,0.4,1.3c0.4,1.5-0.2,3-0.8,4.4
				c-0.5,1.2-1.5,2.1-1.8,3.4c-0.4,1.8-1.2,4.4-1.8,6.1c-0.3,0.9-0.7,1.7-1.1,2.6c-0.3,0.5-1.2,1.7-0.9,2.3c0.1,0.2,0.4,0.4,0.6,0.4
				c0.9,0.1,1.6-0.7,2-1.4c1.5-2.7,3.4-5.3,3.9-8.9"/>
			<path class="st10" d="M565.5,114.4c-0.7,0-1.4-0.5-1.7-1.1c-0.4-0.8,0-1.7,0.3-2.4c1.1-2.4,2.2-4.8,2.9-7.5c0.6-2.4,1-5,1.3-8
				c0.1-0.6,0.1-1.2,0.1-1.8c0-0.2,0-1.9,0-3.2c-0.1,0.1-0.1,0.2-0.2,0.3c-0.3,0.4-0.5,0.9-0.8,1.3c-0.8,1.4-1.7,1.7-2.4,1.6
				c-0.5-0.1-0.8-0.3-1-0.7c-0.3-0.7,0.3-1.5,0.7-2.2c0.1-0.2,0.2-0.3,0.3-0.5c0.4-0.8,0.8-1.7,1-2.5c0.6-1.8,1.4-4.3,1.8-6.1
				c0.2-0.8,0.6-1.5,1.1-2.2c0.3-0.4,0.5-0.8,0.7-1.3c0.6-1.4,1.2-2.8,0.8-4.1c-0.1-0.2-0.1-0.4-0.2-0.6c-0.1-0.2-0.2-0.5-0.2-0.8
				c-0.2-1,0.1-2.2,0.7-3.1c0.5-0.7,1.1-1.1,1.8-1.2c1.2-0.2,2.3,0.7,2.8,1.7c0.3,0.6,0.4,1.3,0.5,2c0.1,0.4,0.1,0.8,0.2,1.2
				c0.5,1.6,1.2,3,2,4.5c0.6,1.1,1.1,2.1,1.6,3.3c0.5,1.2,0.9,5.1,1.4,9.5c0.6,5.5,1.4,11.8,2.4,14.6c0.3,0.8,0.9,2.4,1.4,3.7
				c0.4,1.1,0.8,2,0.9,2.3c0.3,0.9,0,1.7-0.8,2c-1,0.4-2.5,0-3.1-1.3c-0.2-0.4-0.4-0.9-0.6-1.4c-0.8-1.8-1.6-3.6-3.3-4.4
				c-2.3-1-5-0.5-6.5,1.3c-1.2,1.4-2.1,3.1-3,4.7c-0.2,0.4-0.5,0.8-0.7,1.2c-0.4,0.8-1,1.2-1.7,1.3
				C565.8,114.4,565.6,114.4,565.5,114.4z M569.2,88.9c0,0.5,0,4.4,0,4.7c0,0.6-0.1,1.2-0.1,1.9c-0.3,3-0.7,5.7-1.3,8.1
				c-0.7,2.8-1.8,5.2-2.9,7.7c-0.3,0.6-0.5,1.2-0.3,1.7c0.2,0.4,0.7,0.6,1.2,0.5c0.5-0.1,0.8-0.3,1.1-0.9c0.2-0.4,0.5-0.8,0.7-1.2
				c0.9-1.7,1.8-3.4,3.1-4.8c1.8-2.1,5-2.7,7.6-1.5c2,0.9,2.9,2.9,3.7,4.9c0.2,0.5,0.4,0.9,0.6,1.4c0.5,0.9,1.5,1.1,2,0.9
				c0.3-0.1,0.4-0.4,0.3-0.9c-0.1-0.3-0.5-1.2-0.9-2.3c-0.5-1.3-1.1-2.8-1.4-3.7c-1-2.8-1.8-9.2-2.4-14.8c-0.5-4.2-0.9-8.1-1.4-9.3
				c-0.4-1.1-1-2.2-1.5-3.2c-0.8-1.5-1.6-3-2.1-4.6c-0.1-0.4-0.2-0.8-0.3-1.3c-0.1-0.6-0.2-1.2-0.5-1.8c-0.3-0.7-1.1-1.3-1.9-1.2
				c-0.6,0.1-1,0.5-1.2,0.8c-0.5,0.7-0.7,1.7-0.5,2.4c0,0.2,0.1,0.4,0.2,0.7c0.1,0.2,0.2,0.4,0.2,0.7c0.4,1.6-0.2,3.2-0.9,4.7
				c-0.2,0.5-0.5,1-0.8,1.4c-0.4,0.6-0.8,1.2-1,1.9c-0.4,1.8-1.2,4.3-1.8,6.1c-0.3,0.9-0.7,1.7-1.1,2.6c-0.1,0.1-0.2,0.3-0.3,0.5
				c-0.2,0.4-0.7,1.2-0.6,1.4c0,0.1,0.2,0.2,0.3,0.2c0.7,0.1,1.2-0.6,1.5-1.1c0.3-0.5,0.5-0.9,0.8-1.4c1.3-2.2,2.7-4.5,3.1-7.4
				c0-0.2,0.3-0.4,0.5-0.4c0.2,0,0.4,0.3,0.4,0.5C571.1,85.2,570.2,87.1,569.2,88.9z"/>
		</g>
		<g>
			<path class="st19" d="M578.8,80.3c1.4,6.7-3.2,9.5-10.2,12.2c-0.3,0.1-0.6,0.2-0.8,0.2c-0.5,0-0.9-0.3-1.1-0.7
				c-0.2-0.4-0.1-1,0.3-1.3c0.4-0.3,0.9-0.4,1.4-0.5c5.4-2.1,7.7-5.5,7-7.3"/>
			<path class="st10" d="M567.6,93.2c-0.6,0-1.2-0.4-1.4-1c-0.2-0.6-0.1-1.3,0.4-1.8c0.3-0.3,0.7-0.4,1.1-0.5c0.1,0,0.3-0.1,0.4-0.1
				c5.3-2,7.3-5.2,6.8-6.8c-0.1-0.2,0-0.5,0.3-0.6c0.2-0.1,0.5,0,0.6,0.3c0.8,2.2-1.8,5.8-7.3,7.9c-0.2,0.1-0.3,0.1-0.5,0.1
				c-0.3,0.1-0.5,0.1-0.7,0.3c-0.2,0.2-0.3,0.5-0.2,0.8c0.1,0.3,0.4,0.4,0.7,0.4c0.2,0,0.4-0.1,0.6-0.2l0.1-0.1
				c7.4-2.8,11.2-5.5,9.9-11.7c0-0.2,0.1-0.5,0.3-0.5c0.2,0,0.5,0.1,0.5,0.3c1.5,7.5-4.1,10.3-10.5,12.7l-0.1,0
				c-0.3,0.1-0.5,0.2-0.9,0.2C567.7,93.2,567.7,93.2,567.6,93.2z"/>
		</g>
	</g>
	<g class="st1">
		<g>
			<path class="st20" d="M219.6,23.9c0,0.3,0,4.4,0,4.7c0,0.6,0.1,1.2,0.1,1.8c0.3,2.7,0.7,5.4,1.3,8.1c0.7,2.7,1.7,5.1,2.9,7.6
				c0.3,0.7,0.6,1.4,0.3,2.1c-0.3,0.6-1,0.9-1.7,0.8c-0.7-0.1-1.1-0.5-1.4-1.1c-1.2-2.1-2.2-4.2-3.7-6c-1.7-2-4.7-2.5-7.1-1.4
				c-2.4,1.1-3.1,3.8-4.2,6c-0.9,1.8-3.7,1.5-3.1-0.3c0.3-0.8,1.8-4.5,2.3-6c1.8-5,2.7-21.4,3.8-24.1c1.1-2.7,2.8-5,3.6-7.8
				c0.3-1,0.3-2.1,0.8-3.1c0.4-0.9,1.3-1.6,2.3-1.4c1.6,0.2,2.4,2.4,2.1,3.7c-0.1,0.5-0.3,0.9-0.4,1.3c-0.4,1.5,0.2,3,0.8,4.4
				c0.5,1.2,1.5,2.1,1.8,3.4c0.4,1.8,1.2,4.4,1.8,6.1c0.3,0.9,0.7,1.7,1.1,2.6c0.3,0.5,1.2,1.7,0.9,2.3c-0.1,0.2-0.4,0.4-0.6,0.4
				c-0.9,0.1-1.6-0.7-2-1.4c-1.5-2.7-3.4-5.3-3.9-8.9"/>
			<path class="st10" d="M222.5,49.4c-0.7-0.1-1.3-0.6-1.7-1.3c-0.2-0.4-0.5-0.8-0.7-1.2c-0.9-1.6-1.8-3.3-3-4.7
				c-1.5-1.8-4.3-2.3-6.5-1.3c-1.7,0.8-2.5,2.6-3.3,4.4c-0.2,0.5-0.4,0.9-0.6,1.4c-0.6,1.3-2.1,1.7-3.1,1.3c-0.8-0.3-1.1-1.1-0.8-2
				c0.1-0.3,0.5-1.3,0.9-2.3c0.5-1.3,1.1-2.8,1.4-3.7c1-2.7,1.7-9,2.4-14.6c0.5-4.4,0.9-8.3,1.4-9.5c0.5-1.1,1-2.2,1.6-3.3
				c0.8-1.4,1.5-2.9,2-4.5c0.1-0.4,0.2-0.8,0.2-1.2c0.1-0.7,0.2-1.3,0.5-2c0.4-1,1.5-1.9,2.8-1.7c0.7,0.1,1.3,0.5,1.8,1.2
				c0.6,0.9,0.9,2.1,0.7,3.1c-0.1,0.3-0.2,0.5-0.2,0.8c-0.1,0.2-0.1,0.4-0.2,0.6c-0.3,1.3,0.2,2.7,0.8,4.1c0.2,0.4,0.5,0.9,0.7,1.3
				c0.4,0.7,0.9,1.4,1.1,2.2c0.4,1.7,1.1,4.3,1.8,6.1c0.3,0.8,0.6,1.7,1,2.5c0.1,0.1,0.2,0.3,0.3,0.5c0.4,0.7,1,1.6,0.7,2.2
				c-0.2,0.4-0.5,0.6-1,0.7c-0.7,0.1-1.6-0.1-2.4-1.6c-0.3-0.4-0.5-0.9-0.8-1.3c-0.1-0.1-0.1-0.2-0.2-0.3c0,1.3,0,3,0,3.2
				c0,0.6,0.1,1.2,0.1,1.8c0.3,3,0.7,5.6,1.3,8c0.7,2.7,1.7,5.1,2.9,7.5c0.3,0.7,0.7,1.6,0.3,2.4c-0.3,0.6-0.9,1-1.7,1.1
				C222.8,49.4,222.7,49.4,222.5,49.4z M217,18c0-0.2,0.1-0.5,0.4-0.5c0.2,0,0.5,0.1,0.5,0.4c0.4,2.9,1.8,5.2,3.1,7.4
				c0.3,0.5,0.5,0.9,0.8,1.4c0.3,0.6,0.9,1.2,1.5,1.1c0.1,0,0.3-0.1,0.3-0.2c0.1-0.3-0.4-1.1-0.6-1.4c-0.1-0.2-0.2-0.4-0.3-0.5
				c-0.4-0.9-0.8-1.8-1.1-2.6c-0.6-1.8-1.4-4.4-1.8-6.1c-0.2-0.7-0.5-1.3-1-1.9c-0.3-0.4-0.6-0.9-0.8-1.4c-0.7-1.5-1.3-3.1-0.9-4.7
				c0.1-0.2,0.1-0.4,0.2-0.7c0.1-0.2,0.2-0.4,0.2-0.7c0.2-0.7-0.1-1.7-0.5-2.4c-0.2-0.3-0.6-0.7-1.2-0.8c-0.8-0.1-1.6,0.5-1.9,1.2
				c-0.2,0.5-0.4,1.1-0.5,1.8c-0.1,0.4-0.1,0.8-0.3,1.3c-0.5,1.7-1.3,3.2-2.1,4.6c-0.5,1-1.1,2.1-1.5,3.2c-0.5,1.1-0.9,5.1-1.4,9.3
				c-0.6,5.6-1.4,11.9-2.4,14.8c-0.3,0.9-0.9,2.4-1.4,3.7c-0.4,1-0.8,2-0.9,2.3c-0.2,0.4-0.1,0.7,0.3,0.9c0.5,0.2,1.5,0,2-0.9
				c0.2-0.4,0.4-0.9,0.6-1.4c0.8-1.9,1.7-3.9,3.7-4.9c2.6-1.2,5.8-0.6,7.6,1.5c1.3,1.5,2.2,3.2,3.1,4.8c0.2,0.4,0.4,0.8,0.7,1.2
				c0.3,0.5,0.6,0.8,1.1,0.9c0.5,0.1,1-0.2,1.2-0.5c0.2-0.5,0-1.1-0.3-1.7c-1.1-2.5-2.2-4.9-2.9-7.7c-0.6-2.4-1-5.1-1.3-8.1
				c-0.1-0.6-0.1-1.3-0.1-1.9c0-0.3,0-4.2,0-4.7C218.2,22.1,217.3,20.2,217,18z"/>
		</g>
		<g>
			<path class="st20" d="M209.6,15.3c-1.4,6.7,3.2,9.5,10.2,12.2c0.3,0.1,0.6,0.2,0.8,0.2c0.5,0,0.9-0.3,1.1-0.7
				c0.2-0.4,0.1-1-0.3-1.3c-0.4-0.3-0.9-0.4-1.4-0.5c-5.4-2.1-7.7-5.5-7-7.3"/>
			<path class="st10" d="M220.8,28.2c0.6,0,1.2-0.4,1.4-1c0.2-0.6,0.1-1.3-0.4-1.8c-0.3-0.3-0.7-0.4-1.1-0.5c-0.1,0-0.3-0.1-0.4-0.1
				c-5.3-2-7.3-5.2-6.8-6.8c0.1-0.2,0-0.5-0.3-0.6c-0.2-0.1-0.5,0-0.6,0.3c-0.8,2.2,1.8,5.8,7.3,7.9c0.2,0.1,0.3,0.1,0.5,0.1
				c0.3,0.1,0.5,0.1,0.7,0.3c0.2,0.2,0.3,0.5,0.2,0.8c-0.1,0.3-0.4,0.4-0.7,0.4c-0.2,0-0.4-0.1-0.6-0.2l-0.1-0.1
				c-7.4-2.8-11.2-5.5-9.9-11.7c0-0.2-0.1-0.5-0.3-0.5c-0.2,0-0.5,0.1-0.5,0.3c-1.5,7.5,4.1,10.3,10.5,12.7l0.1,0
				c0.3,0.1,0.5,0.2,0.9,0.2C220.7,28.2,220.8,28.2,220.8,28.2z"/>
		</g>
	</g>
	<g class="st1">
		<rect x="548.9" y="45.3" class="st19" width="38" height="21.3"/>
		<path class="st8" d="M586.9,44h-38.4v23.4h18.6L567,90.5l1.3-0.5V67.4h18.6V44z M585.6,66.1h-35.9V45.3h35.9V66.1z"/>
	</g>
	<polygon class="st15" points="555.3,53.2 560,60.6 560.8,57.1 580.4,61.5 581.5,56.7 561.9,52.2 562.7,48.5 	"/>
	<g class="st1">
		<g>
			<path class="st21" d="M515.8,11.2c1.3,2.8,1.6,5.3,2.3,8.3c0.4,2.1,0.9,4.3,1.3,6.4c0.2,0.7,0.4,1.5,0.5,2.2
				c0.1,0.7,0.2,1.5,0.7,2.1c0.2,0.4,0.6,0.7,0.8,1s0.4,0.8,0.3,1.2c-0.2,0.8-3.3-0.2-3.3-1.1c0-0.6-0.3-1.2-0.7-1.7
				c-0.6-0.8-1.6-1-2.5-1c-1-0.1-2.1,0.1-2.9,0.7c-0.9,0.6-1.5,1.6-1.7,2.7c-0.2,1.1,0,2.3-0.4,3.3c-0.3,0.9-1.3,1.5-2.3,1.4
				c-1-0.1-0.2-1.2,0-1.9c0.3-1.1,0.4-2.2,0.5-3.3c0.2-1.5,0.3-3,0.4-4.5c0.2-3.1,0.2-5.6,0.2-8.6c0,0-1-9.7,2.7-9.5
				C515.4,9,515.8,11.2,515.8,11.2z"/>
			<path class="st10" d="M508.1,37c-0.1,0-0.2,0-0.3,0c-0.3,0-0.6-0.2-0.7-0.4c-0.2-0.4,0-0.9,0.2-1.4c0.1-0.2,0.2-0.4,0.2-0.5
				c0.2-0.7,0.3-1.5,0.4-2.4c0-0.3,0.1-0.6,0.1-0.9c0.2-1.4,0.3-2.9,0.4-4.5c0.2-3,0.2-5.4,0.2-8.6c0-0.3-0.7-7,1.4-9.2
				c0.5-0.5,1-0.7,1.7-0.7c3.7,0.2,4.3,2.2,4.4,2.6c1.1,2.3,1.5,4.5,2,6.8c0.1,0.5,0.2,1,0.3,1.5l1.3,6.4c0.1,0.3,0.1,0.6,0.2,0.8
				c0.1,0.5,0.2,0.9,0.3,1.4c0.1,0.7,0.2,1.4,0.6,1.9c0.1,0.2,0.2,0.3,0.4,0.5c0.1,0.2,0.3,0.3,0.4,0.5c0.3,0.5,0.5,1,0.3,1.5
				c-0.1,0.2-0.3,0.6-1.2,0.5c-0.9-0.1-2.7-0.8-2.8-1.7c0-0.5-0.2-1-0.6-1.5c-0.5-0.7-1.4-0.8-2.2-0.9c-1.1-0.1-2,0.1-2.7,0.6
				c-0.8,0.6-1.4,1.5-1.6,2.5c-0.1,0.4-0.1,0.9-0.1,1.3c0,0.7,0,1.4-0.3,2C510.1,36.4,509.1,37,508.1,37z M511.6,9.1
				c-0.4,0-0.8,0.2-1.1,0.5c-1.9,1.9-1.2,8.6-1.2,8.7c0,3.2,0,5.7-0.2,8.7c-0.1,1.6-0.2,3.1-0.4,4.5c0,0.3-0.1,0.6-0.1,0.9
				c-0.1,0.8-0.2,1.7-0.4,2.5c-0.1,0.2-0.2,0.4-0.2,0.6c-0.1,0.2-0.3,0.7-0.3,0.8c0,0,0,0,0.2,0.1c0.8,0.1,1.7-0.4,2-1.2
				c0.2-0.6,0.2-1.2,0.2-1.8c0-0.5,0-1,0.1-1.4c0.2-1.2,0.9-2.2,1.9-2.9c0.9-0.6,1.9-0.9,3.1-0.8c1,0.1,2.1,0.3,2.7,1.2
				c0.5,0.6,0.7,1.2,0.7,1.8c0,0.1,0.3,0.5,1.1,0.8c0.8,0.3,1.5,0.3,1.6,0.2c0.1-0.3-0.1-0.7-0.3-0.9c-0.1-0.2-0.2-0.3-0.4-0.5
				c-0.1-0.2-0.3-0.3-0.4-0.5c-0.5-0.7-0.6-1.5-0.7-2.2c-0.1-0.4-0.2-0.9-0.3-1.3c-0.1-0.3-0.1-0.6-0.2-0.9l-1.3-6.4
				c-0.1-0.5-0.2-1-0.3-1.5c-0.5-2.4-0.9-4.4-1.9-6.7l0-0.1C515.5,11.1,515.1,9.3,511.6,9.1C511.7,9.1,511.7,9.1,511.6,9.1z"/>
		</g>
		<g>
			<path class="st21" d="M510.2,10.8c-0.6,1.8-0.4,3.3,0.3,5.8c0.1,0.5,0.1,1.1-0.1,1.6c-0.1,0.3-0.4,0.4-0.7,0.5
				c-0.7,0.1-1-0.7-1.1-1.3c-1-3.9-1-5.9,0.3-9.7c0.5-1.3,1-2.8,0.5-4.1c-0.2-0.6-0.6-1.2-0.6-1.9c0-0.3,0.1-0.5,0.2-0.7
				c0.6-0.8,1.7-0.2,2.1,0.6c0.4,0.7,0.4,1.6,0.7,2.3c0.2,0.5,0.6,0.9,0.9,1.4l2.5,3.2c0.6,0.8,0.8,1.8,0.7,2.8
				c-0.1,1.9-0.4,3.9-1.4,5.5c-0.6,1-2.4,3.1-3.7,2c-0.1-0.1-0.2-0.2-0.3-0.4c-0.1-0.4,0.3-0.8,0.6-1.1c1.1-1,2.2-2.5,2.5-3.9
				c0.2-0.7,0.1-1.9-0.5-2.4"/>
			<path class="st10" d="M511.6,19.3c-0.4,0-0.7-0.1-1.1-0.4c-0.1-0.1-0.1-0.1-0.2-0.2c-0.2,0.2-0.4,0.2-0.6,0.3
				c-0.7,0.1-1.3-0.5-1.5-1.5c-1-4-1.1-6,0.3-9.9c0.4-1.2,0.9-2.6,0.5-3.9c-0.1-0.2-0.1-0.4-0.2-0.6c-0.2-0.4-0.4-0.9-0.4-1.4
				c0-0.3,0.1-0.7,0.3-0.9c0.3-0.4,0.7-0.5,1.1-0.5c0.6,0.1,1.2,0.5,1.5,1.1c0.2,0.4,0.3,0.9,0.4,1.3c0.1,0.4,0.2,0.7,0.3,1
				c0.2,0.5,0.5,0.9,0.8,1.3l2.5,3.2c0.7,1,0.8,2.2,0.8,3c-0.1,1.8-0.4,3.9-1.4,5.6c-0.5,0.9-1.7,2.2-2.9,2.4
				C511.7,19.3,511.7,19.3,511.6,19.3z M513.1,10.4c0.1,0,0.1,0,0.2,0.1c0.8,0.6,0.8,2,0.6,2.8c-0.3,1.4-1.3,3-2.6,4.1
				c-0.3,0.3-0.6,0.5-0.5,0.7c0,0.1,0.1,0.2,0.2,0.2c0.2,0.2,0.5,0.3,0.8,0.2c0.9-0.1,1.9-1.3,2.4-2.1c0.9-1.6,1.2-3.6,1.4-5.3
				c0.1-0.7,0-1.8-0.6-2.6l-2.5-3.2c-0.3-0.4-0.7-0.9-0.9-1.5c-0.2-0.4-0.2-0.7-0.3-1.1c-0.1-0.4-0.2-0.8-0.4-1.2
				c-0.2-0.4-0.6-0.7-1-0.7c-0.2,0-0.4,0.1-0.5,0.2c-0.1,0.1-0.2,0.3-0.2,0.5c0,0.4,0.2,0.8,0.3,1.2c0.1,0.2,0.2,0.4,0.3,0.6
				c0.5,1.5-0.1,3.1-0.5,4.3c-1.3,3.7-1.2,5.6-0.3,9.5c0.1,0.2,0.3,1.1,0.8,1c0.2,0,0.3-0.1,0.4-0.3c0.2-0.4,0.2-0.8,0.1-1.3
				c-0.7-2.4-0.9-4.1-0.3-6c0.1-0.2,0.2-0.3,0.4-0.2c0.2,0.1,0.3,0.2,0.2,0.4c-0.6,1.7-0.3,3.3,0.3,5.6c0,0.1,0.1,0.3,0.1,0.4
				c1.1-1,2.1-2.5,2.4-3.7c0.1-0.6,0.1-1.7-0.4-2.1c-0.1-0.1-0.2-0.3-0.1-0.5C512.9,10.5,513,10.4,513.1,10.4z"/>
		</g>
	</g>
	<g class="st1">
		<rect x="495.1" y="-19" class="st21" width="30.8" height="17.2"/>
		<path class="st8" d="M525.9-20h-31.1v18.9h15.1v19.3h1V-1.1h15V-20z M524.9-2.1h-29V-19h29V-2.1z"/>
	</g>
	<polygon class="st15" points="498.7,-9.3 504.9,-4.6 504.4,-7.8 522.1,-10.1 521.5,-14.4 503.9,-12.1 503.4,-15.4 	"/>
	<g class="st1">
		<path class="st16" d="M112.4,96.2c-0.4,0.6-0.4,1.4-0.4,2.2c0,0.6,0.5,1,1,1c0,0,0,0,0,0c1.1,0,1.3-1.1,1.6-2
			c0.8-2.5,0.6-6.1,2.7-7.9c0.9-0.8,2.1-1.3,3.2-1.7c1.1-0.4,2.3-0.9,3.5-0.5c1.1,0.4,1.7,1.9,2.1,2.9c0.6,1.5,1.1,3,2,4.4
			c0.9,1.4,2.1,2.6,3.7,3.1c0.5,0.1,1,0.2,1.3-0.2c0.2-0.2,0.2-0.6,0.2-0.9c-0.1-0.6-0.6-1-1.1-1.5c-1.7-1.8-2.5-4.4-3.1-6.8
			c-2-8.5-2.5-17.4-1.5-26.2c0-0.3,0.1-0.7,0.4-0.9c0.2-0.2,0.5-0.1,0.8-0.1c1.7,0.1,3.4,0.5,5,1.1c0.6,0.2,1.3,0.5,1.9,0.3
			c0.3-0.1,0.5-0.2,0.7-0.4c0.5-0.7-0.1-1.4-0.7-1.7c-0.5-0.2-1.1-0.2-1.7-0.3c-2.2-0.4-4-2.1-5-4.1c-1-2-1.4-4.3-1.8-6.5
			c-0.4-2.7,0.8-4.2,2.1-6.5c0.1-0.2,0.3-0.5,0.5-0.6c0.4-0.2,0.8,0,1.2,0c0.9,0,1.7-0.7,1.9-1.5c0.2-0.8,0-1.8-0.5-2.5
			c-0.7-1-2.3-1.6-3.2-0.8c-0.4,0.4-0.6,0.9-0.8,1.4c-1,1.8-3.3,3-4.8,4.8c-2.2,2.7-3.8,6.1-4.9,9.6c-1.5,4.6-2.8,8.5-3.6,13.4
			C112.9,80,113.3,94.6,112.4,96.2z"/>
		<path class="st10" d="M113.1,99.7C113.1,99.7,113,99.7,113.1,99.7c-0.8,0-1.5-0.6-1.5-1.4c0-1,0.1-1.8,0.5-2.4l0,0
			c0.3-0.6,0.5-4,0.7-8c0.3-5.8,0.7-13.8,1.9-21.4c0.8-5,2.1-9.1,3.6-13.4c1.4-4.2,3-7.4,5-9.7c0.7-0.8,1.5-1.5,2.3-2.1
			c1-0.8,2-1.6,2.5-2.6c0.1-0.1,0.1-0.2,0.2-0.4c0.2-0.4,0.4-0.8,0.7-1.1c0.4-0.4,1-0.6,1.6-0.5c0.8,0.1,1.7,0.6,2.2,1.3
			c0.6,0.9,0.8,1.9,0.6,2.8c-0.3,1.1-1.3,1.8-2.3,1.8c-0.1,0-0.3,0-0.4,0c-0.3,0-0.5-0.1-0.6,0c-0.1,0.1-0.3,0.3-0.4,0.5
			c-0.2,0.4-0.4,0.8-0.7,1.2c-1,1.8-1.8,3-1.4,5.1c0.4,2.2,0.7,4.4,1.7,6.4c1.1,2.1,2.9,3.6,4.8,3.9c0.2,0,0.3,0,0.5,0.1
			c0.4,0,0.9,0.1,1.3,0.3c0.5,0.2,0.9,0.7,1.1,1.2c0.1,0.4,0,0.8-0.2,1.1c-0.2,0.3-0.5,0.5-0.9,0.6c-0.7,0.2-1.4-0.1-2-0.3l-0.1,0
			c-1.6-0.6-3.2-0.9-4.9-1c-0.2,0-0.4,0-0.5,0.1c-0.1,0.1-0.2,0.3-0.2,0.6c-1,8.7-0.5,17.5,1.5,26c0.5,2.3,1.2,4.8,3,6.7l0.2,0.2
			c0.4,0.4,0.8,0.8,1,1.5c0.1,0.4,0,0.9-0.2,1.2c-0.4,0.5-1,0.6-1.7,0.4c-1.9-0.6-3.2-2.1-3.9-3.3c-0.6-1-1.1-2.2-1.5-3.2
			c-0.2-0.4-0.3-0.8-0.5-1.2l-0.1-0.2c-0.4-1-0.9-2.2-1.8-2.5c-1-0.3-2.1,0.1-3.1,0.5l-0.1,0c-1.3,0.5-2.3,0.9-3.1,1.7
			c-1.3,1.2-1.7,3.1-2,5c-0.2,1-0.3,1.9-0.6,2.7l-0.1,0.2C114.7,98.6,114.3,99.7,113.1,99.7z M112.7,96.3c-0.3,0.5-0.4,1.1-0.4,2
			c0,0.3,0.3,0.6,0.7,0.6l0.1,0c0.6,0,0.8-0.5,1.1-1.5l0.1-0.2c0.3-0.8,0.4-1.7,0.6-2.6c0.4-2,0.7-4.1,2.2-5.5
			c1-0.8,2.2-1.4,3.3-1.8l0.1,0c1.1-0.4,2.4-0.9,3.6-0.5c1.2,0.4,1.8,1.9,2.3,2.9l0.1,0.2c0.2,0.4,0.3,0.8,0.5,1.2
			c0.4,1.1,0.8,2.1,1.4,3.1c0.7,1.1,1.8,2.5,3.5,2.9c0.6,0.2,0.8,0,0.9-0.1c0.1-0.1,0.1-0.4,0.1-0.6c-0.1-0.4-0.4-0.8-0.8-1.1
			l-0.2-0.2c-1.8-1.9-2.6-4.5-3.2-7c-2-8.6-2.5-17.5-1.5-26.3c0-0.3,0.1-0.8,0.5-1.1c0.3-0.3,0.8-0.2,1-0.2c1.7,0.1,3.4,0.5,5,1.1
			l0.1,0c0.6,0.2,1.1,0.4,1.6,0.2c0.2-0.1,0.4-0.2,0.5-0.3c0.1-0.2,0.1-0.3,0.1-0.5c-0.1-0.3-0.3-0.5-0.6-0.7
			c-0.3-0.1-0.7-0.2-1.1-0.2c-0.2,0-0.3,0-0.5-0.1c-2.1-0.3-4.1-1.9-5.3-4.3c-1.1-2.1-1.4-4.4-1.8-6.6c-0.4-2.3,0.5-3.9,1.5-5.6
			c0.2-0.4,0.4-0.7,0.7-1.1c0.2-0.3,0.3-0.6,0.7-0.8c0.4-0.2,0.7-0.1,1.1-0.1c0.1,0,0.2,0,0.3,0c0.7,0,1.3-0.5,1.5-1.2
			c0.2-0.7,0-1.5-0.5-2.2c-0.4-0.5-1-0.9-1.7-1c-0.3,0-0.7,0-1,0.3c-0.2,0.2-0.4,0.5-0.5,0.9c-0.1,0.1-0.1,0.3-0.2,0.4
			c-0.6,1.1-1.6,2-2.7,2.8c-0.8,0.6-1.6,1.3-2.2,2c-1.9,2.3-3.5,5.4-4.8,9.5c-1.4,4.3-2.8,8.4-3.6,13.3c-1.2,7.6-1.6,15.5-1.9,21.3
			C113.3,93.1,113.2,95.6,112.7,96.3L112.7,96.3z"/>
	</g>
	<g class="st1">
		
			<rect x="202.5" y="-18.7" transform="matrix(-1 -4.496859e-11 4.496859e-11 -1 442.2977 -16.6393)" class="st20" width="37.2" height="20.8"/>
		<path class="st8" d="M202.5,2.9h18.2v22.4l1.2,0.9V2.9h18.3V-20h-37.6V2.9z M203.8-18.7h35.1V1.6h-35.1V-18.7z"/>
	</g>
	<polygon class="st15" points="235.6,-9 229,-2.3 228.9,-6.2 207.5,-6.1 207.4,-11.4 228.9,-11.5 228.9,-15.6 	"/>
</g>
<g id="Layer_4" class="st0">
	<g class="st1">
		<g>
			<path class="st7" d="M69.7,56.4c0,0.6-0.1,9-0.1,9.6c0,1.3,0.1,2.5,0.2,3.8c0.6,5.6,1.4,11.2,2.7,16.7c1.4,5.6,3.6,10.5,6,15.7
				c0.6,1.3,1.3,2.9,0.6,4.3c-0.6,1.2-2.1,1.8-3.5,1.6s-2.3-1.1-2.9-2.3c-2.4-4.3-4.5-8.7-7.7-12.4c-3.6-4.2-9.7-5.1-14.6-2.8
				c-4.9,2.3-6.3,7.9-8.6,12.4c-1.9,3.8-7.7,3.1-6.4-0.7c0.6-1.6,3.6-9.2,4.8-12.4c3.7-10.3,5.6-44.1,7.8-49.6
				c2.2-5.5,5.7-10.3,7.4-16.1c0.6-2.1,0.6-4.4,1.6-6.3c0.8-1.8,2.8-3.2,4.8-3c3.3,0.4,5,4.9,4.3,7.7c-0.2,0.9-0.6,1.8-0.9,2.8
				c-0.8,3.1,0.5,6.3,1.7,9.1c1.1,2.4,3.1,4.4,3.7,7c0.9,3.7,2.4,9,3.7,12.6c0.6,1.8,1.4,3.6,2.2,5.3c0.5,1.1,2.5,3.6,2,4.8
				c-0.2,0.5-0.8,0.8-1.3,0.9c-1.9,0.2-3.2-1.3-4.1-2.8c-3.2-5.5-7.1-11-8.1-18.3"/>
			<path class="st10" d="M75.7,109c-1.5-0.2-2.7-1.1-3.6-2.7c-0.5-0.9-0.9-1.7-1.4-2.6c-1.8-3.3-3.7-6.8-6.1-9.7
				c-3.1-3.7-8.8-4.8-13.5-2.6c-3.6,1.7-5.2,5.5-6.8,9.1c-0.4,1-0.9,1.9-1.3,2.9c-1.3,2.7-4.4,3.6-6.4,2.7c-1.6-0.7-2.2-2.3-1.6-4.1
				c0.3-0.7,1-2.6,1.9-4.8c1.1-2.7,2.3-5.8,2.9-7.6c2.1-5.6,3.5-18.6,4.9-30.1c1.1-9.1,2-17.1,3-19.6c0.9-2.3,2.1-4.6,3.3-6.8
				c1.6-2.9,3.2-6,4.1-9.2c0.2-0.8,0.4-1.6,0.5-2.4c0.2-1.4,0.5-2.8,1.1-4.1c0.9-2,3.2-3.8,5.7-3.5c1.5,0.2,2.7,1,3.7,2.4
				c1.3,1.8,1.8,4.4,1.4,6.4c-0.1,0.6-0.3,1.1-0.5,1.6c-0.1,0.4-0.3,0.8-0.4,1.2c-0.7,2.8,0.4,5.6,1.7,8.5c0.4,0.9,0.9,1.8,1.5,2.7
				c0.9,1.4,1.8,2.8,2.2,4.5c0.8,3.6,2.4,8.8,3.6,12.5c0.6,1.7,1.3,3.4,2.2,5.2c0.1,0.3,0.3,0.6,0.6,1c0.9,1.4,2,3.2,1.4,4.6
				c-0.3,0.8-1.1,1.3-2,1.5c-1.3,0.2-3.2-0.3-5-3.3c-0.5-0.9-1.1-1.8-1.6-2.8c-0.1-0.2-0.2-0.4-0.3-0.6c0,2.7,0,6.1,0,6.5
				c0,1.2,0.1,2.4,0.2,3.7c0.6,6.2,1.5,11.6,2.7,16.5c1.4,5.5,3.6,10.5,5.9,15.5c0.7,1.5,1.4,3.3,0.6,5c-0.6,1.3-1.9,2.1-3.5,2.2
				C76.3,109,76,109,75.7,109z M64.4,44.1c-0.1-0.5,0.3-0.9,0.8-1c0.5-0.1,0.9,0.3,1,0.8c0.8,5.9,3.6,10.6,6.3,15.2
				c0.6,0.9,1.1,1.9,1.6,2.8c0.7,1.2,1.8,2.6,3.2,2.4c0.3,0,0.5-0.2,0.6-0.3c0.2-0.5-0.8-2.3-1.3-3c-0.3-0.4-0.5-0.8-0.7-1.1
				c-0.9-1.8-1.6-3.6-2.2-5.4c-1.3-3.7-2.8-9-3.7-12.7c-0.3-1.4-1.1-2.6-2-4c-0.6-0.9-1.2-1.9-1.7-2.9c-1.4-3.1-2.6-6.4-1.8-9.7
				c0.1-0.5,0.3-0.9,0.4-1.4c0.2-0.5,0.3-0.9,0.4-1.4c0.3-1.5-0.1-3.5-1.1-4.9c-0.5-0.7-1.3-1.5-2.5-1.7c-1.6-0.2-3.2,1.1-3.8,2.5
				c-0.5,1.1-0.7,2.3-1,3.6c-0.1,0.9-0.3,1.7-0.6,2.6c-1,3.4-2.6,6.5-4.2,9.6c-1.1,2.1-2.3,4.3-3.2,6.6c-0.9,2.3-1.9,10.5-2.9,19.2
				c-1.3,11.5-2.8,24.6-4.9,30.5c-0.6,1.8-1.9,4.9-2.9,7.6c-0.9,2.2-1.6,4-1.8,4.7c-0.3,0.9-0.1,1.5,0.6,1.8
				c1.1,0.5,3.2,0.1,4.1-1.9c0.4-0.9,0.9-1.9,1.3-2.8c1.7-4,3.5-8.1,7.7-10c5.4-2.5,12-1.2,15.6,3.1c2.6,3,4.5,6.6,6.4,10
				c0.5,0.9,0.9,1.7,1.4,2.5c0.6,1.1,1.3,1.7,2.3,1.8c1.1,0.2,2.1-0.3,2.5-1.1c0.5-1-0.1-2.3-0.6-3.5c-2.4-5.1-4.6-10.2-6-15.9
				c-1.2-5-2.1-10.5-2.8-16.8c-0.1-1.3-0.2-2.6-0.3-3.8c0-0.7,0-8.7,0.1-9.7C66.8,52.8,65,48.8,64.4,44.1z"/>
		</g>
		<g>
			<path class="st7" d="M49.1,38.7c-2.8,13.9,6.5,19.6,21.1,25.2c0.6,0.2,1.1,0.5,1.8,0.5c1,0,1.9-0.6,2.2-1.5
				c0.4-0.9,0.1-2-0.5-2.6c-0.7-0.7-1.8-0.8-2.8-1.1C59.6,54.9,54.9,47.8,56.3,44"/>
			<path class="st10" d="M72.1,65.3c1.2-0.1,2.4-0.9,2.8-2c0.5-1.2,0.2-2.7-0.8-3.6c-0.7-0.6-1.5-0.9-2.3-1.1
				c-0.3-0.1-0.6-0.1-0.8-0.3c-10.9-4.1-15.1-10.8-14-14c0.2-0.5-0.1-1-0.5-1.2c-0.5-0.2-1,0.1-1.2,0.5c-1.6,4.5,3.7,12,15.1,16.3
				c0.3,0.1,0.7,0.2,1,0.3c0.6,0.2,1.1,0.3,1.5,0.6c0.4,0.4,0.6,1.1,0.3,1.6c-0.2,0.5-0.8,0.9-1.4,0.9c-0.4,0-0.7-0.2-1.2-0.3
				L70.5,63C55.2,57.2,47.4,51.6,50,38.9c0.1-0.5-0.2-1-0.7-1.1c-0.5-0.1-1,0.2-1.1,0.7c-3.1,15.4,8.5,21.2,21.6,26.2l0.3,0.1
				c0.5,0.2,1.1,0.4,1.8,0.5C72,65.3,72.1,65.3,72.1,65.3z"/>
		</g>
	</g>
	<path class="st22" d="M64.8,50.2c-0.9,1.5-0.9,3.4-0.1,4.9c0.8,1.5,2.5,2.5,4.2,2.6c0.6,0,1.3-0.1,1.7-0.6c0.3-0.4,0.4-0.8,0.5-1.3
		c0.4-2.6,0.7-5.2,0.7-7.8c-1.2-0.3-2.5,0.4-3.3,1.5c-0.7,1-1,2.3-1.3,3.5c-0.3,1.3-0.5,2.8,0.3,3.8c0.9,1,2.6,1.1,3.7,0.3
		c2.1-1.4,2.2-4.7,0.8-6.8c-1.4-2.1-3.8-3.3-6.2-4.2c-1.4-0.5-2.9-1-4.4-0.9c-1.5,0.1-3,1-3.5,2.4c-0.7,1.9,0.7,3.9,2.1,5.4
		c1.4,1.5,2.8,3.1,4.8,3.8c1.9,0.7,4.5,0.2,5.4-1.6c0.6-1,0.5-2.3,0.5-3.5c-0.1-1.6-0.2-3.3-0.2-4.9c0-1-0.3-2.2-1.2-2.6
		c-1.1-0.4-2,0.7-2.5,1.7c-1.8,3.4-2.1,7.4-2.4,11.2c-0.1,1.1-0.1,2.3,0.7,3c1.3,1.1,3.2-0.4,4.2-1.7c2.3-3,4.5-6.1,6.6-9.3
		c0.6-0.9,1.2-2.3,0.4-3c-0.3-0.3-0.7-0.4-1.2-0.5c-4.8-1-9.7-1.2-14.5-0.7c-0.8,0.1-1.6,0.2-2.2,0.8c-0.8,0.8-0.7,2.1-0.1,3
		s1.6,1.5,2.5,2.1c4.9,2.9,10.1,5.8,15.7,5.6c0.5,0,1.1-0.1,1.5-0.4c0.4-0.4,0.5-1,0.6-1.5c0.3-1.8,0.4-3.6,0.4-5.4
		c0-1.5-0.1-3.1-0.7-4.5c-1.4-3.5-5.9-5.2-9.4-4c-3.5,1.3-5.8,5.1-5.6,8.9c0.2,3.7,2.8,7.2,6.2,8.8c0.7,0.3,1.5,0.6,2.3,0.4
		c1.6-0.4,1.9-2.6,1.8-4.3c-0.2-3.5-0.7-7.1-2.6-10c-1.9-2.9-5.6-4.9-8.9-3.9c-2.2,0.7-3.9,2.7-4.7,4.8c-0.7,1.8-1,3.7-1.1,5.5
		c-0.1,1.7-0.3,3.5,0.6,5c0.6,1.1,1.6,1.8,2.7,2.4c4.2,2.6,9,4.2,13.9,5c2.3,0.3,4.6,0.5,6.8-0.1s4.3-2.1,5.2-4.2
		c0.5-1.1,0.6-2.4,0.2-3.5c-0.5-1.7-1.9-2.9-3.3-3.9c-3.1-2.1-6.7-3.7-10.4-3.6c-1.3,0-2.8,0.4-3.4,1.6c-0.3,0.7-0.3,1.5-0.2,2.2
		c0.3,2.3,0.9,4.5,1.9,6.6c0.7,1.4,1.6,2.7,2.9,3.4s3.1,0.7,4.2-0.4c0.7-0.7,1-1.8,1.1-2.8c0.3-2.3,0.1-4.7-0.8-6.8
		c-0.9-2.1-2.6-4-4.8-4.9c-2.1-0.9-4.8-0.7-6.7,0.6c-2.3,1.6-3.3,4.6-3.2,7.3c0,2.2,0.6,4.3,1.2,6.4c0.5,1.9,1,3.9,2.4,5.3
		c1.2,1.3,3.4,1.8,4.7,0.7c1-0.8,1.3-2.1,1.5-3.4c0.4-2.2,0.8-4.3,1.1-6.5c0.1-0.4,0.1-0.9-0.1-1.3c-0.2-0.4-0.6-0.6-1-0.8
		c-2.5-1.2-5.1-2.4-7.9-2.2c-0.2,0.4-0.1,0.9,0.1,1.3c4.7,0.6,9.7-0.6,13.5-3.5c2.8-2.1,12.2-13.2,4.3-14c-2.8-0.3-6.7-0.5-8.9,1.6
		c-1.5,1.5-1.7,4-0.9,6s2.2,3.7,3.7,5.3c0.7,0.8,1.7,1.7,2.8,1.4"/>
	<path class="st22" d="M73.7,63.5c4.7,0.4,10.1,1.8,12,6.2c1.3,3,0.5,6.6,2,9.5c2.9,5.2,11.2,4.1,15.3,8.4c2.1,2.2,2.7,5.4,4.9,7.5
		c2.5,2.4,6.3,2.5,9.8,2.5c33.4,0.1,67.3,1.7,100.5,0.4c51.5-2,102.2,4.1,153.6,6.3c40.5,1.7,81.1,0.2,121.6-0.8
		c20.3-0.5,40.5-1,60.8-0.9c18.3,0.1,68.1,0.5,86.1,3"/>
</g>
<g id="Layer_3" class="st0">
	<g class="st1">
		<g>
			<path class="st21" d="M49.8,52.3c0.1-0.2-0.8,21-0.8,21c6.2-0.8,5.1-28.4,1.2-31.1c-2.7-1.8-3.5-2.4-4.9-5.4
				c-1.9-4,2.3-4.8,1.8-8.9c-0.1-0.9-1-3.2-1.6-3.9c-1.1-1.4-3.4-1.6-5-0.8c-1.6,0.8-4.4,4.5-2.4,8c0.8,1.5,2.1,3,2.1,4.8
				c0,2.5-6.9,5.8-8.9,11.6c-0.8,2.3-3.6,18.3,0.3,25.2c1.2,2.2,1.6-2.3,1.3-4c0.6-5.7,0.4-3.4,2.2-15.4c0,0-2.5,16.3-2.7,31.1
				c0,2.1,0.2,7.9,0.4,9.3c0,0,0.4,10.5,3.1,10.5s3.5-1.6,3.5-3.9s0.4-8.5,0.4-8.5c-0.2,0.2,0.2,2.6,0.2,3c0.1,1.1,0.2,2.3,0.2,3.4
				c0.1,1.4-0.8,6.1,2,6.1c3.1,0,3.7-2.9,4-5.1c0.2-1.7,1.1-12.9,1.7-16.8c1.3-7.3,1-14.5,1.3-21.9C49.1,57.9,49.1,54.9,49.8,52.3z"
				/>
			<path class="st10" d="M42,105c-0.7,0-1.3-0.2-1.7-0.7c-0.4-0.4-0.6-0.9-0.7-1.4c-0.6,1.4-1.8,2.1-3.7,2.1
				c-3.1,0-3.7-8.5-3.8-11.1c-0.2-1.5-0.4-7.3-0.4-9.4c0.1-3.4,0.2-7,0.5-10.4c0,0,0,0,0,0c-0.3,0-0.8-0.2-1.2-0.9
				c-4-7.3-1.1-23.4-0.3-25.8c1.1-3.4,3.8-6,6-8c1.4-1.3,2.8-2.6,2.8-3.4c0-1.2-0.7-2.3-1.4-3.4c-0.2-0.4-0.5-0.7-0.7-1.1
				c-0.8-1.5-1-3.1-0.4-4.8c0.6-2,2.1-3.6,3.2-4.2c1.8-0.9,4.5-0.8,5.9,1c0.6,0.8,1.6,3.2,1.7,4.2c0.3,2.1-0.6,3.5-1.3,4.6
				c-0.8,1.3-1.4,2.2-0.5,4.1c1.4,2.8,2,3.4,4.7,5.2c3.4,2.3,4.5,18.5,2.5,26.6c-0.8,3.4-2.1,5.3-3.8,5.6c-0.1,2.9-0.4,5.8-0.9,8.8
				c-0.4,2.5-0.9,8.2-1.3,12.3c-0.2,2.1-0.3,3.8-0.4,4.4C46.5,101.2,45.9,105,42,105C42.1,105,42,105,42,105z M40.3,92.8
				c0,0.5,0.1,1.2,0.2,1.5c0,0.3,0.1,0.5,0.1,0.5l0,0.4c0.1,1,0.1,2,0.2,3.1c0,0.3,0,0.6,0,1.1c-0.1,1.2-0.2,3.3,0.5,4
				c0.2,0.2,0.4,0.3,0.8,0.3c2.3,0,3-1.7,3.3-4.5c0.1-0.6,0.2-2.2,0.4-4.4c0.4-4.2,0.9-9.9,1.3-12.4c0.9-5.4,1-10.7,1.1-16.2
				c0-1.9,0.1-3.7,0.1-5.6c0-0.4,0-0.9,0-1.4c0.1-2.4,0.1-4.8,0.8-7.1c0.1-0.3,0.4-0.5,0.7-0.5c0.3,0.1,0.5,0.1,0.5,0.8l0,0
				c0,0,0,0,0,0c0,0.6,0,1.5-0.1,3.1c-0.1,2-0.2,4.6-0.3,7.2c-0.1,3.8-0.3,7.7-0.4,9.5c0.8-0.6,1.6-2.1,2.1-4.3
				c2-8.5,0.4-23.6-2-25.2c-2.8-1.9-3.7-2.6-5.2-5.7c-1.2-2.5-0.2-4,0.6-5.4c0.7-1.1,1.3-2.1,1.1-3.8c-0.1-0.8-1-3-1.4-3.6
				c-0.9-1.2-2.9-1.2-4.2-0.6c-0.7,0.3-2,1.7-2.5,3.4c-0.4,1.3-0.3,2.6,0.3,3.7c0.2,0.3,0.4,0.7,0.6,1c0.7,1.2,1.6,2.5,1.6,4.1
				c0,1.4-1.4,2.7-3.2,4.4c-2.1,1.9-4.6,4.3-5.7,7.4c-0.7,2.2-3.5,17.7,0.1,24.6c0.2-0.8,0.3-2.4,0.1-3.4c0-0.1,0-0.1,0-0.2
				c0.4-3.4,0.5-4,0.8-6.4c0.2-1.5,0.6-3.8,1.2-8.1c0.1-0.6,0.1-1,0.1-1c0.1-0.4,0.4-0.6,0.8-0.6c0.4,0.1,0.6,0.4,0.6,0.8
				c0,0.3-0.1,0.7-0.1,1c-0.5,3.7-2.4,17.5-2.6,30c0,2,0.2,7.8,0.4,9.2c0.2,4.7,1.2,9.9,2.4,9.9c2,0,2.8-0.9,2.8-3.2
				c0-1.8,0.2-5.8,0.3-7.7c-0.1-0.9,0-1.2,0.3-1.4c0.2-0.1,0.5-0.2,0.7,0c0.2,0.1,0.3,0.4,0.3,0.6C40.4,91.9,40.4,92.3,40.3,92.8z"
				/>
		</g>
		<path class="st10" d="M51,52.3c-4.3,0-8.7-0.9-12.8-1.8c-2.6-0.6-4.9-1.1-7.1-2.2c-0.6-0.3-1.4-0.8-1.5-1.7
			c-0.2-1,0.6-1.8,1.4-2.1l0.2-0.1c0.5-0.2,0.6-0.2,1-0.1l0.1,0c0.3,0,0.5,0.3,0.5,0.6c0,0.3-0.3,0.5-0.6,0.5l-0.1,0
			c-0.3,0-0.3,0-0.5,0l-0.2,0.1c-0.4,0.1-0.7,0.5-0.7,0.9c0.1,0.3,0.4,0.6,0.9,0.9c2.1,1,4.3,1.6,6.8,2.1c4.7,1.1,9.8,2.1,14.7,1.7
			c0.7-0.1,1.1-0.2,1.4-0.4c-0.6-0.4-1.2-0.6-1.9-0.6c-0.3,0-0.5-0.3-0.5-0.6c0-0.3,0.3-0.5,0.6-0.5c1.1,0.1,2.1,0.5,2.9,1.2
			c0.2,0.2,0.2,0.4,0.2,0.6c-0.5,1.3-2.1,1.4-2.6,1.4C52.6,52.3,51.8,52.3,51,52.3z"/>
		<path class="st10" d="M41.5,55.9c-2.4,0-4.7-0.1-7.1-0.4c-1.4-0.2-2.9-0.4-4.3-1c-0.4-0.2-0.9-0.4-1.1-0.9
			c-0.2-0.4-0.2-0.8-0.2-1.2c0.2-2.2,1-4.3,2.3-6c0.2-0.2,0.5-0.3,0.8-0.1c0.2,0.2,0.3,0.5,0.1,0.8c-1.2,1.6-1.9,3.5-2,5.4
			c0,0.2,0,0.4,0.1,0.6c0.1,0.2,0.4,0.3,0.6,0.4c1.2,0.5,2.4,0.7,4,0.9c5.4,0.7,10.8,0.5,16.2-0.3c1.1-0.2,1.9-0.5,2.3-0.9l-0.2-0.1
			c-0.3-0.1-0.4-0.4-0.3-0.7c0.1-0.3,0.4-0.4,0.7-0.3l0.7,0.3c0.3,0.1,0.4,0.4,0.3,0.7c-0.5,1.5-2.2,1.9-3.4,2.1
			C47.8,55.6,44.6,55.9,41.5,55.9z"/>
		<path class="st10" d="M48.3,59.1c-6.4,0-12.8-0.9-19-2.7c-0.3-0.1-0.5-0.4-0.4-0.7c0.1-0.3,0.4-0.5,0.7-0.4c6.9,2,14,2.9,21.1,2.6
			c0.7,0,1.4-0.1,1.9-0.3c0.4-0.2,1-0.6,1.1-1.1c0-0.2,0-0.5-0.2-0.7c-0.1-0.1-0.2-0.2-0.4-0.3c-0.3,0-0.5-0.3-0.5-0.6
			c0-0.3,0.3-0.5,0.6-0.5c0.5,0,0.9,0.3,1.2,0.7c0.3,0.4,0.5,1,0.4,1.6c-0.1,0.8-0.8,1.6-1.7,1.9c-0.7,0.3-1.5,0.4-2.3,0.4
			C50,59.1,49.2,59.1,48.3,59.1z"/>
		<path class="st10" d="M44.3,63.8c-5.2,0-10.5-0.7-15.5-2.1c-0.1,0-0.4-0.1-0.6-0.3c-0.3-0.3-0.4-0.7-0.4-0.9
			c-0.1-0.4-0.1-0.9,0-1.4c0.2-0.6,0.7-1.1,1.4-1.1c0.3,0,0.5,0.3,0.5,0.6c0,0.3-0.3,0.5-0.6,0.5c-0.1,0-0.2,0.1-0.3,0.3
			c-0.1,0.3,0,0.6,0,0.9c0,0,0,0.2,0.1,0.2c0,0,0.1,0,0.1,0c7.2,2,14.9,2.5,22.3,1.6c0.7-0.1,1.3-0.2,1.7-0.5
			c0.3-0.2,0.6-0.5,0.6-0.9L53,60.7c-0.3-0.1-0.5-0.4-0.4-0.7c0.1-0.3,0.4-0.5,0.7-0.4l1.1,0.3c0.2,0.1,0.3,0.2,0.4,0.4
			c0.2,0.8-0.2,1.8-1,2.4c-0.7,0.4-1.4,0.6-2.2,0.7C49.2,63.7,46.7,63.8,44.3,63.8z"/>
		<path class="st10" d="M47.6,68.8c-0.1,0-0.3,0-0.4,0c-5.3-0.1-11.6-0.3-17.7-2c-0.3-0.1-1-0.3-1.3-0.9c-0.3-0.6,0.1-1.2,0.4-1.6
			c0.1-0.2,0.2-0.4,0.3-0.6c0.1-0.3,0.4-0.5,0.7-0.4c0.3,0.1,0.5,0.4,0.4,0.7c-0.1,0.3-0.3,0.6-0.4,0.9c-0.2,0.3-0.3,0.5-0.3,0.6
			c0.1,0.1,0.4,0.2,0.6,0.3c6,1.7,12.1,1.9,17.4,2c1.9,0,3.8-0.1,5.2-1.1c0.3-0.3,0.5-0.5,0.6-0.8c0-0.2-0.1-0.4-0.2-0.5
			c-0.3-0.1-0.5-0.4-0.4-0.7c0.1-0.3,0.4-0.5,0.7-0.4c0.7,0.2,1.1,1,1,1.7c-0.1,0.5-0.4,1-1,1.4C51.6,68.6,49.6,68.8,47.6,68.8z"/>
		<path class="st10" d="M28.8,69.7c-0.3,0-0.5-0.1-0.7-0.3c-0.2-0.2-0.3-0.5-0.2-0.9c0.1-0.8,0.9-1.4,1.8-1.4c0.3,0,0.5,0.3,0.5,0.6
			c0,0.3-0.3,0.5-0.6,0.5c-0.2,0-0.4,0.1-0.5,0.3c6.7-2.4,13.2-5.6,19.1-9.5c1.4-0.9,2.9-2,4.1-3.3c0.6-0.7,1.2-1.6,1.2-2.6l-0.1,0
			c-0.3-0.1-0.5-0.4-0.4-0.7c0.1-0.3,0.4-0.5,0.7-0.4l0.5,0.1c0.2,0,0.4,0.2,0.4,0.4c0.2,1.2-0.3,2.5-1.4,3.9
			c-1.3,1.5-2.9,2.6-4.3,3.5c-6.1,4-12.6,7.3-19.4,9.7C29.1,69.7,28.9,69.7,28.8,69.7z"/>
		<path class="st10" d="M32.2,82.1c-0.4,0-0.9-0.1-1.3-0.5c-0.2-0.3-0.3-0.7-0.3-1c0-1.2,0.4-2.5,1.2-3.4c0.2-0.2,0.5-0.2,0.8,0
			c0.2,0.2,0.2,0.5,0,0.8c-0.6,0.7-1,1.7-1,2.6c0,0.2,0,0.3,0.1,0.3c0,0,0.2,0.1,0.7,0.1c5.1-0.6,10.1-2.6,14.3-5.6
			c0.8-0.6,1.7-1.3,2.1-2.2l-0.5-0.1c-0.3,0-0.5-0.3-0.5-0.6c0-0.3,0.3-0.5,0.6-0.5l1.2,0.1c0.1,0,0.3,0.1,0.4,0.2
			c0.1,0.1,0.1,0.3,0.1,0.4c-0.3,1.6-1.6,2.7-2.7,3.5c-4.4,3.1-9.5,5.1-14.8,5.8C32.6,82.1,32.4,82.1,32.2,82.1z"/>
		<path class="st10" d="M37.4,97.7c-1.6,0-3.4,0-5.1-0.6c-0.7-0.2-1.1-0.6-1.2-1.1c-0.1-0.5,0.2-1,0.6-1.1c0.4-0.2,0.8,0,1,0.3
			c0.2,0.3,0.1,0.6-0.2,0.8c0,0-0.1,0.1-0.2,0.1c0.1,0,0.1,0.1,0.2,0.1c1.6,0.5,3.3,0.5,5,0.5c2.9,0,5.9,0,8.9-0.3
			c-0.1,0-0.1-0.1-0.2-0.1c-0.3,0-0.5-0.3-0.5-0.6c0-0.3,0.3-0.5,0.6-0.5c0.4,0.1,0.8,0.3,1,0.6c0.2,0.3,0.4,0.7,0.3,1.1
			c0,0.2-0.2,0.4-0.5,0.5c-3.2,0.3-6.5,0.3-9.7,0.3C37.6,97.7,37.5,97.7,37.4,97.7z M47.3,96.8L47.3,96.8L47.3,96.8z"/>
		<path class="st10" d="M45.5,102.4c-1,0-1.8-0.5-2.6-1c-3.3-2-6.5-4.2-9.7-6.5c-0.7-0.5-1.5-1.1-2-2c-0.2-0.4-0.3-0.8-0.2-1.1
			c0.1-0.3,0.3-0.5,0.5-0.7c0.2-0.1,0.5-0.2,0.8-0.1c0.3,0.1,0.4,0.4,0.3,0.7c-0.1,0.2-0.3,0.4-0.6,0.4c0,0,0,0.1,0.1,0.3
			c0.4,0.7,1.1,1.2,1.7,1.6c3.1,2.2,6.3,4.4,9.6,6.4c0.7,0.5,1.5,0.9,2.2,0.8c0,0,0,0,0,0l0-1.6c0-0.3,0.2-0.6,0.5-0.6c0,0,0,0,0,0
			c0.3,0,0.5,0.2,0.6,0.5l0,1.6c0,0.2,0,0.5-0.2,0.8c-0.3,0.3-0.6,0.3-0.8,0.3C45.7,102.4,45.6,102.4,45.5,102.4z M45.6,101.4
			L45.6,101.4L45.6,101.4z"/>
		<path class="st10" d="M31.9,99.7c-0.2,0-0.5-0.2-0.5-0.4c-0.1-0.5,0-1,0.4-1.4c0.4-0.4,0.9-0.5,1.4-0.3c0.3,0.1,0.4,0.4,0.3,0.7
			c0,0,0,0.1,0,0.1c4.3-0.5,9.2-1.4,12.8-4.3c0,0,0,0,0.1-0.1c-0.1,0-0.1,0-0.2-0.1c-0.3-0.2-0.3-0.5-0.1-0.8
			c0.2-0.3,0.6-0.4,0.9-0.3c0.4,0.1,0.7,0.5,0.7,0.9c0,0.6-0.5,1-0.7,1.1C42.7,98.5,36.7,99.2,31.9,99.7
			C31.9,99.7,31.9,99.7,31.9,99.7z"/>
		<path class="st10" d="M43.8,93.9c-0.3,0-0.7,0-1,0L32,93.3c-0.2,0-0.4-0.1-0.5-0.3c-0.1-0.4-0.1-0.8,0.1-1.1
			c0.2-0.4,0.6-0.6,0.9-0.6c0.3,0,0.6,0.2,0.6,0.5c0,0.2-0.1,0.5-0.3,0.6l10.1,0.5c0.8,0,1.8,0.1,2.6-0.2c0.5-0.2,1-0.6,1.1-1.1
			l-0.2,0c-0.3,0-0.5-0.3-0.5-0.6s0.3-0.5,0.6-0.5l0.8,0c0.3,0,0.5,0.2,0.5,0.5c0.1,1.3-0.9,2.3-1.9,2.7
			C45.2,93.8,44.5,93.9,43.8,93.9z"/>
		<path class="st10" d="M43.4,78.9c-3.1,0-6.5-0.4-10.2-1.2c-0.4-0.1-1-0.2-1.4-0.7c-0.3-0.3-0.3-0.8-0.1-1.2
			c0.1-0.3,0.4-0.6,0.8-0.6c0.3,0,0.6,0.2,0.6,0.5c0,0.3-0.1,0.5-0.4,0.6c0,0,0,0.1,0,0.1c0.1,0.2,0.4,0.2,0.7,0.3
			c5.6,1.2,10.3,1.4,14.6,0.8c0.1,0,0.2,0,0.2,0c-0.1,0-0.1-0.1-0.1-0.1c-0.2-0.2-0.1-0.6,0.1-0.8c0.3-0.2,0.7-0.2,1,0
			c0.3,0.3,0.5,0.8,0.3,1.2c-0.3,0.6-1,0.7-1.3,0.7C46.6,78.8,45,78.9,43.4,78.9z"/>
	</g>
	<g class="st1">
		<g>
			<path class="st23" d="M583.3,62.9c0,0.5-0.9,7.8-1,8.3c-0.2,1.1-0.4,2.2-0.6,3.2c-1.1,4.8-2.5,9.5-4.2,14
				c-1.8,4.6-4.2,8.7-6.9,12.8c-0.7,1.1-1.4,2.4-1,3.6c0.4,1.1,1.6,1.8,2.8,1.8c1.2,0,2.1-0.7,2.8-1.6c2.5-3.4,4.8-7,8-9.8
				c3.5-3.2,8.9-3.3,12.9-0.8c3.9,2.5,4.6,7.5,6,11.7c1.2,3.5,6.3,3.6,5.6,0.2c-0.3-1.4-2.1-8.3-2.7-11.2
				c-2.1-9.3,0.1-38.6-1.2-43.6c-1.3-5-3.8-9.5-4.6-14.7c-0.3-1.8-0.1-3.9-0.6-5.6c-0.5-1.6-2-3.1-3.8-3.1c-2.8,0-4.8,3.6-4.6,6.1
				c0.1,0.8,0.3,1.6,0.4,2.5c0.3,2.8-1.1,5.4-2.5,7.6c-1.2,2-3.1,3.5-4,5.6c-1.1,3.1-3.1,7.5-4.6,10.4c-0.7,1.5-1.6,2.9-2.5,4.3
				c-0.6,0.9-2.5,2.8-2.2,4c0.1,0.5,0.6,0.8,1,0.9c1.6,0.4,2.9-0.8,3.8-2c3.3-4.4,7.3-8.7,9-14.9"/>
			<path class="st10" d="M571.4,107.4c-1.3-0.3-2.4-1.1-2.7-2.3c-0.5-1.5,0.3-3,1.1-4.2c2.6-4.1,5-8.1,6.8-12.7
				c1.6-4.1,3-8.7,4.2-13.9c0.3-1.1,0.5-2.1,0.6-3.2c0.1-0.4,0.4-3.4,0.7-5.6c-0.1,0.1-0.2,0.3-0.3,0.4c-0.6,0.7-1.2,1.5-1.7,2.2
				c-1.8,2.4-3.5,2.5-4.6,2.2c-0.8-0.2-1.4-0.8-1.6-1.5c-0.3-1.3,0.8-2.7,1.7-3.8c0.2-0.3,0.5-0.6,0.6-0.8c0.9-1.4,1.7-2.8,2.4-4.2
				c1.5-3,3.4-7.4,4.5-10.3c0.5-1.4,1.5-2.6,2.4-3.6c0.6-0.7,1.2-1.4,1.6-2.1c1.4-2.4,2.7-4.7,2.4-7.1c0-0.4-0.1-0.7-0.2-1.1
				c-0.1-0.5-0.2-0.9-0.2-1.4c-0.2-1.8,0.6-3.9,1.9-5.3c1-1.1,2.2-1.7,3.5-1.7c2.2,0,4,1.8,4.5,3.7c0.4,1.2,0.4,2.4,0.5,3.6
				c0,0.7,0.1,1.5,0.2,2.1c0.4,2.9,1.5,5.7,2.5,8.4c0.7,2,1.5,4.1,2,6.2c0.6,2.3,0.5,9.2,0.4,17.2c-0.2,10-0.3,21.3,0.8,26.4
				c0.4,1.6,1.1,4.4,1.7,6.9c0.5,2,0.9,3.7,1.1,4.3c0.3,1.6-0.4,2.9-1.8,3.3c-1.8,0.5-4.4-0.6-5.2-3.1c-0.3-0.8-0.5-1.7-0.8-2.6
				c-1-3.3-2-6.8-4.9-8.6c-3.8-2.4-8.8-2.1-11.9,0.7c-2.4,2.2-4.4,5-6.4,7.6c-0.5,0.7-1,1.4-1.5,2.1c-0.9,1.3-2.1,1.9-3.4,1.9
				C572,107.5,571.7,107.5,571.4,107.4z M584,63c-0.1,0.8-0.9,7.8-1,8.3c-0.2,1-0.4,2.1-0.6,3.3c-1.2,5.3-2.6,10-4.3,14.1
				c-1.8,4.7-4.3,8.8-7,13c-0.6,0.9-1.2,2-0.9,2.9c0.2,0.7,1.1,1.3,2,1.2c0.8,0,1.5-0.4,2.2-1.3c0.5-0.7,1-1.4,1.5-2
				c2-2.7,4-5.6,6.6-7.9c3.6-3.3,9.4-3.7,13.8-0.9c3.4,2.1,4.5,5.9,5.5,9.5c0.3,0.9,0.5,1.7,0.8,2.6c0.6,1.8,2.3,2.3,3.3,2.1
				c0.7-0.2,0.9-0.7,0.7-1.5c-0.1-0.6-0.6-2.3-1-4.3c-0.6-2.5-1.3-5.3-1.7-6.9c-1.2-5.3-1-16.7-0.8-26.8c0.1-7.6,0.2-14.7-0.3-16.8
				c-0.5-2-1.3-4.1-2-6c-1-2.8-2.1-5.7-2.6-8.7c-0.1-0.8-0.2-1.5-0.2-2.3c-0.1-1.2-0.1-2.2-0.4-3.2c-0.4-1.2-1.6-2.6-3-2.6
				c-1,0-1.8,0.6-2.3,1.2c-1,1.1-1.6,2.8-1.5,4.1c0,0.4,0.1,0.8,0.2,1.2c0.1,0.4,0.2,0.8,0.2,1.2c0.4,3-1.1,5.7-2.6,8.1
				c-0.5,0.8-1.1,1.6-1.8,2.3c-0.9,1-1.7,2-2.1,3.2c-1.1,3-3.1,7.4-4.6,10.5c-0.7,1.4-1.6,2.9-2.5,4.4c-0.2,0.2-0.4,0.6-0.7,0.9
				c-0.5,0.6-1.6,1.9-1.4,2.4c0,0.1,0.2,0.3,0.5,0.4c1.2,0.3,2.3-0.7,3-1.7c0.6-0.7,1.1-1.5,1.7-2.2c2.9-3.6,5.8-7.4,7.2-12.4
				c0.1-0.4,0.5-0.7,1-0.6c0.4,0.1,0.7,0.5,0.6,1C588.2,56.9,586.2,60.1,584,63z"/>
		</g>
		<g>
			<path class="st23" d="M603,50c0.9,12.3-7.8,16.2-21,19.3c-0.5,0.1-1,0.3-1.6,0.2c-0.8-0.1-1.6-0.7-1.8-1.5
				c-0.2-0.8,0.1-1.7,0.8-2.2c0.7-0.5,1.7-0.4,2.5-0.6c10.1-2.4,14.9-8,14.2-11.4"/>
			<path class="st10" d="M580.2,70.3c-1-0.2-1.9-1-2.2-2.1c-0.3-1.1,0.1-2.3,1.1-3c0.6-0.5,1.4-0.6,2.1-0.7c0.3,0,0.5-0.1,0.8-0.1
				c9.8-2.3,14.2-7.6,13.6-10.4c-0.1-0.4,0.2-0.8,0.6-0.9c0.4-0.1,0.8,0.2,0.9,0.6c0.9,4-4.5,9.9-14.8,12.3
				c-0.3,0.1-0.6,0.1-0.9,0.2c-0.5,0.1-1,0.1-1.3,0.4c-0.4,0.3-0.6,0.9-0.5,1.4c0.1,0.5,0.6,0.9,1.1,0.9c0.3,0,0.7-0.1,1-0.2
				l0.3-0.1c13.8-3.3,21.1-7.2,20.4-18.5c0-0.4,0.3-0.8,0.7-0.8c0.4,0,0.8,0.3,0.8,0.7c1,13.6-9.7,17.3-21.6,20.1l-0.2,0.1
				c-0.5,0.1-1,0.3-1.6,0.2C580.3,70.3,580.3,70.3,580.2,70.3z"/>
		</g>
	</g>
	<line class="st22" x1="41.3" y1="63.8" x2="579" y2="68"/>
</g>
<g id="Layer_5" class="st0">
	<g class="st1">
		<g>
			<path class="st24" d="M594.5,21.3c0.4-1,0.8-2,1.5-2.8c1.1-1,2.9-1.2,4.1-0.4s1.9,2.4,1.5,3.9c-0.3,1-1,1.8-1.6,2.7
				c-1.2,1.9-1.6,4.1-1.5,6.2c0.2,4.3,1,8.6,1.3,13c0.3,4.6,0.4,9.2,0.9,13.8c0.4,4.6,1.2,9.2,2.8,13.6c1.6,4.4,4.3,8.4,5.9,12.8
				c0.9,2.5,1.6,5.3,1.3,7.9c-0.3,2.8-1.8,5.2-3.1,7.6c-1.4,2.7-2.5,5.7-4.4,8.1c-0.7,0.9-1.8,1.7-3,1.6c-0.9-0.1-1.8-0.7-2.3-1.4
				c-2.9-4,2.1-8.1,3.2-11.8c2.2-7.1-17.3,0.2-22.1,1.8c-4.3,1.4-7.3,3.9-10.1,7.5c-0.9,1.1-1.8,2.4-3,3c-1.3,0.7-3.1,0.6-3.9-0.6
				c-0.5-0.7-0.6-1.7-0.4-2.5c0.5-2.9,2.6-5.2,4.4-7.4c9.5-11.7,13.3-26.4,16.3-40.9C585.1,44.7,590.1,33.1,594.5,21.3z"/>
			<path class="st10" d="M600.6,110c-0.1,0-0.1,0-0.2,0c-1-0.1-2-0.7-2.8-1.7c-2.3-3.1-0.3-6.2,1.4-8.9c0.7-1.2,1.4-2.3,1.8-3.4
				c0.4-1.1,0-1.5-0.2-1.6c-2.3-2.3-15.5,2.2-19.8,3.7c-0.5,0.2-1,0.4-1.4,0.5c-3.9,1.3-6.9,3.5-9.8,7.3l-0.2,0.2
				c-0.9,1.1-1.8,2.3-3.1,3c-1.5,0.8-3.7,0.7-4.7-0.8c-0.5-0.7-0.7-1.8-0.5-3c0.4-2.7,2.2-4.9,4-7l0.6-0.7
				c9.6-11.8,13.4-27.2,16.2-40.6c2-9.9,5.7-19.5,9.3-28.7c0.9-2.4,1.8-4.8,2.7-7.2l0,0c0.4-1,0.8-2.1,1.7-3
				c1.3-1.2,3.4-1.4,4.9-0.5c1.5,0.9,2.3,2.9,1.8,4.6c-0.2,0.8-0.7,1.5-1.2,2.2c-0.2,0.2-0.3,0.5-0.5,0.7c-1,1.6-1.5,3.7-1.4,5.9
				c0.1,2.4,0.4,4.8,0.7,7.1c0.2,1.9,0.5,3.9,0.6,5.9c0.1,1.9,0.2,3.9,0.3,5.7c0.1,2.6,0.3,5.4,0.5,8c0.5,5.4,1.4,9.7,2.8,13.4
				c0.8,2.2,1.9,4.2,2.9,6.3c1.1,2.1,2.2,4.2,3,6.5c1.2,3.1,1.6,5.8,1.3,8.2c-0.3,2.6-1.5,4.9-2.7,7l-0.4,0.8
				c-0.5,0.9-0.9,1.8-1.3,2.7c-0.9,1.9-1.8,3.8-3.1,5.5C602.9,109.3,601.7,110,600.6,110z M598,92.6c1.5,0,2.7,0.3,3.4,0.9
				c0.5,0.5,0.9,1.3,0.5,2.9c-0.4,1.2-1.1,2.4-1.9,3.7c-1.6,2.7-3.2,5.2-1.4,7.6c0.5,0.7,1.2,1.1,1.9,1.2c0.8,0.1,1.7-0.5,2.5-1.4
				c1.2-1.6,2.1-3.4,2.9-5.3c0.4-0.9,0.9-1.9,1.4-2.8l0.4-0.8c1.2-2.2,2.3-4.2,2.6-6.6c0.3-2.2-0.1-4.7-1.2-7.7
				c-0.8-2.2-1.9-4.3-2.9-6.4c-1-2.1-2.1-4.2-3-6.4c-1.4-3.9-2.4-8.2-2.9-13.8c-0.3-2.7-0.4-5.4-0.5-8.1c-0.1-1.9-0.2-3.8-0.3-5.7
				c-0.1-1.9-0.4-3.9-0.6-5.8c-0.3-2.3-0.6-4.8-0.7-7.2c-0.1-2.5,0.4-4.8,1.6-6.6c0.2-0.3,0.3-0.5,0.5-0.7c0.4-0.6,0.8-1.2,1-1.8
				c0.3-1.2-0.2-2.6-1.3-3.2c-1-0.6-2.5-0.5-3.4,0.4c-0.7,0.6-1.1,1.6-1.4,2.5l0,0c-0.9,2.4-1.8,4.8-2.7,7.2
				c-3.5,9.2-7.2,18.7-9.2,28.5c-2.8,13.6-6.6,29.1-16.4,41.1l-0.6,0.7c-1.6,2-3.3,4-3.7,6.4c-0.1,0.6-0.1,1.5,0.3,2.1
				c0.7,0.9,2.1,0.9,3.1,0.4c1.1-0.6,1.9-1.6,2.7-2.6l0.2-0.2c3-3.9,6.2-6.3,10.3-7.7c0.4-0.1,0.8-0.3,1.4-0.5
				C587,94.7,593.8,92.6,598,92.6z M594.5,21.3L594.5,21.3L594.5,21.3z"/>
		</g>
		<g>
			<path class="st24" d="M591.6,42.7c3.3-2.4,6.7-4.6,9.8-7.1c0.4-0.3,0.8-0.7,1-1.1c0.8-2.1-2.1-2.9-2.8-4.3
				c-0.3-0.7-0.3-1.6,0.1-2.2c2-2.4,5,3.3,5.6,4.5c0.9,1.7,0.4,3.5-1,4.9c-2.2,2.2-4,4-6.5,5.7"/>
			<path class="st10" d="M597.7,43.7c-0.2,0-0.4-0.1-0.5-0.3c-0.2-0.3-0.1-0.7,0.1-0.9c2.4-1.7,4-3.3,6.2-5.4l0.2-0.2
				c1.3-1.2,1.6-2.8,0.9-4.2c-1.4-2.8-2.9-4.6-3.9-4.7c-0.2,0-0.4,0-0.7,0.4c-0.3,0.4-0.3,1-0.1,1.5c0.2,0.4,0.7,0.8,1.2,1.2
				c1,0.8,2.3,1.9,1.7,3.6c-0.2,0.6-0.7,1-1.2,1.4c-2.3,1.8-4.7,3.5-7,5.2c-0.9,0.7-1.9,1.3-2.8,2c-0.3,0.2-0.7,0.1-0.9-0.1
				c-0.2-0.3-0.1-0.7,0.1-0.9c0.9-0.7,1.9-1.3,2.8-2c2.3-1.6,4.7-3.3,7-5.1c0.4-0.3,0.7-0.6,0.8-0.9c0.3-0.8-0.2-1.3-1.3-2.2
				c-0.6-0.5-1.2-1-1.5-1.6c-0.5-1-0.4-2.1,0.2-2.8c0.6-0.8,1.3-0.9,1.8-0.8c1.8,0.2,3.6,3,4.8,5.4c1,1.9,0.5,4-1.1,5.7l-0.2,0.2
				c-2.1,2-3.9,3.8-6.3,5.6C598,43.7,597.9,43.7,597.7,43.7z"/>
		</g>
	</g>
	<path class="st22" d="M58.8,60.5c3.5,4.5,8.9,7.5,14.6,8c1,0.1,2.2,0,2.9-0.7c0.7-0.9,0.5-2.2,0.1-3.2c-1.7-4.7-5.2-8.6-9.7-10.8
		c-4.4-2.1-11.6-0.8-11.5,4c0,2.3,1.8,4.1,3.6,5.5c4,3.1,8.8,5.3,13.9,6.1C70,62,60.5,60.1,52.7,59.9c-1.9-0.1-3.9-0.1-5.4,1
		c-2.2,1.5-2.7,4.7-1.8,7.2c0.9,2.5,2.7,4.5,4.6,6.5c2.9,3,7.5,6.3,10.8,3.8c2.7-2,2-6.6-0.6-8.8c-2.5-2.2-6.1-2.7-9.5-3
		c-4.7-0.3-10.5,0.2-12.4,4.5c-1.6,3.6,0.7,7.9,4,9.9c3.3,2,7.4,2.3,11.3,2.4c1.7,0.1,3.6,0.1,5-0.9c1.3-0.9,1.9-2.6,2.4-4.1
		c2.1-6.9,3.4-14,3.7-21.2c0.1-2.7,0.1-5.6-0.9-8.1c-2.6-6.2-10.2-8.3-16.8-9.7c-4.6-0.9-11.1-0.7-12,3.9c-0.4,2.4,1.1,4.7,2.7,6.6
		c9.9,11.9,23.5,20.4,38.4,24.4c2.6,0.7,5.5,1.3,8.1,0.5c3.9-1.2,6.3-5.5,6.3-9.6c0-4.1-2-8-4.6-11.1c-5-6.2-12.5-10.3-20.3-11.3
		c-6-0.8-12.6,0.5-16.6,5c-4.1,4.7-4.4,11.7-2.4,17.6c2.6,7.8,8.8,14.2,16.5,17.1c2.5,1,5.6,1.5,7.8-0.2c1.5-1.1,2.2-3,2.8-4.8
		c3.5-10.9,5.5-22.2,6.1-33.6c0.2-4.3,0.2-8.8-1.4-12.8c-2.5-6.4-8.6-10.8-15.1-12.9c-6.5-2.2-14.1-2.5-21-2.7
		c-3.4-0.1-7.2,0.9-9,3.7c-1.2,1.8-1.4,4.2-1.4,6.4c-0.1,13.6,5.7,27.1,15.7,36.4c9.7,9.1,23.2,14,36.5,13.4c3.7-0.2,7.8-1,10.2-3.8
		c1.6-1.8,2.4-4.3,2.9-6.7c1.6-7.2,2-14.7,1.1-22.1c-0.2-1.9-0.6-4-1.9-5.4c-1.3-1.4-3.4-2-5.3-2.5c-5.7-1.4-11.4-2.8-17.1-4.3
		c-4.2-1-8.6-2.1-12.8-0.8c-4.9,1.5-8.5,6.2-9.6,11.2s0.1,10.4,2.4,15c4.1,8.5,11.8,15.2,20.8,18c2.6,0.8,5.5,1.3,8,0.3
		c3.5-1.5,5.3-5.5,5.6-9.3c1-10.5-6.2-20.5-15.5-25.6s-20.2-6-30.8-5.8c-4,0.1-8.2,0.3-11.6,2.4c-17.1,10.5-1,33.5,11.1,40.6
		c6.2,3.6,14.2,5.4,20.4,1.8c3.4-2,5.9-5.5,7.2-9.2c1.3-3.8,1.6-7.8,1.6-11.8c-0.1-5-0.7-10.2-2.8-14.8c-2.1-4.6-5.8-8.6-10.5-10.3
		c-8.1-2.9-17.7,1.8-21.6,9.4S32.8,59,36.9,66.5s11,13.2,18.4,17.6c11.9,7.1,25.8,11.3,39.6,9.9c2.6-0.3,5.3-0.8,7.3-2.5
		c1.7-1.5,2.6-3.8,3.4-6c1.6-4.7,2.6-9.5,3.1-14.4c0.7-6.3,0.3-13.2-3.3-18.4c-2.6-3.7-6.7-6.2-11.1-7.6c-4.3-1.4-8.9-1.8-13.5-1.9
		c-5.6-0.2-11.3,0-16.6,1.6c-5.3,1.7-10.3,5.1-12.9,10.1c-4,7.7-1.4,17.3,3.6,24.4c1.9,2.7,4.1,5.2,7,6.7c2.9,1.5,6.5,1.8,9.4,0.2
		c2.2-1.2,3.6-3.4,4.7-5.7c3.4-7.6,2.6-16.9-1.7-24.1c-4.3-7.2-11.8-12.2-20-13.9c-7.2-1.5-15.4-0.3-20.6,4.9
		c-4.1,4.1-5.7,10.1-5.6,15.9c0.2,7.9,3.6,15.7,9.3,21.2c2.4,2.3,5.3,4.3,8.6,5c3.3,0.7,7,0.1,9.4-2.2c2.3-2.2,3.2-5.4,3.9-8.5
		c0.8-3.8,1.4-7.7,0.9-11.5c-0.4-3.9-1.9-7.7-4.7-10.4c-5.1-4.9-13.4-4.9-20.1-2.2c-7.3,2.9-13.9,9.3-14,17.1
		c-0.1,4.6,2.1,9,5.3,12.4c3.2,3.3,7.3,5.7,11.5,7.5c9.7,4.3,20.4,6.3,31,5.8c3.2-0.1,6.6-0.6,9.3-2.3c3.3-2.1,5.1-5.9,6.2-9.6
		c3.4-11.2,1.7-23.9-4.7-33.7c-2.6-4-5.9-7.5-10.1-9.7c-4.2-2.2-9.3-2.8-13.7-1s-7.7,6.3-7.5,11c0.2,4.6,3.4,8.5,6.7,11.6
		c7.2,6.6,16,11.5,25.4,14c3.6,1,7.3,1.6,10.9,1.1c2-0.3,4-1,5.3-2.5c2.6-2.9,1.2-7.9-1.9-10.3C92,63.5,87.9,63,84,62.8
		c-2.3-0.1-5.1,0-6.3,2.1c-0.6,1-0.5,2.2-0.5,3.3c0.5,7.3,2.9,14.4,7.1,20.4c1.5,2.2,3.3,4.2,5.7,5.3c2.4,1.1,5.5,0.9,7.3-1
		c1.8-1.9,1.8-5.1,0.6-7.5c-1.2-2.4-3.4-4.1-5.6-5.7C75.6,67.5,54.6,61.6,34,62.8c1.2-0.4,1.6-1.9,1.7-3.1
		c0.8-5.9,0.7-12.1-1.1-17.8s-5.3-11-10.4-14.2c-1.8-1.1-3.9-2-6-1.7s-4.1,2.2-3.9,4.3c0.1,1.4,1.1,2.6,2.2,3.6
		c7.3,7.3,17.1,12.2,27.3,13.6c2.6,0.4,6,0.1,7-2.3c0.8-1.8-0.3-3.9-1.9-5c-1.6-1-3.7-1.2-5.6-1c-6.3,0.6-12.2,4.2-15.5,9.6
		c-2.7,4.4-3.3,10.7,0.3,14.3c2.4,2.3,6.1,2.9,9.4,2.4c3.3-0.6,6.3-2.2,9.3-3.8c-6.4-2.2-13.7-1.6-19.7,1.6s-10.6,8.9-12.4,15.4
		c-1.1,3.8-1.1,8.3,1.3,11.4c2.7,3.6,7.6,4.7,12,4.4C38.4,93.9,48,87.3,52.3,78c0.9-1.9,1.5-4,1.2-6c-0.3-2.1-1.8-4-3.9-4.3
		c-1.7-0.2-3.4,0.7-4.4,2.1c-1,1.3-1.6,3-2,4.6c-1,3.6-1.6,7.5-0.4,11.1c1.1,3.6,4.4,6.7,8.1,6.6c3-0.1,5.7-2.2,7.1-4.9
		s1.6-5.8,1.4-8.8c-0.2-2.7-0.8-5.4-1.7-7.9c-0.4-1.1-0.9-2.1-1.7-2.9c-0.8-0.8-2.2-1.1-3.1-0.5c-0.6,0.4-1,1-1.4,1.6
		c-4.4,7.6-5.8,16.9-4,25.4c0.6,3.1,2,6.4,4.9,7.7c3.3,1.5,7.4-0.7,9.1-3.8c1.8-3.1,1.8-7,1.3-10.6c-0.6-4.5-1.8-9-4.3-12.7
		s-6.6-6.7-11.1-7.1c1.2,3.4,5.1,5.3,8.7,5.1c3.6-0.1,7-1.9,9.9-4c9.8-7,14.5-31.6,11.2-31.4c-3.3,0.2-6.6,1.8-8.1,4.8
		c-1.4,3-0.3,7.1,2.7,8.4c1.8,0.8,3.9,0.5,5.9,0c11-2.5,21.4-8,29.5-15.9c1.6-1.5,3.2-3.4,2.8-5.6c-0.4-2.6-3.2-3.9-5.7-4.5
		c-6.4-1.6-13.3-1.6-19.5,0.6c-2.6,0.9-5.2,2.2-6.9,4.4c-1.7,2.2-2.5,5.3-1.3,7.7c1.2,2.5,4.6,3.8,6.9,2.3c2.7-1.7,2.6-5.7,1.3-8.6
		C81.7,23.7,73.8,19.4,66,18.7c-3.8-0.3-8.2,0.4-10.3,3.6c-1.4,2.1-1.4,4.8-1.2,7.3c0.6,7.6-4.4,18-6.7,17.3
		c-4.6-1.3-9.2-2.3-13.9-3c-9.1-1.5-22.7,6.9-18,8.8c4.7,1.8,9.6,3.5,14.7,3.4s10.3-2.1,13.1-6.3s2.2-10.7-2-13.5
		c-3.5-2.4-8.9-1.3-11.3,2.2c-5.3,7.8,5.4,18.1,11,22c4.6,3.2,9.7,5.9,15.2,6.5c9.3,1.1,16.5-4.8,19.6-13.2
		c2.1-5.9,2.3-12.3,2.1-18.6C75,48.7,82.2,64,94.6,70.2c3.7,1.9,8.2,3,12.1,1.6c7.5-2.6,8.9-14.8,2.2-19
		c-6.7-4.2-17.1,2.3-16.1,10.2c0.1,0.9,0.3,1.9-0.4,2.5s-2-0.5-1.2-1l500.3-37.1"/>
</g>
<g id="Layer_6">
	<g>
		<g>
			<path class="st14" d="M305.7,40.1c-8.8,6.3-17.4,13-25.8,20c-0.2,0.2-0.4,0.3-0.4,0.6c-0.1,0.3,0.1,0.6,0.2,0.8
				c1.5,2.2,4.8,2.6,7.3,1.6c2.5-1,4.4-3.1,6.2-5.1c4.6-5.1,9.1-10.1,13.7-15.2"/>
			<path class="st10" d="M284.3,64.5c-2,0-4.1-0.7-5.3-2.5c-0.1-0.2-0.5-0.8-0.4-1.5c0.1-0.5,0.5-0.8,0.7-1c8.3-7,17-13.7,25.8-20.1
				l1,1.4c-8.8,6.3-17.4,13-25.7,20c0,0-0.1,0.1-0.1,0.1c0,0,0,0.1,0.1,0.1c1.3,1.9,4.2,2.1,6.2,1.3c2.4-1,4.2-3,5.9-4.8l13.7-15.2
				l1.3,1.2l-13.7,15.2c-1.8,2-3.8,4.2-6.5,5.3C286.4,64.2,285.4,64.5,284.3,64.5z"/>
		</g>
		<g>
			<path class="st14" d="M306.8,42.1c-10.9,0.2-21.8,0-32.6-0.6c-0.2,0-0.5,0-0.7-0.2c-0.2-0.2-0.3-0.5-0.3-0.8
				c-0.1-2.7,2.3-5,4.9-5.6s5.4-0.2,8,0.4c6.7,1.3,14.7,2.8,21.4,4.1"/>
			<path class="st10" d="M298.9,43.1c-8.3,0-16.6-0.2-24.8-0.7c-0.3,0-0.8,0-1.2-0.4c-0.6-0.5-0.6-1.2-0.6-1.4
				c-0.1-3.3,2.7-5.8,5.5-6.5c2.9-0.7,5.8-0.2,8.4,0.4c3.3,0.7,7,1.4,10.7,2c3.7,0.7,7.4,1.4,10.7,2.1l-0.3,1.7
				c-3.3-0.7-7-1.4-10.7-2c-3.7-0.7-7.4-1.4-10.7-2.1c-2.4-0.5-5.1-1-7.6-0.4c-2.2,0.6-4.3,2.5-4.2,4.7c0,0,0,0.1,0,0.1
				c0,0,0.1,0,0.1,0c10.8,0.6,21.7,0.8,32.6,0.6l0,1.8C304.2,43.1,301.6,43.1,298.9,43.1z"/>
		</g>
		<g>
			<g class="st25">
				<path class="st26" d="M342.3,43.9c-1.5,0.4-3.1,0.9-4.5,1.6c-0.6,0.3-1.3,0.7-1.7,1.4c-0.4,0.7-0.6,1.7-0.2,2.4
					c0.4,0.7,1.2,0.8,1.8,0.6c0.6-0.2,1.2-0.6,1.8-0.9c1.1-0.6,2.2-0.7,3.4-0.9"/>
				<path class="st10" d="M337.2,50.8c-0.8,0-1.6-0.4-2-1.1c-0.7-1.1-0.4-2.5,0.2-3.3c0.5-0.8,1.4-1.3,2.1-1.7
					c1.3-0.7,2.8-1.2,4.7-1.7l0.4,1.7c-1.7,0.4-3.1,0.9-4.3,1.5c-0.6,0.3-1.1,0.6-1.4,1.1c-0.3,0.4-0.4,1.1-0.2,1.4
					c0.2,0.4,0.7,0.2,0.8,0.2c0.3-0.1,0.7-0.3,1-0.5c0.2-0.1,0.4-0.2,0.6-0.4c1.2-0.6,2.5-0.8,3.6-1l0.3,1.8
					c-1.1,0.2-2.1,0.3-3.1,0.8c-0.2,0.1-0.4,0.2-0.5,0.3c-0.4,0.3-0.9,0.5-1.4,0.7C337.7,50.8,337.4,50.8,337.2,50.8z"/>
			</g>
			<g>
				<path class="st27" d="M307.1,42.3c3.3-2.1,6.4-4.6,9.2-7.4c1.4-1.4,2.7-3,4.6-3.5c1.2-0.3,2.5-0.2,3.7-0.3
					c3.4-0.3,6.5-2.4,8-5.4c3.6-7.1-2.6-14.9-10.4-11.8c-3.7,1.5-6.2,5.5-6.2,9.5c0,1.3,0.2,2.6-0.1,3.9c-0.4,2.1-2.1,3.7-3.8,5
					c-1.7,1.3-3.6,2.4-4.8,4.1C306.2,38.1,305.8,40.7,307.1,42.3z M320.7,20.2c1.6-2.4,7.1-4.5,8.6-0.9c0.4,0.8,0.3,1.7,0.1,2.6
					c-0.2,0.8-0.5,1.5-0.9,2.2c-0.8,1.2-1.9,2.2-3.3,2.6C321.3,27.6,318.7,23.3,320.7,20.2z"/>
				<path class="st10" d="M306.9,43.5l-0.5-0.6c-1.7-2-1.1-5,0.3-7c1.1-1.5,2.5-2.6,4-3.6c0.3-0.3,0.7-0.5,1-0.8
					c1.3-1,3-2.5,3.4-4.4c0.2-0.8,0.1-1.6,0.1-2.4c0-0.4,0-0.9,0-1.3c0-4.5,2.8-8.7,6.8-10.3c3.8-1.5,7.6-0.7,10.2,2.1
					c2.7,2.9,3.2,7.2,1.3,11c-1.7,3.3-5.1,5.6-8.8,5.9c-0.4,0-0.9,0-1.3,0c-0.8,0-1.6,0-2.3,0.2c-1.5,0.4-2.7,1.7-3.9,2.9l-0.3,0.3
					c-2.8,2.9-5.9,5.4-9.3,7.6L306.9,43.5z M325.8,14.1c-1,0-2.1,0.2-3.2,0.6c-3.3,1.3-5.6,4.9-5.7,8.7c0,0.4,0,0.8,0,1.2
					c0,0.9,0.1,1.9-0.1,2.9c-0.5,2.5-2.6,4.3-4.1,5.5c-0.3,0.3-0.7,0.5-1.1,0.8c-1.4,1-2.6,1.9-3.6,3.2c-0.8,1.1-1.3,2.9-0.8,4.2
					c3-1.9,5.8-4.2,8.2-6.8l0.3-0.3c1.3-1.3,2.7-2.9,4.7-3.4c0.9-0.2,1.8-0.3,2.7-0.3c0.4,0,0.8,0,1.2,0c3.1-0.2,5.9-2.2,7.3-4.9
					c1.5-3.1,1.2-6.6-1-9C329.5,14.9,327.7,14.1,325.8,14.1z M324.1,27.7c-1.6,0-3-0.7-4-2.1c-1.2-1.8-1.3-4.1-0.1-5.9
					c1.1-1.7,4.1-3.4,6.8-3.2c1.6,0.1,2.8,1,3.4,2.4c0.4,0.9,0.4,1.9,0.1,3.1c-0.2,0.9-0.6,1.7-1,2.4c-1,1.5-2.3,2.6-3.9,3
					C324.9,27.6,324.5,27.7,324.1,27.7z M320.7,20.2l0.7,0.5c-0.8,1.2-0.8,2.7,0,3.9c0.8,1.1,2.1,1.5,3.4,1.2
					c1.1-0.3,2.1-1.1,2.8-2.2c0.4-0.6,0.6-1.3,0.8-1.9c0.2-0.8,0.2-1.5,0-2c-0.4-0.8-1-1.2-1.9-1.3c-1.9-0.2-4.3,1.2-5.1,2.4
					L320.7,20.2z"/>
			</g>
			<g>
				<path class="st27" d="M309.4,44.2c1.9,0.9,4.1,1.1,6.2,1.4c2.1,0.3,4.3,1,5.7,2.6c0.8,1,1.3,2.2,1.9,3.4c1.9,3.5,6,5.9,10,5.4
					c8.3-1,10-10.7,3.5-15.3c-2.8-1.9-6.6-2.3-9.6-0.9c-1.1,0.5-2.2,1.2-3.4,1.5c-1.9,0.4-3.9-0.3-5.7-0.9
					c-3.8-1.2-7.7-1.9-11.6-2.2C305.9,41.2,307.5,43.2,309.4,44.2z M329.6,44.3c1.4-0.4,2.9,0,4.2,0.7c0.7,0.4,1.3,0.9,1.9,1.5
					c0.6,0.6,1.1,1.4,1.2,2.3c0.3,3.8-5.5,4.6-8,3.3C325.5,50.3,325.8,45.3,329.6,44.3z"/>
				<path class="st10" d="M332.1,57.9c-3.9,0-7.8-2.3-9.8-5.9c-0.2-0.4-0.4-0.8-0.6-1.1c-0.4-0.8-0.7-1.5-1.2-2.1
					c-1.3-1.5-3.5-2-5.1-2.3c-0.4-0.1-0.8-0.1-1.3-0.2c-1.7-0.2-3.5-0.5-5.2-1.3h0c-2.2-1-4.1-3.5-3.6-6l0.2-0.8l0.8,0.1
					c4,0.3,8,1,11.8,2.2l0.4,0.1c1.6,0.5,3.3,1.1,4.8,0.7c0.7-0.2,1.4-0.5,2.1-0.9c0.4-0.2,0.8-0.4,1.2-0.6c3.4-1.5,7.5-1.1,10.5,1
					c3.4,2.4,5,6.5,4.1,10.3c-0.9,3.7-3.9,6.2-8,6.6C332.9,57.8,332.5,57.9,332.1,57.9z M307.1,40.1c0.2,1.4,1.4,2.7,2.6,3.3h0
					c1.4,0.7,3,0.9,4.6,1.1c0.4,0.1,0.9,0.1,1.3,0.2c1.9,0.3,4.5,0.9,6.2,2.9c0.6,0.8,1.1,1.6,1.5,2.5c0.2,0.4,0.3,0.7,0.5,1.1
					c1.8,3.3,5.6,5.4,9.1,5c3.3-0.4,5.8-2.4,6.5-5.3c0.8-3.1-0.5-6.4-3.4-8.4c-2.5-1.8-6-2.1-8.8-0.9c-0.4,0.2-0.7,0.4-1.1,0.5
					c-0.8,0.4-1.6,0.8-2.5,1c-2,0.5-4-0.2-5.8-0.8l-0.4-0.1C314.2,41.1,310.7,40.4,307.1,40.1z M331.7,53.6c-1.3,0-2.5-0.3-3.3-0.7
					c-1.9-1-3-3.1-2.7-5.2c0.3-2.1,1.7-3.7,3.8-4.2h0c1.5-0.4,3.3-0.1,4.8,0.8c0.8,0.4,1.5,1,2.1,1.7c0.9,0.9,1.3,1.9,1.4,2.8
					c0.1,1.5-0.5,2.8-1.9,3.7C334.7,53.3,333.1,53.6,331.7,53.6z M329.9,45.2c-1.4,0.3-2.3,1.4-2.5,2.7c-0.2,1.4,0.5,2.7,1.8,3.4
					c1.3,0.7,4.1,0.7,5.7-0.3c0.8-0.5,1.1-1.2,1.1-2.1c0-0.5-0.4-1.1-0.9-1.8c-0.5-0.5-1-1-1.6-1.3C332.2,45.1,331,44.9,329.9,45.2
					L329.9,45.2z"/>
			</g>
			<g class="st25">
				<path class="st26" d="M340.9,21.5c-0.2-0.9-0.5-1.9-0.3-2.8c0.3-1.4,1.7-2.5,3.2-2.4s2.8,1.1,3.2,2.5c0.4,1.3,0.2,2.7,0.1,4
					c0,2.9,1.1,5.7,2.1,8.4c10.3,26.2,18.8,53.5,20.8,81.5c0.1,1.1,0.1,2.3-0.2,3.4c-0.4,1.3-1.6,2.4-3.1,2.1
					c-0.6-0.1-1.1-0.6-1.3-1.2c-0.3-1,0.3-1.5,0.7-2.2c0.9-1.5,0.5-3.5-0.1-5.2c-1.8-4.9-4.8-9.3-8.7-12.7
					c-2.9-2.4-6.9-4.4-10.3-2.8c-2.8,1.2-4.1,4.3-4.8,7.3c-0.3,1.2-0.5,2.5-1.1,3.6c-0.7,1.2-2.1,2.2-3.5,1.8
					c-0.8-0.2-1.3-0.9-1.4-1.7c-0.1-1.1,0.7-1.5,1.2-2.1c0.6-0.7,0.8-1.7,0.9-2.7c1.9-14.4,3.3-28.9,4.2-43.4
					c0.5-7.9,0.6-16.4-3.9-22.9c-2.2-3.2-5.3-5.5-8-8.3c-1.9-2.1-3.7-4.6-4.3-7.3c-0.2-0.9,0.8-1.4,1.5-0.9c1.1,1,2.3,2,2.7,2.3
					c1.6,1.5,3.2,3,4.9,4.4c1.1,0.9,3.1,3.3,4.6,2.5C341.6,26,341.1,22.8,340.9,21.5z"/>
				<path class="st10" d="M367.2,119.1c-0.2,0-0.4,0-0.7-0.1c-0.9-0.2-1.7-0.9-2-1.8c-0.4-1.2,0.2-2,0.6-2.6
					c0.1-0.1,0.2-0.2,0.2-0.3c0.6-1,0.5-2.4-0.2-4.5c-1.7-4.8-4.6-9-8.5-12.3c-1.2-1.1-5.6-4.4-9.3-2.7c-2.6,1.2-3.8,4.3-4.3,6.7
					l-0.1,0.6c-0.2,1.1-0.5,2.3-1.1,3.3c-0.8,1.5-2.6,2.8-4.6,2.2c-1.1-0.3-1.9-1.3-2-2.4c-0.2-1.3,0.6-2,1.1-2.4
					c0.1-0.1,0.2-0.2,0.3-0.3c0.4-0.5,0.6-1.3,0.7-2.2c1.9-14.3,3.3-28.9,4.2-43.4c0.5-7.9,0.6-16.1-3.7-22.3
					c-1.4-1.9-3.1-3.6-4.9-5.3c-1-0.9-2-1.9-3-3c-2.4-2.6-3.9-5.2-4.5-7.8c-0.2-0.8,0.2-1.5,0.9-1.9c0.7-0.4,1.5-0.3,2.1,0.2
					c0.6,0.6,1.3,1.2,1.8,1.6c0.4,0.3,0.7,0.6,0.8,0.7c1.6,1.5,3.2,3,4.9,4.3c0.2,0.2,0.5,0.4,0.8,0.7c0.8,0.8,2.2,2.1,2.9,1.7
					c0.3-0.1,1.1-0.8,0.4-4.2l-0.1-0.5c-0.2-0.8-0.4-1.7-0.2-2.6c0.3-1.8,2.2-3.2,4.1-3.2c1.8,0.1,3.5,1.3,4,3.1
					c0.4,1.1,0.3,2.2,0.2,3.3c0,0.3,0,0.7,0,1c0,2.7,1,5.4,2,8c12.7,32.3,19.2,57.6,20.9,81.8c0.1,1.1,0.2,2.4-0.3,3.7
					C370.2,117.8,368.9,119.1,367.2,119.1z M349.7,92.6c3.5,0,6.8,2.4,8.2,3.6c4.1,3.5,7.2,8,9,13.1c0.6,1.6,1.2,4,0,6
					c-0.1,0.1-0.2,0.3-0.3,0.4c-0.4,0.5-0.4,0.7-0.3,1c0.1,0.3,0.4,0.5,0.7,0.6c1,0.2,1.8-0.8,2.1-1.5c0.3-0.9,0.3-1.9,0.2-3
					c-1.7-24.1-8.1-49.2-20.8-81.3c-1.1-2.8-2.2-5.7-2.2-8.7c0-0.4,0-0.7,0.1-1.1c0.1-0.9,0.1-1.8-0.1-2.6c-0.4-1.1-1.4-1.9-2.4-1.9
					c-1-0.1-2.1,0.8-2.3,1.7c-0.1,0.6,0,1.2,0.2,1.9c0,0.2,0.1,0.4,0.1,0.6c0.6,3.4,0.2,5.4-1.4,6.2c-1.8,0.8-3.7-0.9-4.9-2
					c-0.3-0.2-0.5-0.5-0.7-0.6c-1.7-1.4-3.4-2.9-5-4.4c-0.1-0.1-0.4-0.4-0.7-0.6c-0.5-0.5-1.3-1.1-1.9-1.7c0.5,2.3,1.9,4.6,4.1,7
					c0.9,1,1.9,1.9,2.9,2.9c1.8,1.7,3.7,3.5,5.1,5.6c4.7,6.7,4.6,15.2,4,23.4c-0.9,14.5-2.3,29.1-4.2,43.5c-0.1,0.9-0.3,2.2-1.1,3.1
					c-0.1,0.2-0.3,0.3-0.5,0.5c-0.5,0.4-0.6,0.6-0.5,0.9c0.1,0.4,0.4,0.8,0.8,0.9c1,0.3,2-0.5,2.5-1.4c0.5-0.8,0.7-1.8,0.9-2.8
					l0.1-0.6c0.9-4,2.8-6.7,5.3-7.9C347.7,92.8,348.7,92.6,349.7,92.6z"/>
			</g>
			<g class="st25">
				<path class="st26" d="M334.2,45.1c1.4-0.2,2.9,0.7,3.6,2c0.1,0.2,0.2,0.4,0.1,0.6c0,0.2-0.2,0.4-0.4,0.6c-0.5,0.4-1,0.9-1.6,0.9
					c-0.5,0-1-0.3-1.3-0.6c-0.8-0.9-1.6-2.8-0.2-3.6"/>
				<path class="st10" d="M335.9,50c-0.7,0-1.4-0.3-1.9-0.9c-0.7-0.8-1.4-2.1-1.2-3.3c0.1-0.7,0.5-1.3,1.2-1.7l0.2,0.4l0-0.3
					c1.8-0.2,3.6,0.8,4.4,2.4c0.1,0.3,0.3,0.7,0.2,1.2c-0.1,0.5-0.5,0.9-0.7,1.1C337.6,49.3,336.9,50,335.9,50
					C335.9,50,335.9,50,335.9,50z M334.5,46c0,0,0,0.1,0,0.1c-0.1,0.5,0.3,1.4,0.7,1.8c0.2,0.2,0.4,0.4,0.6,0.3c0.3,0,0.7-0.3,1-0.7
					c0,0,0.1-0.1,0.1-0.1c0,0,0,0,0,0C336.5,46.5,335.5,46,334.5,46z"/>
			</g>
		</g>
	</g>
	<line class="st28" x1="0" y1="46" x2="640" y2="46"/>
	<path class="st28" d="M549.5,46.5c1.7-0.8,4.4-3.1,3.1-4.4c-1.1-1-2.5-1.4-4-1.4c-1,0-1.8,0.7-1.7,1.7c0.1,1.2,0.9,2.4,2,3
		c1.7,0.9,3.7,0.8,5.6,0.6c0.2-1.2-0.6-2.5-1.8-2.9c-1.5-0.5-3.4,0.7-3.7,2.3c-0.3,1.6,1,3.3,2.6,3.5c2.8,0.4,5.7-3.1,2.6-6.1
		c-0.3-0.3-0.6-0.5-1-0.6c-1.6-0.4-3.5,1-3.5,2.7c0.1,2.3,2.8,3.3,5,3.7c2,0.4,4,0.7,5.9-0.2c1.4-0.7,2.3-2.1,2-3.6
		c-0.5-2.3-3.4-3-5.7-3.1c-1.2-0.1-2.5-0.1-3.6,0.5c-1.1,0.6-1.8,2-1.3,3.1c0.6,1.1,2.6,1,2.8-0.2c-1.9-1.1-4.2-1.6-6.4-1.5
		c-0.6,0-1.2,0.1-1.6,0.5c-0.4,0.3-0.5,0.9-0.7,1.4c-0.2,0.9-0.3,1.8-0.4,2.8c-0.1,2,2.5,3.1,3.9,1.6c0,0,0,0,0,0
		c0.9-1.1,1.3-2.5,1.7-3.8"/>
</g>
</svg>
