<?xml version="1.0" standalone="no"?>
<!DOCTYPE svg PUBLIC "-//W3C//DTD SVG 20010904//EN"
 "http://www.w3.org/TR/2001/REC-SVG-20010904/DTD/svg10.dtd">
<svg version="1.0" xmlns="http://www.w3.org/2000/svg"
 width="640.000000pt" height="1280.000000pt" viewBox="0 0 640.000000 1280.000000"
 preserveAspectRatio="xMidYMid meet">
<metadata>
Created by potrace 1.15, written by Peter Selinger 2001-2017
</metadata>
<g transform="translate(0.000000,1280.000000) scale(0.100000,-0.100000)"
fill="#000000" stroke="none">
<path d="M4678 12771 c-36 -15 -147 -68 -246 -116 l-179 -87 -184 26 c-313 43
-293 43 -374 0 -38 -20 -164 -93 -279 -162 l-208 -125 -122 14 c-66 8 -218 14
-336 14 l-215 0 -54 -30 c-86 -47 -162 -146 -297 -380 -37 -65 -80 -132 -94
-148 l-26 -29 -49 17 c-39 13 -87 17 -215 17 -188 1 -258 -13 -314 -62 -72
-64 -431 -531 -626 -815 l-124 -180 -7 -110 c-18 -257 -42 -489 -65 -625 -36
-211 -52 -681 -36 -1075 19 -472 62 -756 143 -951 19 -45 98 -170 218 -343
l189 -273 6 -101 c10 -179 21 -637 19 -787 -5 -355 -45 -633 -262 -1832 -298
-1636 -402 -2274 -500 -3063 -69 -546 -131 -1259 -131 -1497 l0 -68 2280 0
2280 0 0 30 c0 40 -36 496 -115 1450 -119 1427 -134 1622 -165 2025 -66 883
-127 1909 -150 2545 -5 157 -12 330 -15 384 -5 112 19 683 35 821 6 52 19 107
31 130 46 89 196 282 433 560 178 207 262 333 313 466 41 107 46 122 132 394
63 199 90 252 222 440 195 277 294 429 346 535 l52 105 11 280 c6 154 18 343
26 420 12 123 42 427 60 626 l7 66 -83 144 c-46 79 -94 164 -108 188 -50 90
-161 188 -264 236 -59 27 -68 38 -68 81 0 18 -13 65 -30 105 -16 41 -30 84
-30 97 0 14 20 42 56 77 53 51 56 57 51 93 -13 104 -104 206 -241 271 -97 47
-367 154 -488 194 -120 40 -134 41 -210 8z m143 -122 c35 -12 100 -36 144 -54
44 -18 137 -51 206 -75 69 -23 139 -52 155 -65 l29 -23 -20 -23 c-30 -33 -106
-79 -131 -79 -12 0 -51 13 -86 30 -76 36 -140 38 -371 12 l-149 -17 -44 55
c-24 30 -44 64 -44 75 0 31 188 185 226 185 11 0 49 -9 85 -21z m-826 -154
c182 -19 237 -35 271 -80 23 -31 25 -38 15 -68 -12 -36 -88 -156 -123 -194
-13 -14 -42 -26 -77 -33 -180 -36 -325 -93 -334 -132 -25 -98 -86 -1062 -87
-1356 0 -92 0 -93 39 -145 81 -108 88 -154 23 -142 -56 10 -159 61 -171 83
-15 29 -14 136 5 347 12 126 18 355 23 765 l6 585 -52 49 c-64 59 -71 77 -44
115 38 53 236 190 303 210 45 13 45 13 203 -4z m550 -330 c373 -138 834 -318
905 -353 63 -31 75 -41 75 -61 0 -18 -11 -32 -45 -52 -55 -34 -89 -35 -160 -8
-51 20 -67 21 -210 15 -209 -8 -206 -11 -203 116 l1 96 -76 31 c-42 16 -104
37 -137 46 -33 9 -121 38 -197 66 -75 27 -143 49 -152 49 -21 0 -31 -21 -56
-120 -26 -101 -23 -163 15 -294 52 -178 120 -271 270 -371 92 -62 149 -89 317
-151 132 -49 210 -86 250 -119 15 -13 82 -51 150 -85 130 -66 158 -85 158
-106 0 -7 -30 -34 -67 -60 -93 -65 -133 -104 -133 -129 0 -12 38 -79 85 -149
47 -69 85 -133 85 -141 0 -21 -35 -28 -113 -19 -117 13 -128 6 -97 -62 26 -56
37 -198 25 -308 -8 -78 -19 -83 -86 -35 -61 44 -254 241 -316 324 -65 86 -73
122 -73 308 1 156 6 181 84 355 49 108 47 121 -29 147 -72 25 -297 142 -374
195 -89 61 -204 187 -260 285 -31 53 -58 165 -67 269 l-7 85 63 103 c35 57 81
127 102 156 48 64 33 66 273 -23z m-1334 1 c170 -44 199 -63 199 -132 l0 -44
-289 0 -290 0 -66 -82 c-108 -134 -105 -119 -66 -321 95 -494 128 -713 156
-1032 34 -381 40 -419 86 -516 39 -83 43 -109 16 -109 -19 0 -219 117 -229
133 -4 8 -17 95 -28 194 -64 579 -82 754 -100 983 -25 304 -27 324 -51 353 -9
13 -57 41 -106 62 -105 46 -143 71 -143 92 0 22 172 308 227 378 23 29 52 55
65 58 13 2 136 5 274 6 236 1 257 -1 345 -23z m-1034 -564 c121 -29 196 -57
225 -87 34 -33 52 -98 37 -126 -10 -20 -16 -21 -68 -13 -31 4 -117 8 -191 9
-117 0 -144 -3 -204 -24 -100 -34 -106 -43 -106 -154 0 -156 32 -381 62 -437
10 -19 38 -63 62 -97 59 -82 72 -146 90 -443 8 -130 20 -248 25 -264 13 -33
14 -103 2 -110 -25 -16 -99 89 -136 195 -8 23 -20 92 -25 154 -18 202 -44 281
-181 533 -123 229 -194 347 -221 369 -12 11 -17 9 -26 -12 -7 -14 -16 -54 -22
-89 -7 -45 -20 -80 -44 -115 -22 -32 -37 -69 -41 -99 -4 -26 -8 -53 -10 -59
-3 -10 -36 -13 -120 -13 l-115 0 0 -38 c0 -95 71 -280 155 -407 34 -50 67
-112 74 -138 13 -44 12 -48 -11 -76 -14 -16 -28 -48 -32 -70 -10 -65 -31 -64
-90 2 l-51 57 -120 -36 c-159 -46 -190 -53 -206 -43 -11 7 -15 83 -17 394 l-3
386 59 72 c90 111 433 555 477 617 52 74 115 140 145 152 108 43 460 49 627
10z m2472 -1387 c45 -21 93 -51 106 -67 53 -63 97 -236 98 -390 1 -92 -1 -100
-36 -170 -76 -153 -263 -369 -548 -633 -76 -70 -90 -89 -114 -150 -94 -242
-184 -370 -305 -434 -123 -66 -405 -107 -475 -69 -63 34 -166 167 -186 241 -8
29 -10 102 -5 236 7 223 18 310 48 401 26 81 113 267 136 294 9 10 67 43 127
71 127 61 151 83 230 215 106 179 168 243 330 345 130 82 250 139 309 147 28
3 85 5 127 4 64 -2 88 -8 158 -41z m-3290 -634 c12 -8 11 -17 -7 -61 -12 -29
-20 -56 -17 -60 2 -4 43 -10 91 -14 172 -13 481 -94 519 -136 22 -25 17 -66
-25 -173 -36 -95 -37 -115 -6 -127 13 -5 125 -12 247 -15 257 -7 389 -19 429
-40 40 -21 64 -97 65 -205 0 -80 -2 -89 -39 -158 -102 -191 -329 -363 -753
-573 -123 -60 -223 -114 -223 -119 0 -14 69 -63 166 -118 51 -29 97 -58 103
-66 9 -10 -3 -34 -54 -105 -35 -50 -69 -100 -75 -112 -24 -45 -14 -52 263
-200 89 -48 157 -90 157 -98 0 -8 -18 -54 -41 -103 -49 -107 -48 -127 8 -143
58 -17 197 -96 266 -150 l58 -46 -53 -60 c-65 -74 -138 -135 -235 -197 -335
-212 -385 -252 -320 -252 33 0 162 -45 212 -75 24 -13 55 -39 70 -57 22 -27
26 -39 23 -73 -14 -116 -97 -168 -290 -182 -49 -3 -88 -7 -88 -7 0 -1 26 -30
59 -65 66 -71 126 -166 142 -225 23 -86 -14 -144 -149 -236 -182 -125 -180
-138 50 -282 235 -147 303 -221 303 -328 -1 -127 -99 -218 -410 -378 -66 -34
-133 -72 -148 -85 l-29 -22 73 -50 c40 -28 105 -81 144 -120 134 -134 162
-237 95 -349 -58 -96 -249 -268 -412 -371 -27 -17 -46 -34 -45 -40 2 -5 33
-34 68 -64 165 -138 180 -160 187 -272 4 -62 1 -82 -16 -115 -43 -84 -172
-170 -314 -210 -32 -9 -58 -20 -58 -24 0 -8 200 -1021 242 -1228 l21 -102 -59
-78 c-83 -108 -258 -281 -327 -321 -115 -68 -194 -41 -233 77 -29 87 -25 357
9 687 37 350 121 1101 206 1830 212 1811 267 2382 291 2995 5 129 14 316 20
416 16 243 -2 336 -75 404 -35 33 -51 65 -60 120 -13 89 -38 143 -118 253
-251 350 -244 338 -280 442 -118 341 -185 752 -175 1086 4 145 12 179 47 206
64 49 287 144 394 167 77 17 88 18 106 7z"/>
</g>
</svg>
