<?xml version="1.0" standalone="no"?>
<!DOCTYPE svg PUBLIC "-//W3C//DTD SVG 20010904//EN"
 "http://www.w3.org/TR/2001/REC-SVG-20010904/DTD/svg10.dtd">
<svg version="1.0" xmlns="http://www.w3.org/2000/svg"
 width="902.000000pt" height="1280.000000pt" viewBox="0 0 902.000000 1280.000000"
 preserveAspectRatio="xMidYMid meet">
<g transform="translate(0.000000,1280.000000) scale(0.100000,-0.100000)"
fill="#000000" stroke="none">
<path d="M5800 12770 c-576 -118 -1013 -326 -1910 -910 -279 -182 -339 -217
-548 -330 -332 -177 -719 -324 -1042 -394 -281 -61 -349 -89 -453 -185 -99
-92 -144 -167 -262 -442 -112 -262 -204 -404 -309 -480 -30 -21 -59 -55 -81
-95 -96 -171 -240 -320 -575 -595 -333 -273 -445 -386 -547 -557 -39 -66 -42
-77 -57 -205 -19 -158 -20 -259 -6 -371 6 -45 17 -148 26 -231 8 -82 35 -280
60 -440 104 -667 114 -769 114 -1141 0 -360 19 -470 121 -711 85 -201 173
-342 483 -773 104 -146 213 -301 242 -346 276 -428 412 -820 474 -1369 32
-293 35 -589 9 -1190 -10 -214 -9 -277 2 -355 23 -160 16 -359 -26 -685 -59
-465 -51 -656 36 -881 17 -42 27 -55 59 -69 73 -33 118 0 219 161 67 105 116
233 148 384 21 98 25 144 26 310 2 250 -23 438 -94 695 -17 60 -35 148 -41
195 -13 106 -5 526 16 785 32 407 30 624 -9 836 -9 46 -20 129 -25 183 -23
238 -75 414 -190 641 -90 179 -169 300 -425 660 -106 148 -217 308 -247 355
-30 47 -83 129 -117 183 -112 176 -188 359 -235 568 -46 205 -56 327 -66 804
-5 248 -12 500 -15 560 -4 61 -8 173 -11 250 -2 90 -16 229 -40 390 -72 490
-47 692 110 902 86 114 255 233 517 364 368 184 733 294 1489 449 219 45 309
68 388 99 407 163 841 173 1147 27 114 -55 161 -87 242 -167 121 -119 192
-247 248 -445 20 -71 72 -246 115 -389 168 -552 226 -817 231 -1065 3 -97 -9
-126 -109 -280 -79 -123 -135 -193 -237 -299 -230 -238 -500 -394 -810 -466
-33 -8 -100 -29 -150 -46 -81 -29 -101 -32 -200 -32 -136 0 -229 24 -353 87
-379 197 -445 536 -140 719 50 30 68 35 150 41 115 8 189 31 228 69 70 69 57
146 -79 467 -36 84 -40 105 -41 175 -1 105 -13 155 -46 183 -47 41 -89 23
-321 -145 -151 -108 -263 -170 -346 -193 -51 -14 -100 -10 -187 15 -63 17
-166 20 -207 4 -68 -26 -97 -87 -70 -151 24 -58 90 -111 210 -170 139 -69 190
-106 227 -165 55 -86 50 -159 -20 -344 -66 -171 -82 -289 -40 -289 17 0 69
-87 81 -135 16 -63 1 -142 -51 -277 -22 -56 -45 -127 -52 -159 -10 -50 -9 -60
8 -90 23 -39 68 -65 142 -79 44 -8 69 -6 155 15 513 123 1058 82 1552 -117
117 -47 269 -123 353 -178 33 -21 93 -55 133 -75 131 -65 245 -172 347 -323
22 -31 88 -138 147 -237 121 -202 172 -273 257 -354 56 -54 169 -131 194 -131
18 0 24 50 24 204 1 357 51 530 195 673 48 47 86 96 111 144 43 82 149 196
235 251 30 20 120 73 200 119 79 45 171 100 204 122 87 59 170 149 207 225 30
60 33 74 33 161 1 78 5 106 23 146 44 96 138 170 342 268 63 30 134 69 158 86
103 76 108 157 15 284 l-37 50 29 106 c58 216 68 310 43 392 -26 89 -128 163
-265 195 -80 18 -92 25 -178 106 -107 99 -119 149 -48 184 35 17 67 19 388 20
385 1 384 1 545 68 144 59 255 66 319 18 14 -10 37 -39 51 -63 25 -44 25 -46
26 -299 0 -140 5 -287 11 -326 19 -125 -9 -296 -77 -472 -17 -45 -88 -196
-157 -335 -195 -391 -227 -490 -243 -735 -32 -491 -50 -690 -76 -832 -75 -408
-262 -674 -583 -826 -182 -87 -277 -175 -323 -300 -37 -99 -30 -250 22 -509
67 -337 65 -507 -8 -653 -130 -259 -141 -278 -211 -345 -199 -193 -509 -196
-722 -8 -112 99 -176 275 -150 416 5 28 16 93 26 145 28 152 -1 214 -99 212
-94 -2 -224 -79 -338 -201 -89 -94 -133 -177 -146 -277 -25 -183 -122 -264
-452 -380 -165 -57 -235 -92 -277 -136 -37 -38 -53 -76 -53 -123 0 -31 7 -38
89 -95 92 -63 223 -190 279 -272 154 -224 212 -531 160 -848 -10 -63 -9 -68
21 -130 38 -82 89 -133 131 -133 110 0 225 288 251 626 12 159 22 203 67 290
116 224 410 290 692 155 68 -33 101 -57 166 -122 96 -96 136 -169 164 -301 22
-105 120 -494 151 -598 28 -98 83 -209 120 -246 45 -46 95 -43 147 7 63 60 68
108 64 725 -2 421 0 540 12 636 21 161 58 297 113 416 138 301 174 424 253
865 74 412 114 555 208 750 42 87 57 106 172 220 216 214 320 403 393 715 45
191 67 413 82 830 20 585 31 630 267 1120 268 557 301 682 277 1047 -21 309 3
531 116 1068 79 380 101 505 127 736 l22 205 -28 225 c-15 125 -36 256 -48
293 -144 476 -695 770 -1493 798 l-179 6 -68 69 c-88 90 -172 211 -303 443
-196 343 -292 473 -424 573 -96 72 -193 114 -330 141 -131 27 -185 25 -351 -9z
m449 -460 c114 -99 297 -321 391 -475 150 -245 240 -514 240 -715 0 -172 -70
-366 -172 -479 -27 -30 -28 -30 -70 -15 -71 25 -124 61 -181 125 -73 81 -114
166 -188 394 -34 105 -79 225 -102 268 -47 92 -121 177 -186 215 -25 14 -73
46 -106 70 -129 95 -237 131 -410 139 -146 7 -227 -3 -545 -67 -279 -56 -411
-76 -436 -66 -15 6 -15 8 -1 24 23 26 208 155 335 234 354 223 639 337 1002
402 14 2 102 4 196 3 l170 -2 63 -55z m-711 -833 c149 -52 264 -147 366 -301
78 -117 140 -253 249 -553 52 -142 104 -278 114 -303 14 -31 22 -80 26 -160 8
-135 32 -278 88 -515 117 -495 136 -675 97 -905 -16 -100 -19 -104 -90 -97
-162 15 -275 137 -352 383 -13 45 -46 184 -72 310 -25 126 -60 267 -76 314
-16 47 -67 204 -113 350 -120 381 -184 533 -292 697 -95 145 -224 257 -356
311 -158 63 -313 68 -547 17 -322 -70 -550 -136 -1190 -345 -234 -76 -495
-160 -580 -186 -85 -26 -175 -57 -200 -69 -60 -30 -146 -55 -189 -55 -20 0
-55 9 -78 20 -115 52 -110 206 10 287 54 36 121 53 214 53 80 0 299 66 845
256 895 311 1227 411 1598 483 85 17 164 32 175 35 11 3 79 4 150 2 109 -2
142 -7 203 -29z m2267 -268 c356 -44 713 -279 815 -538 46 -119 68 -436 41
-606 -54 -336 -225 -616 -477 -778 -199 -128 -412 -178 -784 -183 -311 -4
-381 16 -500 142 -103 111 -156 255 -147 401 15 250 209 368 473 288 298 -91
620 -137 797 -115 169 21 268 82 296 183 18 64 9 182 -22 277 -13 41 -32 101
-41 132 -31 107 -114 186 -239 227 -35 12 -155 35 -266 51 -277 40 -341 61
-420 135 -27 25 -56 63 -66 85 -17 38 -17 43 -2 76 23 47 100 128 151 158 53
31 126 55 196 65 80 12 95 12 195 0z m-3032 -473 c253 -49 471 -217 592 -456
58 -115 95 -258 95 -368 0 -84 27 -184 129 -472 153 -434 189 -577 198 -780
10 -227 -29 -375 -140 -542 -76 -113 -99 -130 -175 -136 -131 -9 -192 74 -258
358 -51 222 -69 280 -113 362 -55 102 -100 230 -180 505 -85 290 -119 390
-179 512 -121 249 -327 431 -540 476 -129 27 -319 37 -466 25 -271 -21 -434
-59 -986 -227 -369 -112 -671 -181 -920 -208 -71 -8 -129 10 -150 47 -14 26
-13 31 9 73 40 76 156 159 287 206 54 20 81 22 324 24 223 1 284 5 383 23 243
45 414 97 852 259 171 63 373 135 450 160 77 24 163 54 190 65 96 40 242 88
296 97 84 14 220 12 302 -3z m2817 -231 c257 -19 441 -153 416 -304 -7 -45
-56 -142 -78 -155 -23 -14 -152 6 -363 55 -93 22 -215 50 -270 61 -74 16 -107
28 -128 47 -32 30 -67 98 -67 132 0 34 34 86 72 109 63 39 221 72 308 64 19
-2 69 -6 110 -9z"/>
</g>
</svg>
