<?xml version="1.0" encoding="utf-8"?>
<!-- Generator: Adobe Illustrator 22.1.0, SVG Export Plug-In . SVG Version: 6.00 Build 0)  -->
<svg version="1.1" xmlns="http://www.w3.org/2000/svg" xmlns:xlink="http://www.w3.org/1999/xlink" x="0px" y="0px"
	 viewBox="0 0 640 257" style="enable-background:new 0 0 640 257;" xml:space="preserve">
<style type="text/css">
	.st0{clip-path:url(#SVGID_2_);}
	.st1{fill:#C6A659;enable-background:new    ;}
	.st2{opacity:0.25;fill:#D7B970;enable-background:new    ;}
	.st3{opacity:0.25;fill:#A5884E;enable-background:new    ;}
	.st4{opacity:0.25;fill:#F2CC8F;enable-background:new    ;}
	.st5{fill:#E01F52;}
	.st6{fill:#222438;enable-background:new    ;}
	.st7{fill:#3D405B;}
	.st8{fill:#222438;}
	.st9{fill:#262842;}
	.st10{fill:#1F4D5C;}
	.st11{fill:#063B4C;}
	.st12{fill:#456B77;}
	.st13{fill:#BBEAD2;}
	.st14{enable-background:new    ;}
	.st15{fill:#02D69F;}
	.st16{fill:#D7B970;}
	.st17{fill:#76DBF7;}
	.st18{fill:#870745;}
</style>
<g id="Layer_2">
	<g>
		<defs>
			<polygon id="SVGID_1_" points="640,257 0,257 0.5,0 640,0 			"/>
		</defs>
		<clipPath id="SVGID_2_">
			<use xlink:href="#SVGID_1_"  style="overflow:visible;"/>
		</clipPath>
		<g class="st0">
			<rect x="0" class="st1" width="640" height="257"/>
			<path class="st2" d="M520.2-0.1c-2,2.8-2,6.3,1.3,8.5c3.3,2.2,10.3,2.1,12.4-0.7c-0.7,5.4-1.2,11.3,3.7,15.8
				c3.5,3.2,9.3,5.3,12.8,8.6c2.5,2.3,3.5,5.1,5.5,7.6c2,2.5,5.3,4.9,9.7,5.2c1.1-3.1,3-6.1,5.7-8.8c0.4-0.4,0.8-0.8,1.5-0.9
				c1.6-0.4,2.9,0.8,3.6,1.8c4.5,6.4,9,12.8,13.6,19.2c2.5-3.7,6.5-7,11.7-9.4c0.1,6.9,2.3,13.8,6.5,20.2c0.4-2.4,6.2-2.9,9-1.3
				c2.8,1.6,3.2,4.2,3.3,6.6c0.1,3.6-0.4,7.7-4.9,10c-1,0.5-2.2,1-3.5,1c-5,0-5.2-4.9-8.9-7c0.1,2.2-0.8,4.6-3.6,6s-7.8,0.8-8.8-1.3
				c-7.9,4.7-15.2,9.8-21.9,15.1c-2,1.6-3.4,4.3-0.5,5.1c1.4,0.3,2.9-0.1,4.3-0.1c3.6-0.1,6.3,2.2,7,4.5c0.8,2.2,0.4,4.6,1.6,6.7
				s4.9,4,8.3,3.2c1.6-0.4,2.7-1.3,4.3-1.8c4.7-1.2,8.7,2.4,10.1,5.4c5.2,11.4,4.2,23.5,7.1,35.2c3.1,12.2,10.6,24.2,9.8,36.5
				c-0.1,2-0.7,4.3-3.3,5.4c-1.7-0.8-3-1.9-3.8-3.2c2,8,2.7,17.4,4.6,25.5c5.5,0.7,11,1.4,16.6,2.1c1.7,0.2,3.6,0.5,4.8,1.3
				c1.5,1,1.6,2.5,1.5,3.9c-0.2,8.2-0.3,16.5-0.5,24.7c0,1.5-0.1,3.1-1.6,4.3c-1.3,1-3.5,1.5-5.5,1.9c-16.2,2.9-33.2,3.1-50.1,3.3
				c-17.4,0.2-35.3,0.3-51.7-3.3c-8.5-1.9-16.4-4.8-25.1-6.5c-12.2-2.4-25.4-2.4-37.3-5.3c-4.8-1.1-9.3-2.7-14.4-3.2
				s-10.9,0.2-13.7,2.9c2.1-3.7-2.7-7.7-8.4-9.2s-12.3-1.4-18.5-1.7c-10.9-0.7-21.5-3.3-30.3-7.4c-1.3-0.6-2.6-1.2-4.2-1.2
				c-5.1,0-6.5,6.2-11.4,5.4c-1.2-0.2-2.1-0.7-3-1.2c-9.2-5.3-23.2-7.1-35-4.6c-5-5.1-13.6-8.8-23-9.8c0.1,1.6-1.9,3.1-4.3,3.4
				c-2.5-1.6-4.9-3.2-7.4-4.9c0.7,4.9-11.2,8.3-16.7,4.7c-2.4-1.6-4.2-4.3-7.7-4.1c-1.8,0.1-3.1,1-4.6,1.6c-7,3.2-18.4,1.2-21.7-3.9
				c-3.2,3-6.8,5.8-10.9,8.3c-3.8-3.4-7.5-6.9-11.3-10.3c-0.3,2.9-6.7,4.2-10.9,2.8c-4.1-1.3-11.7,6-13.8,3.4s0.9-15.5-3.3-16.8
				c-0.1,1.2-0.1,2.5-0.2,3.7c0.4-0.9-18,15-19,15.7c-2.4-1.9-9.4-3.1-11.8-5c-4.3,3.2,7-7.3,0.5-6c-0.7-2.2,0.4-8.9-0.3-11.1
				c-0.4-1.2-1.2-2.7-3.2-3c-1.2-0.2-2.4,0.2-3.4,0.6c-7.5,3-10.1,10.4-18.9,11.4c-1.4,0.2-11.1,26-12.3,25.5
				c-3.2-1.2,4.9-30.4,1.5-31.5c-6.5-2.1-12.2,6.9-18.8,4.9c-1.5-0.5-2.5-1.5-3.4-2.4c-3-3.1-6.5-6.1-10.3-8.9
				c-1.2-0.8-2.9-1.8-4.6-1.4c-1.2,0.2-1.9,1-2.5,1.7c-4.2,4.9-8.4,9.8-12.7,14.6c-1,1.2-28.2,20.8-30.3,20.6
				c-3.9-0.4,22.6-23.6,18.7-23.6c-0.6,0.8-1.2,1.6-1.7,2.5c-4.2,0-6.8-2.8-8.8-5.2c-3.8-4.5-8.9-8.5-14.9-11.9
				c-0.8,4.9-2.4,10.5-9.3,12.9c-1.1,0.4-2.3,0.7-3.3,1.2c-2.1,1.2-2.2,3.1-2.6,4.9c-0.6,3.1-2.3,6.1-5,8.8
				c-0.2-2.7-1.9-5.3-4.9-7.3c-1.2,4.2-6.2,12.3-12.9,11.4C12.3,149-14,69.9-7.4-3.6c153.5,4,307.1,5.8,460.7,5.4
				c22.1-0.1,43.9-0.3,65.6-2.8C519.2-1,519.9-0.1,520.2-0.1z"/>
			<path class="st3" d="M10.8,19.1c2.3,1.2,4.7,2.6,7.7,3.1c3,0.5,6.7-0.1,7.8-1.9c0.4-0.7,0.4-1.4,0.4-2.1
				C26.6,11.5,26.6,4.8,26.5-2C15.1-3.4,3.6-4.5-7.9-5.2c0.6,3-0.2,6.1-0.2,9.2C-8,12.2,2,14.5,10.8,19.1z"/>
			<path class="st4" d="M133.9-3c-0.5,4.5-0.1,9.1,1.1,13.5c0.1,0.5,0.3,1,0.9,1.4c1.1,0.7,3.2,0.4,4.3-0.2s1.7-1.7,2.5-2.5
				c1.3-1.4,3.5-2.7,6.1-2.9c7.2-0.7,11.3,5.6,18.4,6.4c0.8-3.2,2.5-6.4,4.9-9.3c5.9,3.3,11.9,6.5,17.8,9.8c1.1-2.5,6.9-3.4,9.9-1.6
				c0.8,0.5,1.4,1.1,2.3,1.5c2,0.7,4.4-0.1,6.3-0.9c2.2-0.9,4.3-1.8,6.5-2.8c2-0.9,4.6-1.8,6.8-1.1c4.5,1.5,0.8,7.4,5.7,8.2
				c4.6,0.7,7.3-5,11.8-4c-0.4,1.3,0.2,2.7,1.6,3.7c3.2-0.8,7,0.3,8.7,2.2s2,4.1,3.1,6.1s3.5,4.1,6.9,4.3c0.5,0,1.1,0,1.6,0.2
				c0.9,0.3,1.3,0.9,1.6,1.5c3.5,6.2,8.9,11.9,15.9,16.8c0.3-4.7,5.7-9.1,12.9-10.5c0.1,2.4,1.3,4.7,3.5,6.7c4.4-2.2,9.1-4.2,13.9-6
				c0.5,1.4,4.1,1.1,5.8,0.1s3.4-2.5,5.7-2.2c1,4.1,1.1,8.2,0.2,12.3c2.7-0.8,5.4,1.2,6.3,3.1c0.9,1.8,1.8,4.1,4.7,4.5
				c4.4,0.7,6.7-3.5,11-4.5c-0.8-7.7-1.9-15.6-0.1-23.2c0.1-0.6,0.3-1.2,1-1.5c1.2-0.6,3.1,0,3.8,0.8c0.7,0.9,0.6,1.9,0.6,2.8
				c0.2,2.4,1.8,4.8,4.4,6.5c1.6-1.4,4.5-2.1,7.1-1.8c-0.6,3.5-0.1,7.1,1.5,10.5c1.8-2.6,3.8-5.1,6.8-7.2c3-2.1,7.3-3.6,11.8-3.4
				c1,1.4,2.1,2.8,3.3,4.3c0.3,0.3,0.6,0.7,1.1,0.9c0.9,0.3,2-0.1,2.8-0.5c4.1-1.8,10-3.5,13.7-1.3c0.9,0.5,1.4,1.2,2.3,1.7
				c3.6,2.2,9.6,1.1,14.2-0.2c1.3-0.4,3.3,0.2,3.8,1.1c0.5,0.9,0.8,1.9,2,2.4c0.8,0.3,1.9,0.3,2.9,0.3c6.1-0.3,12.8-1.1,17.8,1.1
				c2.8,1.3,4.4,3.3,6.5,5c2.2,1.7,5.6,3.1,8.9,2.4c1.6-0.3,3.3-1.1,4.6-0.5c0.8,0.3,1.1,0.9,1.6,1.3c1.9,1.6,6.1,0.9,8.7-0.3
				c2.7-1.1,5.5-2.7,8.7-2.2c3.7,0.6,4.9,3.4,5.5,5.8c1.2,5.2,2.3,10.4,3.5,15.6c13.1-1,14.1-15.5,27.2-16.5c0,1.5,0.1,2.9,0.1,4.4
				c0.1,3.8,5.4,7.3,10.1,9.7c4.7,2.4,12.7,2.8,16.3-0.2c0.8,2.4,4,4.5,7.9,5.2c-1.3-3.1,4.6-6.4,9.4-5.2c2.6-6,3.5-12.2,2.4-18.4
				c-0.4-2.3-1.3-4.8-4.4-6c-2.8-1.1-6.8-0.8-9.2-2.2c-2.4-1.4-3.6-4.4-6.8-4c-1.8,0.2-2.6,1.5-4.2,2c-2.5,0.8-5.3-0.4-7.4-1.5
				c-9.2-4.9-18.3-9.8-27.5-14.7c2.5-8,0.7-16.6-5.2-23.9C496.2,6.3,489,12.4,479.8,17c-1.2,0.6-2.6,1.2-4.2,1.3
				c-3.2,0.1-5.2-2.1-6.8-3.9c-4.1-4.6-12.5-8.7-20.3-6.8c-3.2,0.8-5.8,2.5-9.2,2.7c-7.2,0.4-11.9-6.1-19.1-5.5
				c-3,0.2-5.2,1.7-7.8,2.7C406.1,10,397,9.3,391.6,6c-2.2-1.4-4.4-3.3-7.5-3c-2.2,0.2-3.7,1.5-5.7,2c-5.1,1.5-10.3-1.7-14.8-3.9
				c-9.1-4.3-21.4-4.5-32.8-4.5C265.3-3.5,199.4-2.8,133.9-3z"/>
			<path class="st4" d="M588.7,120c6.2,4.8,11.2,10.1,15,15.8c7.3-3.4,18.4-3.1,25.3,0.6c7.7,4.1,9.3,11.1,10.3,17.4
				c0.8,4.9,1.7,9.9,2.5,14.8c0.5,2.9-1.7,7.3-6.1,6.2c-1.5-3.3-3.2-6.8-7.1-9.3c-3.9-2.5-10.7-3.5-15-1.4c-1.4,0.7-2.5,1.7-4.2,1.9
				c-5,0.7-6.2-4.7-10.7-6.2c-3.8-1.2-8.1,0.7-10.8,2.8c-2.6,2.1-5.3,4.6-9.5,4.9c-5.3,0.4-9.1-2.9-12.2-5.6s-8.7-5.4-13.2-3.6
				c-2.9,1.2-4.3,4-7.8,4.1c-6.4,0.2-5.1-8.4-11.5-8.4c-2,2.7-4.8,5.2-8.2,7.3c-0.5-1.5-1.8-2.8-3.6-3.7c-1.6,1-3.3,2.1-4.9,3.1
				c0.5-4.9-1.4-9.8-5.4-14c-1.5,2.4-3,4.8-4.4,7.3c-7.2-6.9-18.4-12.1-31-14.4c-1.3-0.2-2.7-0.5-4-0.3c-1.9,0.3-3.3,1.3-4.7,2.1
				c-5.3,3.1-13.9,4.5-20.2,2.1c-1.8-0.7-3.3-1.6-4.7-2.5c-2.8-1.7-5.6-3.4-8.4-5.2c-1.6,2.7-3.6,5.4-5.8,7.9
				c-0.7,0.8-1.6,1.7-2.9,2.1c-3.7,1.1-7.2-1.8-8.5-4.2c-1.3-2.5-3.5-5.6-7.7-5.2c-6.7,0.5-6.1,9.3-12.7,8.6
				c2.5-2.9,0.6-6.9-3.9-8.6c-4.5-1.7-11-0.7-14,2c-2.8-3-6.4-5.7-10.6-8c-1.7-0.9-4-1.9-6.1-1.4c-3.6,0.8-3,4.2-5.6,5.9
				c-3,1.9-8.4,0.6-11-1.5s-3.6-4.9-6.4-6.9s-8.6-3-11-0.8c-1.2-3.7-3.9-7.3-7.8-10.2c-1.4,0.8-2.7,1.5-4.1,2.3
				c-1.7-4.5-5-8.8-9.8-12.3c-1.5-1.2-4.1-2.3-6.1-1.5c-1.7,0.7-1.6,2.3-3.1,3.2c-2.5,1.5-6.5-0.4-8.5-2.2
				c-6.8-5.7-13.5-11.5-20.3-17.2c-7.4,9.3-10.1,20-7.6,30.3c-2.1-3.3-4.2-6.5-6.4-9.8c0.5,3.6-0.1,7.3-1.7,10.8
				c-6.1-5.4-12.1-10.7-18.2-16.1c-0.8,1.4-2.5,2.6-4.5,3.3c-2-1.9-5.5-3.3-9.2-3.5c1.7,2.8-1.7,6.3-6.5,6.8c-4.8,0.5-9.7-2-10.4-5
				c-10.1,4.1-26.9,2.2-34.7-3.5c0.9,5.8,0,13.3-8.9,15c-1-7.4-5.6-14.6-13-20.4c-9.7,10.5-17.4,21.8-22.7,33.4
				c-2.1-5.5-9.6-10.1-18.5-11.3c0.1,2.6-0.9,5.1-3,7.4c-1.8-2.7-6.1-4.7-10.8-5c-0.4,1.8-0.7,3.5-1.1,5.3
				c-9.5-12.7-23.9-23.9-41.6-32.6c0.5,4.2-0.1,9.7-6.5,11.1c-1.6-3.3-5.1-6.2-9.8-8.1c-13.7,18.8-12.7,41.5,2.6,59.8
				c-4.6-2.5-10.3-4.1-16.2-4.7c0.1,5.8-3.6,11.6-10.1,15.7c-9.5-6.9-13.5-16.3-14.1-25.4c-0.6-9.1,1.9-18.2,3.9-27.3
				c5.3-24.2,7.3-48.6,5.8-73c7.5,0.2,15.1,0.5,22.6,0.7c1.2,0,2.5,0.1,3.6-0.3c1.9-0.6,2.4-2.2,3.5-3.3c4-4,14.3-2.2,19.6,1.3
				s9.3,8.2,16.6,9.4c9.3,1.6,18.1-3.4,23.3-8.4s9.4-11.1,18-13.8c0.8,3.2,5,6,10.1,6.8c1-4.7,3.8-9.3,7.9-13.2
				c2.2-2.1,6.5-4.3,9.9-2.9c1.9,0.8,2.6,2.3,3.2,3.7c3,6.1,10.7,11.3,20.2,13.7c0.2-1.8,0.4-3.7,0.6-5.5c4.7,5.7,12.7,10.4,22.2,13
				c3.3,0.9,7.5,1.5,10.3,0c1.5-0.8,2.2-2.1,3.8-2.8c4-1.9,9.4,0.8,12.3,3.4c2.9,2.6,7.3,5.6,11.9,4.4c2.5-0.6,4-2.4,6.5-3
				c4-1,8,1.2,11.7,2.5c3.7,1.4,10.3,1.1,10.3-1.6c10.5,10.8,21.1,21.5,31.6,32.3c4.7-3.7,9.4-7.4,14-11.1c0.9-0.7,1.8-1.4,3.1-1.6
				c4.2-0.7,5.7,3.1,6.6,5.8c1.8,5.3,10.3,9.4,19,9.2c2.5,0,5.1-0.4,7.6-0.1c7.6,1.1,8.6,7.6,7.8,12.4c4.7,0.3,9.5-0.2,13.8-1.4
				c0.6,2.8,1.1,5.6,1.7,8.4c0.2,1.1,0.4,2.2-0.4,3.2c-2.3,2.7-9.1,1.2-12.5-1.1c-3.4-2.2-7.8-5.1-12.4-3.9
				c-1.4,5.8-2.8,11.5-4.2,17.3c-0.8-1.9,0.2-4.1,2.5-5.5c-1,3.3,2.2,6.9,7.2,8.1c5,1.2,11.2-0.1,14.1-2.9c2.1,3.6,7.3,6.4,13.3,7.2
				c3.2-3.6,6.4-7.1,9.7-10.7c3.5,3.9,7.3,8,13.5,10.3c6.2,2.3,15.4,2.2,19.4-1.6c2.4,2.8,4.8,5.7,7.2,8.5
				c1.2-3.6,10.7-4.5,13.5-1.2c1.1-7.2-1-15.9-7.9-21.7c-6.2-5.3-17.1-7.4-25.6-11.2c-2.3-1.1-4.7-2.7-4-4.5
				c13.1-0.7,26.2-1.5,39.3-2.2c0.1,1.7-0.6,3.5-2,4.9c9.6-2.5,19.8-4.2,30.1-5c-3.6,3.9-5.6,8.3-5.9,12.8c-0.2,3.1,0.5,6.2-0.6,9.2
				c-1.8,5.1-8.4,9.1-10.6,14.1c3.7,1.8,8.3,3,13,3.2c2,0.1,4.1,0.1,5.9-0.5c6.7-2,4.9-8.7,10.1-12.1c3,1.9,6,3.8,8.9,5.6
				c1.7,1.1,4,2.2,6.2,1.6c1-0.3,1.7-0.9,2.3-1.5c7-6.9,13.2-14,18.7-21.4c2.9-3.9,5.8-8.1,11.1-10.9c0.9,9.8,2.8,19.6,5.7,29.3
				c1.3,4.3,4,9.3,10.9,10.1c1.7-2.3,4.1-4.5,7-6.3c1.8,2.3,1.3,4.9,1.6,7.4s1.9,5.3,5.7,6.2c2.9-2,3.1-5.7,7.2-6.7
				c1.7-0.4,3.6-0.2,5.4,0c7.4,0.6,15.1-0.5,21.5-3C583.1,122.9,587.4,121.2,588.7,120z"/>
			<path class="st4" d="M643.9,236.7c-0.3-2.7-5.8-4.1-9.8-3.2c-4.1,0.9-6.9,3.1-9.4,5.3c-3.9-5.2-8.9-10-14.8-14.5
				c-0.6,2-1.7,4.3-4.7,5c-3,0.6-6.1-0.8-8.1-2.3s-3.7-3.4-6.5-4.2c-2.9-0.8-7.3,0.3-6.8,2.3c-2.3-3.5-1.3-7.7,2.5-10.7
				c1-0.8,2.3-1.5,3.9-1.5c4.1,0.1,3.6,4.1,6.4,5.9c2,1.3,5.4,1.1,8.3,0.9c4.8-0.4,9.6-0.8,14.4-1.2c10.5-0.9,23.8-0.8,28.3,5.1
				c-0.4-9.9-2.1-19.8-5.1-29.6c-0.4-1.2-1.1-2.7-3-3c-1.9-0.3-3.7,0.7-5.1,1.6c-4.2,2.8-10.3,5.8-15.8,4c-5.7-1.9-4.9-7.2-8.3-10.5
				c-3-2.9-9.1-4.1-14.6-3.8s-10.7,1.8-15.7,3.3c0.4-5.7-7.7-11-16.8-11c-1.8,0-3.8,0.2-5,1c-1,0.6-1.4,1.5-1.8,2.4
				c-2.2,4.9-4.4,9.9-6.5,14.8c-4.2-6.3-8.4-12.7-12.6-19c-2.5-3.8-7.7-8.5-14-7c-2.9,0.7-4.8,2.6-7.8,3.3
				c-5.9,1.3-10.8-2.8-14.4-5.9c-4.8-4.2-11.2-7.6-18.6-10c-1.7-0.5-3.7-1-5.3-0.4c-1.1,0.4-1.7,1.2-2.3,1.9
				c-3.2,3.9-11.4,7.3-16.8,4.4c-1.6-0.9-2.6-2.1-4.1-3c-3.5-2-9.3-1.6-13.2,0s-6.6,4.2-9.2,6.7c-3.4,3.1-7.2,6.1-11.2,9
				c-1.8,1.3-3.9,2.6-6.6,2.9c-4.6,0.6-8.6-1.8-11.4-4.1c-4.9-3.9-9.1-8.2-15.3-11.3s-14.9-4.9-22.1-2.8c-9.6,2.7-12.7,10.8-22,14
				c-2.4-5.8-6.6-11.3-12.4-16.1c-1.7-1.4-3.7-2.9-6.4-3.5c-5.8-1.4-11.9,1.3-17.5,3.1c-14,4.5-32.3,3.2-44.2-3.3
				c-0.6,4.3-2.8,9.7-9.6,10.4c-5.8,0.6-10.5-2.7-15.3-4.9c-4.8-2.2-13.6-2.5-14.7,1.1c-2-3-8.8-5.1-14-5.6
				c2.3,6.5-7.3,13.6-18,13.3c-12.9-0.4-20.8-8.9-31.9-13c-1.6-0.6-3.7-1.1-5.1-0.4c-1.2,0.6-1.4,1.6-1.6,2.5c-0.8,3.1-4.1,6.2-9,7
				c-4.9,0.8-10.9-1.3-11.1-4.5c0.3,2.6-0.5,6.2-4.7,6.5c-2.2,0.2-4.3-0.7-6-1.6c-6.2-3-12.4-6-18.6-9.1c-1.1-0.5-2.6-1.1-3.8-0.7
				c-0.8,0.3-1.1,0.9-1.3,1.4c-5.5,13.3-10.2,26.8-13.9,40.3c12.4-1.2,15.9-12.8,28.1-14.6c1.1,1.9,2.2,3.8,3.3,5.7
				c2.4-2,6.5-4.2,9.9-2.9c1.1,0.4,1.9,1.2,2.9,1.7c5.5,2.7,12.9-2.5,19.9-2.1c8.4,0.4,12.6,8.7,21,7.9c2.5-0.2,4.6-1.3,6.6-2.2
				c4.1-1.9,8.8-3.5,13.9-3.6s10.6,1.7,11.9,4.8c0.4,0.9,0.5,1.9,1.5,2.6c2,1.4,5.6,0.4,8-0.7c6.6-2.9,13.2-5.7,19.8-8.6
				c3.9-1.7,8-3.4,12.7-3.9c4.7-0.4,10.2,0.9,11.7,3.8c0.5,1,0.7,2.3,2.3,2.7c1.6,0.4,3.2-0.4,4.5-1.1c3.5-1.9,7.4-3.5,11.7-4.6
				c1.5-0.4,3.3-0.7,4.7-0.2c1.3,0.5,1.7,1.6,2,2.5c2.4,8.3,4.2,16.7,5.5,25.1c12.6-8.3,26.2-16.1,40.6-23.2
				c5.5,8-2.7,17.2-0.3,25.7c4.9-1.1,9.9-2,15-2.7c1-0.2,2.2-0.3,3.1,0c1.2,0.4,1.4,1.4,1.6,2.2c1.5,5.5,6.7,10.5,14.1,13.6
				c2.1-2.2,5.5-3.9,9.4-4.7c0.9-0.2,1.8-0.3,2.7-0.2c3.8,0.6,2.2,4.8,5.5,6.1c3.5,1.5,7.6-1.7,11.8-1.9c3.3-0.1,5.9,1.7,7.9,3.4
				c-0.3,1.6,0,2.8,1.1,4.3c3-0.1,4.7-2.1,7.1-3.2c4.6-2,11-0.5,15.3,1.8c4.3,2.2,7.8,5.2,13,6.5c0.8,0.2,1.7,0.3,2.4,0.1
				c0.7-0.2,1.1-0.7,1.5-1.1c2.2-3,2.4-6.4,4.7-9.3c2.3-2.9,8.4-5.2,12.7-3.3c1.3,0.6,2.2,1.4,3.2,2.2c2.9,2.3,6.6,4.3,10.8,5.6
				c1.2,0.4,2.6,0.8,4,0.6c1.4-0.2,2.4-0.9,3.4-1.6c5.2-3.4,11.8-5.9,19-7.3c2.4-0.5,5.7-0.6,6.9,0.8c0.5,0.5,0.5,1.2,1.2,1.6
				c2.3,1.4,5.3-1.8,8.5-1.7c3.8,0.1,3.6,4.3,7.2,5.2c1.5-1.5,4.4-2.5,7.3-2.4c0.7,2.5,2.4,5.6,6.5,5.7c3.2,0.1,6.2-1.9,9.2-1.3
				c2.7,0.6,3.3,2.7,4.3,4.4c2.5,4.1,10.8,6.5,17.5,5c10.3-2.4,22.9,0.9,31.9,4.8c1.2-1.6,4.8-2,7.5-1.4c2.7,0.5,5,1.7,7.7,2.4
				c5.2,1.3,11.2,0.7,16.5,1.9c2.4,0.5,4.7,1.5,7.2,1.6c6.2,0.4,11.6-3.7,17.8-3.1C649.5,241.3,647.3,239.3,643.9,236.7z"/>
			<path class="st3" d="M637.8,44.3c-2.7-0.6-5.5-0.1-8.3,0.4c-0.7,3.6-2.1,7.1-4,10.3c-0.4,0.6-0.8,1.3-1.5,1.6
				c-1.5,0.7-3.1-0.6-4.4-1.7c-6.1-5.4-13.8-9-21.9-10.2c-0.5,3.4-0.9,6.8-1.4,10.2c-0.2,1.6-0.7,3.5-2.2,4.1
				c-1.1,0.4-2.3-0.2-3.4-0.7c-3.3-1.7-6.7-3.2-10.4-3.6c-3.7-0.4-7.6,0.5-10.2,3.2c-3.9,4.1-3.5,11-7.8,14.7c-1,0.9-2.3,1.6-3,2.7
				c-0.7,1.2-0.7,2.7-0.6,4.1c0.1,2.3,0.2,4.6,0.3,6.9c0.1,2.7,0.9,6.1,3.6,6.3c1.8,0.2,3.2-1.3,4.3-2.8
				c8.3-11.5,8.4-26.7,11.1-40.7c0.5-2.5,2.7-5.7,4.8-4.3c0.9,0.6,1.2,1.8,1.4,2.9c1.3,6.4,4.1,12.5,8,17.7c0.7,0.9,1.5,1.8,2.6,1.7
				c1.1-0.1,1.8-1.3,2.3-2.4c3.1-7,6.1-13.9,9.2-20.9c4.6,7.5,9.4,14.9,14.6,22c2.4-5.9,4.8-11.8,7.3-17.7c0.3-0.8,0.8-1.7,1.7-1.8
				c0.7-0.1,1.3,0.5,1.8,1.1c2.8,3.1,5.5,6.3,8.3,9.4C636.9,53.2,648.9,46.6,637.8,44.3z"/>
			<path class="st3" d="M28.9,58.2C35,71.3,43.6,83.1,54.1,93c3.5,3.3,7.9,6.5,12.6,5.6c3.9-0.8,6.6-4.2,9.1-7.2
				c15.7-18.6,39-30.6,63.2-32.5c5.9-0.5,12-0.3,17.3,2.1c4.7,2.1,8.4,5.8,12.2,9.3c8.9,8.2,18.8,15.7,30.4,19
				c11.6,3.3,25.2,1.5,33.8-6.9c2.1-2.1,5.2-4.7,7.6-3c0.7,0.5,1.1,1.3,1.5,2c3.1,6.7,1.9,14.5,2.4,21.8c0.5,7.4,4.1,15.8,11.3,17
				c5.3,0.9,10.3-2.5,14.8-5.5c12.4-8.3,29.4-14.8,41.5-6.1c14.4,10.3,11.2,34.6,24.5,46.3c11.3,10,29.3,6.1,42.1-1.7
				c12.8-7.9,23.7-19.3,37.9-24.3c2.7-1,5.9-1.7,8.5-0.3c1.6,0.9,2.7,2.4,3.8,3.9c4.8,6.7,99.5,3.8,104.3,10.5c0.2-10,105.8,5,106-5
				c0.7,17.5-195.2,19.7-196.6,37.2c-3.8-7.2-7.6-14.4-11.4-21.5c-2.6-4.9-5.4-10-10.1-12.9c-9.4-5.7-21.8-0.1-29.6,7.6
				c-7.9,7.7-13.9,17.6-23.6,22.7c-3.1,1.7-7.1,2.7-10,0.7c-1.6-1.1-2.5-2.9-3.3-4.7c-8-18-7.3-39.1-16.5-56.5
				c-1.2-2.2-2.7-4.5-5-5.3c-3.2-1.1-6.6,0.9-9,3.1c-10,9.1-15.4,24.7-28.6,27.8c-8.6,2-17.2-2.2-25.8-4.1
				c-15.5-3.5-32.6,1.1-44.4,11.8c-3.7-13.1-10.8-25.2-20.5-34.8c-2-2-4.2-4-7-4.7c-6.3-1.8-12.5,3.3-16,8.8
				c-3.5,5.6-5.7,12.1-10.6,16.4c-2.6,2.2-6,3.7-9.3,2.8c-2.2-0.6-4-2.2-5.8-3.7c-8.1-7.3-15.9-15.2-25.8-19.5
				c-10-4.3-22.9-3.9-30.2,4.1c-2.6,2.9-4.3,6.5-7.1,9.2s-7.4,4.2-10.5,1.8c-1.5-1.2-2.3-3.1-3.1-4.9c-4.6-11.5-11.4-25.2-23.8-25.6
				c-1.8,15.6-11,30.2-24.3,38.7c-7.2,4.6-15.7,7.6-20.8,14.4c-4,5.4-6,13.2-12.3,15.7c3-1.2,3.3-28.1,3.5-32
				C2,119.3,2.1,108,1.6,96.8C0.8,79,14.2,67.1,28.9,58.2z"/>
		</g>
	</g>
</g>
<g id="Layer_1">
	<g>
		<rect x="64.4" y="84.6" class="st5" width="19.1" height="10.7"/>
		<path class="st6" d="M83.5,84H64.2v11.7h9.4v12h0.6v-12h9.3V84z M82.9,95.1h-18V84.6h18V95.1z"/>
	</g>
	<g>
		<path class="st7" d="M0.7,255.8V143.2c12.1-0.3,43.6-0.7,75.3-0.7c31.9,0,72.6,0.4,85.7,2.4c9.8,1.5,19.3,4.6,29.8,8.4
			c24.3,8.6,96.2,9.7,163.3,9.7c23.8,0,48.9-0.2,73.1-0.3c23.6-0.2,47.9-0.3,70.5-0.3c60.7,0,124.7,1,141,8.6v84.8H0.7z"/>
		<path class="st8" d="M76,143.2c31.8,0,72.5,0.4,85.6,2.3c9.8,1.5,19.2,4.6,29.6,8.3c24.4,8.6,96.3,9.8,163.5,9.8
			c23.8,0,48.9-0.2,73.1-0.3c23.6-0.2,47.9-0.3,70.5-0.3c60.1,0,123.5,1,140.2,8.4v83.7H1.4V143.9C14,143.6,44.9,143.2,76,143.2
			 M76,141.8c-32.8,0-64.7,0.4-76,0.7v114h640v-86c-14.9-7.4-72.3-8.9-141.7-8.9c-45.6,0-96.4,0.6-143.6,0.6
			c-74.4,0-140.1-1.6-163-9.7c-9.8-3.5-19.6-6.9-29.9-8.4C149.4,142.3,112.1,141.8,76,141.8L76,141.8z"/>
	</g>
	<g>
		<path class="st9" d="M324.9,255.8l3.3-45.9c20.2-11.8,113.1-25.5,163.2-32.9c11.1-1.6,19.9-2.9,25-3.8c1-0.2,2.4-0.3,4.2-0.3
			c7.7,0,21,1.7,33.9,3.3c12.9,1.6,25.2,3.2,32.3,3.2c1.4,0,2.6-0.1,3.5-0.2c3.8-0.5,11.9-0.6,20.4-0.6c11.4-0.1,23.1-0.1,28.7-1.2
			v78.4H324.9z"/>
		<path class="st8" d="M520.5,173.6c7.6,0,20.9,1.7,33.8,3.3c13,1.6,25.2,3.2,32.4,3.2c1.5,0,2.6-0.1,3.6-0.2
			c3.8-0.5,11.8-0.6,20.3-0.6c10.9-0.1,22-0.1,28-1.1v76.9H325.6l3.2-44.7c20.8-11.7,116.4-25.8,162.6-32.6
			c11.1-1.6,19.9-2.9,25-3.8C517.4,173.7,518.8,173.6,520.5,173.6 M520.5,172.2c-1.7,0-3.2,0.1-4.3,0.3
			c-27.8,4.7-164.6,22.4-188.7,37l-3.4,47H640v-80c-8.9,2.2-40.9,0.8-49.9,2c-0.9,0.1-2.1,0.2-3.4,0.2
			C572.3,178.7,535.7,172.2,520.5,172.2L520.5,172.2z"/>
	</g>
	<g>
		<path class="st10" d="M226.2,256.3v-46.3c2.5-1.1,7.6-1.7,15.2-1.7c10.7,0,24.2,1.1,35,1.9c7.2,0.6,12.9,1,15.9,1
			c0.5,0,0.9,0,1.2,0c10.3-0.8,18.9-1.1,26.2-1.1c12.4,0,20.8,1.1,31.4,2.4c8.5,1.1,19.1,2.4,34.7,3.5l-1.5,40.3H226.2z"/>
		<path class="st8" d="M241.4,209c10.6,0,24.1,1.1,35,1.9c7.2,0.6,12.9,1,16,1c0.5,0,0.9,0,1.3,0c10.3-0.8,18.9-1.1,26.1-1.1
			c12.4,0,20.7,1.1,31.3,2.4c8.4,1.1,18.8,2.4,34.1,3.5l-1.4,38.9H226.9v-45.2C229.4,209.5,234.3,209,241.4,209 M241.4,207.6
			c-7.3,0-13.2,0.5-15.9,1.9V257H385l1.5-41.6c-35.3-2.5-44-6-66.8-6c-7,0-15.4,0.3-26.2,1.1c-0.3,0-0.7,0-1.2,0
			C284.8,210.5,259.1,207.6,241.4,207.6L241.4,207.6z"/>
	</g>
	<g>
		<path class="st11" d="M347.2,256.3V246l16.8-18.1c5.6-6,31.8-16.7,40.1-17.1c12.8-0.7,23.7-3.8,35.3-7.2c5.2-1.5,10.5-3,16.1-4.4
			c1.1-0.3,2.6-0.4,4.3-0.4c12.3,0,37.1,6.7,61,13.1c21.8,5.9,42.4,11.4,51.8,11.4c0.6,0,1.1,0,1.6-0.1c9-0.7,46.1-3.1,61.4-3.1
			c1.5,0,2.8,0,3.8,0.1v36.1H347.2z"/>
		<path class="st8" d="M459.8,199.5c12.2,0,36.9,6.6,60.8,13.1c21.8,5.9,42.5,11.4,52,11.4c0.6,0,1.1,0,1.6-0.1
			c9-0.7,46-3.1,61.3-3.1c1.2,0,2.2,0,3.1,0v34.7H347.9v-9.3l16.6-17.9c5.4-5.8,31.6-16.5,39.6-16.9c12.9-0.7,23.8-3.9,35.4-7.2
			c5.2-1.5,10.5-3,16.1-4.4C456.7,199.6,458.1,199.5,459.8,199.5 M459.8,198.1c-1.8,0-3.3,0.1-4.5,0.4
			c-18.1,4.3-32.7,10.5-51.3,11.5c-8.6,0.5-35,11.3-40.6,17.4c-5.7,6.1-11.3,12.2-17,18.3V257H640v-37.5c-1.1-0.1-2.6-0.1-4.5-0.1
			c-15.2,0-52.2,2.3-61.4,3.1c-0.5,0-1,0.1-1.5,0.1C553,222.6,483.5,198.1,459.8,198.1L459.8,198.1z"/>
	</g>
	<g>
		<path class="st12" d="M1.2,256.3v-72.1c1.1-0.1,2.3-0.1,3.6-0.1c14.5,0,38.8,3.8,60.2,7.2c16.9,2.7,31.6,5,38.6,5
			c0.8,0,1.5,0,2-0.1c2.8-0.3,6.2-0.4,10.1-0.4c33.5,0,97.5,11,109.4,14.5c5.9,1.8,12.5,6.3,18.9,10.7c5.1,3.5,10,6.9,14.5,8.8
			c22.8,10.1,23.4,10.1,29,10.1c5.1,0,14.6,0.1,50.7,8.5l23.5,7.8H1.2z"/>
		<path class="st8" d="M4.8,184.8c14.5,0,38.7,3.8,60.1,7.2c17,2.7,31.6,5,38.7,5c0.8,0,1.5,0,2.1-0.1c2.8-0.3,6.1-0.4,10-0.4
			c33.4,0,97.3,10.9,109.2,14.5c5.8,1.7,12.3,6.2,18.7,10.6c5.2,3.5,10,6.9,14.6,8.9c22.9,10.1,23.5,10.1,29.3,10.2
			c5.1,0,14.5,0.1,50.5,8.5l19.4,6.5H1.9v-70.7C2.8,184.8,3.8,184.8,4.8,184.8L4.8,184.8 M4.8,183.4c-1.5,0-3,0-4.3,0.1V257H366
			l-27.7-9.2c-74.7-17.4-35.7,0.8-79.6-18.6c-10.2-4.5-22.8-16.4-33.5-19.6c-11.9-3.6-75.8-14.6-109.6-14.6c-3.8,0-7.2,0.1-10.1,0.4
			c-0.6,0.1-1.2,0.1-2,0.1C87.7,195.6,30.7,183.4,4.8,183.4L4.8,183.4z"/>
	</g>
	<g>
		<path class="st7" d="M322.8,256.3l1-0.3l0.1,0c32.4-18,82.6-19.5,131.3-19.5c9.2,0,18.4,0.1,28.2,0.1c9.8,0.1,19.9,0.1,30.1,0.1
			c38.4,0,83.4-1,125.9-8.4v27.9H322.8z"/>
		<path class="st8" d="M638.6,229.2v26.4H326.1c32.3-16.9,81.5-18.4,129.1-18.4c9.2,0,18.4,0.1,28.2,0.1c9.8,0.1,19.9,0.1,30.1,0.1
			C580.8,237.5,614.7,233.3,638.6,229.2 M640,227.5c-41.7,7.4-85,8.6-126.6,8.6c-20,0-39.5-0.3-58.3-0.3
			c-53.5,0-100.4,2.2-131.6,19.6l-5.8,1.7H640V227.5L640,227.5z"/>
	</g>
	<g>
		<path class="st9" d="M1.2,255.8v-13.9c15.2-7.5,91.9-13.6,134.6-13.6c12.5,0,21.3,0.5,25.5,1.5c17.9,4.1,35.7,12.8,54.6,26.5
			L1.2,255.8z"/>
		<path class="st8" d="M135.8,229c12.4,0,21.2,0.5,25.3,1.5c17.2,4,34.4,12.2,52.5,25.1L1.9,255.1v-12.7
			C17.9,235,93.5,229,135.8,229L135.8,229 M135.8,227.6c-43,0-120.6,6.1-135.3,13.9v15L218,257c-17-12.6-35.9-23.1-56.6-27.9
			C156.9,228.1,147.7,227.6,135.8,227.6L135.8,227.6z"/>
	</g>
	<polygon class="st8" points="320.5,31.8 323.6,31.8 323.6,243.9 320.5,243 	"/>
	<polygon class="st8" points="344.5,42.8 290.6,42.8 290.6,31 344.5,31 353.4,36.9 	"/>
	<polygon class="st8" points="344.9,95.5 291.1,97.8 290.6,85.9 344.4,83.7 353.5,89.2 	"/>
	<polygon class="st8" points="345.4,194.8 293.7,210 290.4,198.6 342.1,183.5 352.3,186.6 	"/>
	<polygon class="st8" points="295.3,99.7 349.2,100.5 349,112.4 295.1,111.5 286.4,105.5 	"/>
	<polygon class="st8" points="343.5,128.2 289.9,133.7 288.7,121.9 342.2,116.4 351.7,121.4 	"/>
	<polygon class="st8" points="298.1,178.8 350.6,166.6 353.3,178.1 300.8,190.3 290.8,186.5 	"/>
	<polygon class="st8" points="305.4,207.3 345.9,211.4 344.7,223.1 304.2,219 298.1,212.4 	"/>
	<polygon class="st8" points="339.9,151.7 288.1,137.1 291.3,125.7 343.1,140.3 350.1,148.4 	"/>
	<polygon class="st8" points="343.9,57.5 296.9,62.3 295.7,50.5 342.7,45.8 351.1,50.9 	"/>
	<polygon class="st8" points="301.4,157.3 348.5,152.5 349.7,164.3 302.6,169.1 294.3,164 	"/>
	<polygon class="st8" points="300.6,219.7 346.6,230.3 344,241.8 297.9,231.3 291.6,223.8 	"/>
	<polygon class="st8" points="302.9,62.7 349.7,69.8 347.9,81.5 301.1,74.4 294.3,67.4 	"/>
	<polygon class="st8" points="81.1,89.4 77.1,86.6 77.4,88.6 66.4,90.5 66.8,93.2 77.9,91.3 78.2,93.4 	"/>
	<g>
		<rect x="115.2" y="147.3" class="st13" width="38.8" height="21.7"/>
		<path class="st6" d="M154,146h-39.3v23.9h19v24.3h1.3v-24.3h19V146z M152.7,168.5h-36.6v-21.2h36.6V168.5z"/>
	</g>
	<polygon class="st8" points="149.1,161.7 143.2,153.7 142.6,157.8 120.1,154.4 119.2,159.9 141.7,163.4 141.1,167.6 	"/>
	<g>
		<g>
			<path class="st5" d="M69.4,102.1c0.2-0.4,0.3-0.9,0.7-1.2c0.5-0.5,1.3-0.5,1.9-0.2c0.6,0.3,0.9,1.1,0.7,1.7
				c-0.1,0.5-0.5,0.8-0.7,1.2c-0.5,0.8-0.7,1.8-0.7,2.8c0.1,2,0.5,3.9,0.6,5.8c0.1,2.1,0.2,4.1,0.4,6.2c0.2,2.1,0.5,4.2,1.3,6.1
				c0.7,2,1.9,3.8,2.6,5.7c0.4,1.1,0.7,2.4,0.6,3.6c-0.1,1.3-0.8,2.3-1.4,3.4c-0.6,1.2-1.1,2.6-2,3.7c-0.3,0.4-0.8,0.8-1.3,0.7
				c-0.4,0-0.8-0.3-1-0.6c-1.3-1.8,0.9-3.7,1.4-5.3c1-3.2-7.8,0.1-9.9,0.8c-1.9,0.6-3.3,1.8-4.5,3.4c-0.4,0.5-0.8,1.1-1.4,1.4
				s-1.4,0.3-1.8-0.3c-0.2-0.3-0.2-0.8-0.2-1.1c0.2-1.3,1.2-2.3,2-3.3c4.3-5.2,6-11.9,7.3-18.4C65.2,112.6,67.4,107.4,69.4,102.1z"
				/>
			<path class="st8" d="M72.1,142c0,0-0.1,0-0.1,0c-0.5,0-0.9-0.3-1.2-0.8c-1-1.4-0.1-2.8,0.6-4c0.3-0.5,0.6-1,0.8-1.5
				c0.2-0.5,0-0.7-0.1-0.7c-1.1-1-6.9,1-8.9,1.7c-0.2,0.1-0.5,0.2-0.6,0.2c-1.7,0.6-3.1,1.6-4.4,3.3l-0.1,0.1
				c-0.4,0.5-0.8,1-1.4,1.3c-0.7,0.4-1.6,0.3-2.1-0.3c-0.2-0.3-0.3-0.8-0.2-1.3c0.2-1.2,1-2.2,1.8-3.1l0.3-0.3
				c4.3-5.3,6-12.2,7.3-18.3c0.9-4.5,2.6-8.8,4.2-12.9c0.4-1.1,0.8-2.1,1.2-3.2l0,0c0.2-0.4,0.4-1,0.8-1.3c0.6-0.5,1.5-0.6,2.2-0.2
				c0.7,0.4,1,1.3,0.8,2.1c-0.1,0.4-0.3,0.7-0.5,1c-0.1,0.1-0.1,0.2-0.2,0.3c-0.5,0.7-0.7,1.6-0.6,2.6c0.1,1.1,0.2,2.1,0.3,3.2
				c0.1,0.9,0.2,1.8,0.3,2.7c0.1,0.9,0.1,1.7,0.1,2.6c0.1,1.2,0.1,2.4,0.2,3.6c0.2,2.4,0.6,4.4,1.3,6c0.4,1,0.8,1.9,1.3,2.8
				c0.5,0.9,1,1.9,1.3,2.9c0.5,1.4,0.7,2.6,0.6,3.7c-0.1,1.2-0.7,2.2-1.2,3.2l-0.2,0.4c-0.2,0.4-0.4,0.8-0.6,1.2
				c-0.4,0.8-0.8,1.7-1.4,2.5C73.2,141.7,72.7,142,72.1,142z M71,134.2c0.7,0,1.2,0.1,1.5,0.4c0.2,0.2,0.4,0.6,0.2,1.3
				c-0.2,0.5-0.5,1.1-0.9,1.6c-0.7,1.2-1.4,2.3-0.6,3.4c0.2,0.3,0.5,0.5,0.8,0.5c0.4,0,0.8-0.2,1.1-0.6c0.5-0.7,0.9-1.5,1.3-2.4
				c0.2-0.4,0.4-0.8,0.6-1.2l0.2-0.4c0.5-1,1-1.9,1.2-3c0.1-1-0.1-2.1-0.6-3.4c-0.4-1-0.8-1.9-1.3-2.9c-0.5-0.9-1-1.9-1.3-2.9
				c-0.6-1.7-1.1-3.7-1.3-6.2c-0.1-1.2-0.2-2.4-0.2-3.6c0-0.8-0.1-1.7-0.1-2.6c-0.1-0.9-0.2-1.8-0.3-2.6c-0.1-1.1-0.3-2.1-0.3-3.2
				c-0.1-1.1,0.2-2.1,0.7-3c0.1-0.1,0.1-0.2,0.2-0.3c0.2-0.3,0.4-0.5,0.5-0.8c0.1-0.5-0.1-1.1-0.6-1.4c-0.5-0.3-1.1-0.2-1.5,0.2
				c-0.3,0.3-0.5,0.7-0.6,1.1l0,0c-0.4,1.1-0.8,2.1-1.2,3.2c-1.6,4.1-3.2,8.4-4.1,12.8c-1.3,6.1-3,13.1-7.4,18.5l-0.3,0.3
				c-0.7,0.9-1.5,1.8-1.7,2.9c0,0.3-0.1,0.7,0.1,0.9c0.3,0.4,1,0.4,1.4,0.2c0.5-0.3,0.8-0.7,1.2-1.2l0.1-0.1
				c1.4-1.8,2.8-2.8,4.7-3.5c0.2-0.1,0.4-0.1,0.6-0.2C66,135.1,69.1,134.2,71,134.2z M69.4,102.1L69.4,102.1L69.4,102.1z"/>
		</g>
		<g>
			<path class="st5" d="M66.7,110.1c1.8,0,3.6,0,5.4-0.1c0.2,0,0.5,0,0.6-0.2c0.8-0.6,0-1.6,0.1-2.3c0-0.3,0.3-0.7,0.6-0.8
				c1.4-0.4,1,2.5,0.9,3.1c-0.1,0.8-0.8,1.4-1.6,1.6c-1.4,0.2-2.5,0.4-3.9,0.5"/>
			<path class="st8" d="M68.8,112c-0.1,0-0.1-0.1-0.1-0.2c0-0.2,0.1-0.3,0.3-0.3c1.3,0,2.4-0.2,3.7-0.4l0.1,0
				c0.8-0.1,1.3-0.6,1.4-1.3c0.2-1.4,0.1-2.4-0.2-2.7c-0.1-0.1-0.2-0.1-0.4,0c-0.2,0.1-0.4,0.3-0.4,0.5c0,0.2,0,0.5,0.1,0.8
				c0.2,0.5,0.4,1.3-0.3,1.8c-0.2,0.2-0.5,0.2-0.8,0.2c-1.3,0.1-2.6,0.1-3.9,0.1c-0.5,0-1,0-1.5,0c-0.2,0-0.3-0.1-0.3-0.3
				c0-0.2,0.1-0.3,0.3-0.3c0.5,0,1,0,1.5,0c1.3,0,2.6,0,3.9-0.1c0.2,0,0.4,0,0.5-0.1c0.3-0.2,0.3-0.5,0.1-1.2
				c-0.1-0.3-0.2-0.7-0.1-1c0.1-0.5,0.4-0.9,0.8-1c0.4-0.1,0.7,0,0.9,0.2c0.6,0.5,0.6,2,0.4,3.2c-0.1,0.9-0.8,1.6-1.9,1.8l-0.1,0
				c-1.3,0.2-2.4,0.4-3.8,0.4C68.9,112.1,68.8,112.1,68.8,112z"/>
		</g>
	</g>
	<g class="st14">
		<path class="st15" d="M402,146.9c-0.1-0.5-0.2-1-0.2-1.5c0.1-0.7,0.9-1.3,1.6-1.3s1.4,0.6,1.7,1.3c0.2,0.7,0.1,1.4,0.1,2.1
			c0,1.5,0.5,2.9,1.1,4.3c5.3,13.5,9.7,27.5,10.7,42c0,0.6,0.1,1.2-0.1,1.7c-0.2,0.7-0.8,1.2-1.6,1.1c-0.3-0.1-0.6-0.3-0.7-0.6
			c-0.2-0.5,0.2-0.8,0.4-1.1c0.5-0.8,0.3-1.8-0.1-2.7c-0.9-2.5-2.5-4.8-4.5-6.5c-1.5-1.3-3.5-2.3-5.3-1.5c-1.4,0.6-2.1,2.2-2.5,3.7
			c-0.1,0.6-0.3,1.3-0.6,1.9c-0.4,0.6-1.1,1.1-1.8,0.9c-0.4-0.1-0.7-0.5-0.7-0.9c-0.1-0.6,0.3-0.8,0.6-1.1c0.3-0.4,0.4-0.9,0.5-1.4
			c1-7.4,1.7-14.9,2.2-22.3c0.2-4.1,0.3-8.4-2-11.8c-1.1-1.6-2.8-2.8-4.1-4.3c-1-1.1-1.9-2.4-2.2-3.8c-0.1-0.4,0.4-0.7,0.8-0.4
			c0.5,0.5,1.2,1,1.4,1.2c0.8,0.8,1.7,1.5,2.5,2.3c0.6,0.5,1.6,1.7,2.4,1.3C402.4,149.2,402.1,147.6,402,146.9z"/>
		<path class="st8" d="M415.5,197c-0.1,0-0.2,0-0.3,0c-0.4-0.1-0.8-0.4-0.9-0.8c-0.2-0.6,0.1-1,0.3-1.2c0-0.1,0.1-0.1,0.1-0.2
			c0.3-0.5,0.3-1.3-0.1-2.4c-0.9-2.5-2.4-4.7-4.4-6.4c-0.7-0.6-2.9-2.3-4.9-1.4c-1.4,0.6-2,2.2-2.3,3.5l-0.1,0.3
			c-0.1,0.6-0.3,1.1-0.6,1.7c-0.4,0.7-1.3,1.4-2.2,1.1c-0.5-0.2-0.9-0.6-1-1.2c-0.1-0.6,0.3-0.9,0.5-1.2c0.1-0.1,0.1-0.1,0.2-0.2
			c0.2-0.3,0.3-0.7,0.4-1.2c1-7.4,1.7-14.9,2.2-22.3c0.3-4.1,0.3-8.3-1.9-11.5c-0.7-1-1.6-1.9-2.5-2.7c-0.5-0.5-1-1-1.5-1.5
			c-1.2-1.3-2-2.6-2.3-4c-0.1-0.4,0.1-0.7,0.4-0.9c0.3-0.2,0.7-0.1,1,0.1c0.3,0.3,0.7,0.6,0.9,0.8c0.2,0.2,0.3,0.3,0.4,0.4
			c0.8,0.8,1.7,1.5,2.5,2.2c0.1,0.1,0.2,0.2,0.4,0.4c0.5,0.4,1.2,1.1,1.6,0.9c0.4-0.2,0.5-1,0.3-2.3l0,0c0-0.1,0-0.2-0.1-0.3
			c-0.1-0.4-0.2-0.9-0.1-1.3c0.2-0.9,1-1.6,2-1.5c0.9,0,1.7,0.7,2,1.5c0.2,0.6,0.1,1.1,0.1,1.7c0,0.2,0,0.4,0,0.5
			c0,1.4,0.5,2.8,1.1,4.2c6.5,16.6,9.9,29.6,10.7,42.1c0,0.6,0.1,1.2-0.1,1.9C417,196.4,416.3,197,415.5,197z M406.5,183.6
			c1.8,0,3.4,1.2,4.2,1.8c2.1,1.8,3.7,4.1,4.6,6.7c0.3,0.8,0.6,2,0,3c0,0.1-0.1,0.1-0.1,0.2c-0.2,0.3-0.3,0.4-0.2,0.6
			c0.1,0.2,0.2,0.3,0.4,0.4c0.5,0.1,1-0.3,1.2-0.8c0.2-0.5,0.1-1.1,0.1-1.6c-0.9-12.4-4.2-25.3-10.7-41.8c-0.6-1.4-1.1-2.9-1.1-4.5
			c0-0.2,0-0.4,0-0.6c0-0.5,0.1-1-0.1-1.4c-0.2-0.6-0.8-1-1.3-1c-0.6,0-1.2,0.4-1.3,1c-0.1,0.3,0,0.7,0.1,1c0,0.1,0,0.2,0.1,0.3
			c0.3,1.7,0.1,2.7-0.7,3.1c-0.9,0.4-1.8-0.4-2.4-1c-0.1-0.1-0.3-0.2-0.4-0.3c-0.9-0.7-1.7-1.5-2.6-2.3c-0.1-0.1-0.2-0.2-0.4-0.3
			c-0.3-0.2-0.6-0.5-1-0.9c0,0,0,0-0.1,0c0,0-0.1,0,0,0.1c0.3,1.2,1,2.4,2.1,3.6c0.5,0.5,1,1,1.5,1.5c0.9,0.9,1.9,1.8,2.6,2.8
			c2.4,3.4,2.3,7.8,2.1,12c-0.5,7.4-1.2,15-2.2,22.4c-0.1,0.5-0.1,1.1-0.5,1.6c-0.1,0.1-0.2,0.2-0.2,0.2c-0.2,0.2-0.3,0.3-0.3,0.6
			c0,0.3,0.2,0.5,0.5,0.6c0.6,0.2,1.1-0.3,1.4-0.8c0.3-0.4,0.4-0.9,0.5-1.5l0.1-0.3c0.5-2,1.4-3.4,2.7-4
			C405.5,183.6,406,183.6,406.5,183.6z"/>
	</g>
	<g>
		<rect x="379.1" y="108" class="st15" width="30.8" height="17.2"/>
		<path class="st6" d="M409.9,107h-31.1v18.9h15.1v19.3h1v-19.3h15V107z M408.9,124.9h-29V108h29V124.9z"/>
	</g>
	<polygon class="st8" points="382.6,116.1 388.1,121.6 388.1,118.4 405.9,118.5 405.9,114.1 388.1,114 388.1,110.7 	"/>
	<g>
		<g>
			<path class="st16" d="M568.8,222.9c0,0.3,0,4.4,0,4.7c0,0.6-0.1,1.2-0.1,1.8c-0.3,2.7-0.7,5.4-1.3,8.1c-0.7,2.7-1.7,5.1-2.9,7.6
				c-0.3,0.7-0.6,1.4-0.3,2.1c0.3,0.6,1,0.9,1.7,0.8s1.1-0.5,1.4-1.1c1.2-2.1,2.2-4.2,3.7-6c1.7-2,4.7-2.5,7.1-1.4
				c2.4,1.1,3.1,3.8,4.2,6c0.9,1.8,3.7,1.5,3.1-0.3c-0.3-0.8-1.8-4.5-2.3-6c-1.8-5-2.7-21.4-3.8-24.1c-1.1-2.7-2.8-5-3.6-7.8
				c-0.3-1-0.3-2.1-0.8-3.1c-0.4-0.9-1.3-1.6-2.3-1.4c-1.6,0.2-2.4,2.4-2.1,3.7c0.1,0.5,0.3,0.9,0.4,1.3c0.4,1.5-0.2,3-0.8,4.4
				c-0.5,1.2-1.5,2.1-1.8,3.4c-0.4,1.8-1.2,4.4-1.8,6.1c-0.3,0.9-0.7,1.7-1.1,2.6c-0.3,0.5-1.2,1.7-0.9,2.3c0.1,0.2,0.4,0.4,0.6,0.4
				c0.9,0.1,1.6-0.7,2-1.4c1.5-2.7,3.4-5.3,3.9-8.9"/>
			<path class="st8" d="M565.5,248.4c-0.7,0-1.4-0.5-1.7-1.1c-0.4-0.8,0-1.7,0.3-2.4c1.1-2.4,2.2-4.8,2.9-7.5c0.6-2.4,1-5,1.3-8
				c0.1-0.6,0.1-1.2,0.1-1.8c0-0.2,0-1.9,0-3.2c-0.1,0.1-0.1,0.2-0.2,0.3c-0.3,0.4-0.5,0.9-0.8,1.3c-0.8,1.4-1.7,1.7-2.4,1.6
				c-0.5-0.1-0.8-0.3-1-0.7c-0.3-0.7,0.3-1.5,0.7-2.2c0.1-0.2,0.2-0.3,0.3-0.5c0.4-0.8,0.8-1.7,1-2.5c0.6-1.8,1.4-4.3,1.8-6.1
				c0.2-0.8,0.6-1.5,1.1-2.2c0.3-0.4,0.5-0.8,0.7-1.3c0.6-1.4,1.2-2.8,0.8-4.1c-0.1-0.2-0.1-0.4-0.2-0.6c-0.1-0.2-0.2-0.5-0.2-0.8
				c-0.2-1,0.1-2.2,0.7-3.1c0.5-0.7,1.1-1.1,1.8-1.2c1.2-0.2,2.3,0.7,2.8,1.7c0.3,0.6,0.4,1.3,0.5,2c0.1,0.4,0.1,0.8,0.2,1.2
				c0.5,1.6,1.2,3,2,4.5c0.6,1.1,1.1,2.1,1.6,3.3c0.5,1.2,0.9,5.1,1.4,9.5c0.6,5.5,1.4,11.8,2.4,14.6c0.3,0.8,0.9,2.4,1.4,3.7
				c0.4,1.1,0.8,2,0.9,2.3c0.3,0.9,0,1.7-0.8,2c-1,0.4-2.5,0-3.1-1.3c-0.2-0.4-0.4-0.9-0.6-1.4c-0.8-1.8-1.6-3.6-3.3-4.4
				c-2.3-1-5-0.5-6.5,1.3c-1.2,1.4-2.1,3.1-3,4.7c-0.2,0.4-0.5,0.8-0.7,1.2c-0.4,0.8-1,1.2-1.7,1.3
				C565.8,248.4,565.6,248.4,565.5,248.4z M569.2,222.9c0,0.5,0,4.4,0,4.7c0,0.6-0.1,1.2-0.1,1.9c-0.3,3-0.7,5.7-1.3,8.1
				c-0.7,2.8-1.8,5.2-2.9,7.7c-0.3,0.6-0.5,1.2-0.3,1.7c0.2,0.4,0.7,0.6,1.2,0.5c0.5-0.1,0.8-0.3,1.1-0.9c0.2-0.4,0.5-0.8,0.7-1.2
				c0.9-1.7,1.8-3.4,3.1-4.8c1.8-2.1,5-2.7,7.6-1.5c2,0.9,2.9,2.9,3.7,4.9c0.2,0.5,0.4,0.9,0.6,1.4c0.5,0.9,1.5,1.1,2,0.9
				c0.3-0.1,0.4-0.4,0.3-0.9c-0.1-0.3-0.5-1.2-0.9-2.3c-0.5-1.3-1.1-2.8-1.4-3.7c-1-2.8-1.8-9.2-2.4-14.8c-0.5-4.2-0.9-8.1-1.4-9.3
				c-0.4-1.1-1-2.2-1.5-3.2c-0.8-1.5-1.6-3-2.1-4.6c-0.1-0.4-0.2-0.8-0.3-1.3c-0.1-0.6-0.2-1.2-0.5-1.8c-0.3-0.7-1.1-1.3-1.9-1.2
				c-0.6,0.1-1,0.5-1.2,0.8c-0.5,0.7-0.7,1.7-0.5,2.4c0,0.2,0.1,0.4,0.2,0.7c0.1,0.2,0.2,0.4,0.2,0.7c0.4,1.6-0.2,3.2-0.9,4.7
				c-0.2,0.5-0.5,1-0.8,1.4c-0.4,0.6-0.8,1.2-1,1.9c-0.4,1.8-1.2,4.3-1.8,6.1c-0.3,0.9-0.7,1.7-1.1,2.6c-0.1,0.1-0.2,0.3-0.3,0.5
				c-0.2,0.4-0.7,1.2-0.6,1.4c0,0.1,0.2,0.2,0.3,0.2c0.7,0.1,1.2-0.6,1.5-1.1c0.3-0.5,0.5-0.9,0.8-1.4c1.3-2.2,2.7-4.5,3.1-7.4
				c0-0.2,0.3-0.4,0.5-0.4c0.2,0,0.4,0.3,0.4,0.5C571.1,219.2,570.2,221.1,569.2,222.9z"/>
		</g>
		<g>
			<path class="st16" d="M578.8,214.3c1.4,6.7-3.2,9.5-10.2,12.2c-0.3,0.1-0.6,0.2-0.8,0.2c-0.5,0-0.9-0.3-1.1-0.7
				c-0.2-0.4-0.1-1,0.3-1.3c0.4-0.3,0.9-0.4,1.4-0.5c5.4-2.1,7.7-5.5,7-7.3"/>
			<path class="st8" d="M567.6,227.2c-0.6,0-1.2-0.4-1.4-1c-0.2-0.6-0.1-1.3,0.4-1.8c0.3-0.3,0.7-0.4,1.1-0.5c0.1,0,0.3-0.1,0.4-0.1
				c5.3-2,7.3-5.2,6.8-6.8c-0.1-0.2,0-0.5,0.3-0.6c0.2-0.1,0.5,0,0.6,0.3c0.8,2.2-1.8,5.8-7.3,7.9c-0.2,0.1-0.3,0.1-0.5,0.1
				c-0.3,0.1-0.5,0.1-0.7,0.3c-0.2,0.2-0.3,0.5-0.2,0.8c0.1,0.3,0.4,0.4,0.7,0.4c0.2,0,0.4-0.1,0.6-0.2l0.1-0.1
				c7.4-2.8,11.2-5.5,9.9-11.7c0-0.2,0.1-0.5,0.3-0.5c0.2,0,0.5,0.1,0.5,0.3c1.5,7.5-4.1,10.3-10.5,12.7l-0.1,0
				c-0.3,0.1-0.5,0.2-0.9,0.2C567.7,227.2,567.7,227.2,567.6,227.2z"/>
		</g>
	</g>
	<g>
		<g>
			<path class="st17" d="M219.6,157.9c0,0.3,0,4.4,0,4.7c0,0.6,0.1,1.2,0.1,1.8c0.3,2.7,0.7,5.4,1.3,8.1c0.7,2.7,1.7,5.1,2.9,7.6
				c0.3,0.7,0.6,1.4,0.3,2.1c-0.3,0.6-1,0.9-1.7,0.8c-0.7-0.1-1.1-0.5-1.4-1.1c-1.2-2.1-2.2-4.2-3.7-6c-1.7-2-4.7-2.5-7.1-1.4
				c-2.4,1.1-3.1,3.8-4.2,6c-0.9,1.8-3.7,1.5-3.1-0.3c0.3-0.8,1.8-4.5,2.3-6c1.8-5,2.7-21.4,3.8-24.1c1.1-2.7,2.8-5,3.6-7.8
				c0.3-1,0.3-2.1,0.8-3.1c0.4-0.9,1.3-1.6,2.3-1.4c1.6,0.2,2.4,2.4,2.1,3.7c-0.1,0.5-0.3,0.9-0.4,1.3c-0.4,1.5,0.2,3,0.8,4.4
				c0.5,1.2,1.5,2.1,1.8,3.4c0.4,1.8,1.2,4.4,1.8,6.1c0.3,0.9,0.7,1.7,1.1,2.6c0.3,0.5,1.2,1.7,0.9,2.3c-0.1,0.2-0.4,0.4-0.6,0.4
				c-0.9,0.1-1.6-0.7-2-1.4c-1.5-2.7-3.4-5.3-3.9-8.9"/>
			<path class="st8" d="M222.5,183.4c-0.7-0.1-1.3-0.6-1.7-1.3c-0.2-0.4-0.5-0.8-0.7-1.2c-0.9-1.6-1.8-3.3-3-4.7
				c-1.5-1.8-4.3-2.3-6.5-1.3c-1.7,0.8-2.5,2.6-3.3,4.4c-0.2,0.5-0.4,0.9-0.6,1.4c-0.6,1.3-2.1,1.7-3.1,1.3c-0.8-0.3-1.1-1.1-0.8-2
				c0.1-0.3,0.5-1.3,0.9-2.3c0.5-1.3,1.1-2.8,1.4-3.7c1-2.7,1.7-9,2.4-14.6c0.5-4.4,0.9-8.3,1.4-9.5c0.5-1.1,1-2.2,1.6-3.3
				c0.8-1.4,1.5-2.9,2-4.5c0.1-0.4,0.2-0.8,0.2-1.2c0.1-0.7,0.2-1.3,0.5-2c0.4-1,1.5-1.9,2.8-1.7c0.7,0.1,1.3,0.5,1.8,1.2
				c0.6,0.9,0.9,2.1,0.7,3.1c-0.1,0.3-0.2,0.5-0.2,0.8c-0.1,0.2-0.1,0.4-0.2,0.6c-0.3,1.3,0.2,2.7,0.8,4.1c0.2,0.4,0.5,0.9,0.7,1.3
				c0.4,0.7,0.9,1.4,1.1,2.2c0.4,1.7,1.1,4.3,1.8,6.1c0.3,0.8,0.6,1.7,1,2.5c0.1,0.1,0.2,0.3,0.3,0.5c0.4,0.7,1,1.6,0.7,2.2
				c-0.2,0.4-0.5,0.6-1,0.7c-0.7,0.1-1.6-0.1-2.4-1.6c-0.3-0.4-0.5-0.9-0.8-1.3c-0.1-0.1-0.1-0.2-0.2-0.3c0,1.3,0,3,0,3.2
				c0,0.6,0.1,1.2,0.1,1.8c0.3,3,0.7,5.6,1.3,8c0.7,2.7,1.7,5.1,2.9,7.5c0.3,0.7,0.7,1.6,0.3,2.4c-0.3,0.6-0.9,1-1.7,1.1
				C222.8,183.4,222.7,183.4,222.5,183.4z M217,152c0-0.2,0.1-0.5,0.4-0.5c0.2,0,0.5,0.1,0.5,0.4c0.4,2.9,1.8,5.2,3.1,7.4
				c0.3,0.5,0.5,0.9,0.8,1.4c0.3,0.6,0.9,1.2,1.5,1.1c0.1,0,0.3-0.1,0.3-0.2c0.1-0.3-0.4-1.1-0.6-1.4c-0.1-0.2-0.2-0.4-0.3-0.5
				c-0.4-0.9-0.8-1.8-1.1-2.6c-0.6-1.8-1.4-4.4-1.8-6.1c-0.2-0.7-0.5-1.3-1-1.9c-0.3-0.4-0.6-0.9-0.8-1.4c-0.7-1.5-1.3-3.1-0.9-4.7
				c0.1-0.2,0.1-0.4,0.2-0.7c0.1-0.2,0.2-0.4,0.2-0.7c0.2-0.7-0.1-1.7-0.5-2.4c-0.2-0.3-0.6-0.7-1.2-0.8c-0.8-0.1-1.6,0.5-1.9,1.2
				c-0.2,0.5-0.4,1.1-0.5,1.8c-0.1,0.4-0.1,0.8-0.3,1.3c-0.5,1.7-1.3,3.2-2.1,4.6c-0.5,1-1.1,2.1-1.5,3.2c-0.5,1.1-0.9,5.1-1.4,9.3
				c-0.6,5.6-1.4,11.9-2.4,14.8c-0.3,0.9-0.9,2.4-1.4,3.7c-0.4,1-0.8,2-0.9,2.3c-0.2,0.4-0.1,0.7,0.3,0.9c0.5,0.2,1.5,0,2-0.9
				c0.2-0.4,0.4-0.9,0.6-1.4c0.8-1.9,1.7-3.9,3.7-4.9c2.6-1.2,5.8-0.6,7.6,1.5c1.3,1.5,2.2,3.2,3.1,4.8c0.2,0.4,0.4,0.8,0.7,1.2
				c0.3,0.5,0.6,0.8,1.1,0.9c0.5,0.1,1-0.2,1.2-0.5c0.2-0.5,0-1.1-0.3-1.7c-1.1-2.5-2.2-4.9-2.9-7.7c-0.6-2.4-1-5.1-1.3-8.1
				c-0.1-0.6-0.1-1.3-0.1-1.9c0-0.3,0-4.2,0-4.7C218.2,156.1,217.3,154.2,217,152z"/>
		</g>
		<g>
			<path class="st17" d="M209.6,149.3c-1.4,6.7,3.2,9.5,10.2,12.2c0.3,0.1,0.6,0.2,0.8,0.2c0.5,0,0.9-0.3,1.1-0.7
				c0.2-0.4,0.1-1-0.3-1.3c-0.4-0.3-0.9-0.4-1.4-0.5c-5.4-2.1-7.7-5.5-7-7.3"/>
			<path class="st8" d="M220.8,162.2c0.6,0,1.2-0.4,1.4-1c0.2-0.6,0.1-1.3-0.4-1.8c-0.3-0.3-0.7-0.4-1.1-0.5c-0.1,0-0.3-0.1-0.4-0.1
				c-5.3-2-7.3-5.2-6.8-6.8c0.1-0.2,0-0.5-0.3-0.6c-0.2-0.1-0.5,0-0.6,0.3c-0.8,2.2,1.8,5.8,7.3,7.9c0.2,0.1,0.3,0.1,0.5,0.1
				c0.3,0.1,0.5,0.1,0.7,0.3c0.2,0.2,0.3,0.5,0.2,0.8c-0.1,0.3-0.4,0.4-0.7,0.4c-0.2,0-0.4-0.1-0.6-0.2l-0.1-0.1
				c-7.4-2.8-11.2-5.5-9.9-11.7c0-0.2-0.1-0.5-0.3-0.5c-0.2,0-0.5,0.1-0.5,0.3c-1.5,7.5,4.1,10.3,10.5,12.7l0.1,0
				c0.3,0.1,0.5,0.2,0.9,0.2C220.7,162.2,220.8,162.2,220.8,162.2z"/>
		</g>
	</g>
	<g>
		<rect x="548.9" y="179.3" class="st16" width="38" height="21.3"/>
		<path class="st6" d="M586.9,178h-38.4v23.4h18.6l-0.1,23.1l1.3-0.5v-22.6h18.6V178z M585.6,200.1h-35.9v-20.8h35.9V200.1z"/>
	</g>
	<polygon class="st8" points="555.3,187.2 560,194.6 560.8,191.1 580.4,195.5 581.5,190.7 561.9,186.2 562.7,182.5 	"/>
	<g>
		<g>
			<path class="st18" d="M515.8,145.2c1.3,2.8,1.6,5.3,2.3,8.3c0.4,2.1,0.9,4.3,1.3,6.4c0.2,0.7,0.4,1.5,0.5,2.2
				c0.1,0.7,0.2,1.5,0.7,2.1c0.2,0.4,0.6,0.7,0.8,1c0.2,0.4,0.4,0.8,0.3,1.2c-0.2,0.8-3.3-0.2-3.3-1.1c0-0.6-0.3-1.2-0.7-1.7
				c-0.6-0.8-1.6-1-2.5-1c-1-0.1-2.1,0.1-2.9,0.7c-0.9,0.6-1.5,1.6-1.7,2.7c-0.2,1.1,0,2.3-0.4,3.3c-0.3,0.9-1.3,1.5-2.3,1.4
				c-1-0.1-0.2-1.2,0-1.9c0.3-1.1,0.4-2.2,0.5-3.3c0.2-1.5,0.3-3,0.4-4.5c0.2-3.1,0.2-5.6,0.2-8.6c0,0-1-9.7,2.7-9.5
				C515.4,143,515.8,145.2,515.8,145.2z"/>
			<path class="st8" d="M508.1,171c-0.1,0-0.2,0-0.3,0c-0.3,0-0.6-0.2-0.7-0.4c-0.2-0.4,0-0.9,0.2-1.4c0.1-0.2,0.2-0.4,0.2-0.5
				c0.2-0.7,0.3-1.5,0.4-2.4c0-0.3,0.1-0.6,0.1-0.9c0.2-1.4,0.3-2.9,0.4-4.5c0.2-3,0.2-5.4,0.2-8.6c0-0.3-0.7-7,1.4-9.2
				c0.5-0.5,1-0.7,1.7-0.7c3.7,0.2,4.3,2.2,4.4,2.6c1.1,2.3,1.5,4.5,2,6.8c0.1,0.5,0.2,1,0.3,1.5l1.3,6.4c0.1,0.3,0.1,0.6,0.2,0.8
				c0.1,0.5,0.2,0.9,0.3,1.4c0.1,0.7,0.2,1.4,0.6,1.9c0.1,0.2,0.2,0.3,0.4,0.5c0.1,0.2,0.3,0.3,0.4,0.5c0.3,0.5,0.5,1,0.3,1.5
				c-0.1,0.2-0.3,0.6-1.2,0.5c-0.9-0.1-2.7-0.8-2.8-1.7c0-0.5-0.2-1-0.6-1.5c-0.5-0.7-1.4-0.8-2.2-0.9c-1.1-0.1-2,0.1-2.7,0.6
				c-0.8,0.6-1.4,1.5-1.6,2.5c-0.1,0.4-0.1,0.9-0.1,1.3c0,0.7,0,1.4-0.3,2C510.1,170.4,509.1,171,508.1,171z M511.6,143.1
				c-0.4,0-0.8,0.2-1.1,0.5c-1.9,1.9-1.2,8.6-1.2,8.7c0,3.2,0,5.7-0.2,8.7c-0.1,1.6-0.2,3.1-0.4,4.5c0,0.3-0.1,0.6-0.1,0.9
				c-0.1,0.8-0.2,1.7-0.4,2.5c-0.1,0.2-0.2,0.4-0.2,0.6c-0.1,0.2-0.3,0.7-0.3,0.8c0,0,0,0,0.2,0.1c0.8,0.1,1.7-0.4,2-1.2
				c0.2-0.6,0.2-1.2,0.2-1.8c0-0.5,0-1,0.1-1.4c0.2-1.2,0.9-2.2,1.9-2.9c0.9-0.6,1.9-0.9,3.1-0.8c1,0.1,2.1,0.3,2.7,1.2
				c0.5,0.6,0.7,1.2,0.7,1.8c0,0.1,0.3,0.5,1.1,0.8c0.8,0.3,1.5,0.3,1.6,0.2c0.1-0.3-0.1-0.7-0.3-0.9c-0.1-0.2-0.2-0.3-0.4-0.5
				c-0.1-0.2-0.3-0.3-0.4-0.5c-0.5-0.7-0.6-1.5-0.7-2.2c-0.1-0.4-0.2-0.9-0.3-1.3c-0.1-0.3-0.1-0.6-0.2-0.9l-1.3-6.4
				c-0.1-0.5-0.2-1-0.3-1.5c-0.5-2.4-0.9-4.4-1.9-6.7l0-0.1C515.5,145.1,515.1,143.3,511.6,143.1
				C511.7,143.1,511.7,143.1,511.6,143.1z"/>
		</g>
		<g>
			<path class="st18" d="M510.2,144.8c-0.6,1.8-0.4,3.3,0.3,5.8c0.1,0.5,0.1,1.1-0.1,1.6c-0.1,0.3-0.4,0.4-0.7,0.5
				c-0.7,0.1-1-0.7-1.1-1.3c-1-3.9-1-5.9,0.3-9.7c0.5-1.3,1-2.8,0.5-4.1c-0.2-0.6-0.6-1.2-0.6-1.9c0-0.3,0.1-0.5,0.2-0.7
				c0.6-0.8,1.7-0.2,2.1,0.6c0.4,0.7,0.4,1.6,0.7,2.3c0.2,0.5,0.6,0.9,0.9,1.4l2.5,3.2c0.6,0.8,0.8,1.8,0.7,2.8
				c-0.1,1.9-0.4,3.9-1.4,5.5c-0.6,1-2.4,3.1-3.7,2c-0.1-0.1-0.2-0.2-0.3-0.4c-0.1-0.4,0.3-0.8,0.6-1.1c1.1-1,2.2-2.5,2.5-3.9
				c0.2-0.7,0.1-1.9-0.5-2.4"/>
			<path class="st8" d="M511.6,153.3c-0.4,0-0.7-0.1-1.1-0.4c-0.1-0.1-0.1-0.1-0.2-0.2c-0.2,0.2-0.4,0.2-0.6,0.3
				c-0.7,0.1-1.3-0.5-1.5-1.5c-1-4-1.1-6,0.3-9.9c0.4-1.2,0.9-2.6,0.5-3.9c-0.1-0.2-0.1-0.4-0.2-0.6c-0.2-0.4-0.4-0.9-0.4-1.4
				c0-0.3,0.1-0.7,0.3-0.9c0.3-0.4,0.7-0.5,1.1-0.5c0.6,0.1,1.2,0.5,1.5,1.1c0.2,0.4,0.3,0.9,0.4,1.3c0.1,0.4,0.2,0.7,0.3,1
				c0.2,0.5,0.5,0.9,0.8,1.3l2.5,3.2c0.7,1,0.8,2.2,0.8,3c-0.1,1.8-0.4,3.9-1.4,5.6c-0.5,0.9-1.7,2.2-2.9,2.4
				C511.7,153.3,511.7,153.3,511.6,153.3z M513.1,144.4c0.1,0,0.1,0,0.2,0.1c0.8,0.6,0.8,2,0.6,2.8c-0.3,1.4-1.3,3-2.6,4.1
				c-0.3,0.3-0.6,0.5-0.5,0.7c0,0.1,0.1,0.2,0.2,0.2c0.2,0.2,0.5,0.3,0.8,0.2c0.9-0.1,1.9-1.3,2.4-2.1c0.9-1.6,1.2-3.6,1.4-5.3
				c0.1-0.7,0-1.8-0.6-2.6l-2.5-3.2c-0.3-0.4-0.7-0.9-0.9-1.5c-0.2-0.4-0.2-0.7-0.3-1.1c-0.1-0.4-0.2-0.8-0.4-1.2
				c-0.2-0.4-0.6-0.7-1-0.7c-0.2,0-0.4,0.1-0.5,0.2c-0.1,0.1-0.2,0.3-0.2,0.5c0,0.4,0.2,0.8,0.3,1.2c0.1,0.2,0.2,0.4,0.3,0.6
				c0.5,1.5-0.1,3.1-0.5,4.3c-1.3,3.7-1.2,5.6-0.3,9.5c0.1,0.2,0.3,1.1,0.8,1c0.2,0,0.3-0.1,0.4-0.3c0.2-0.4,0.2-0.8,0.1-1.3
				c-0.7-2.4-0.9-4.1-0.3-6c0.1-0.2,0.2-0.3,0.4-0.2c0.2,0.1,0.3,0.2,0.2,0.4c-0.6,1.7-0.3,3.3,0.3,5.6c0,0.1,0.1,0.3,0.1,0.4
				c1.1-1,2.1-2.5,2.4-3.7c0.1-0.6,0.1-1.7-0.4-2.1c-0.1-0.1-0.2-0.3-0.1-0.5C512.9,144.5,513,144.4,513.1,144.4z"/>
		</g>
	</g>
	<g>
		<rect x="495.1" y="115" class="st18" width="30.8" height="17.2"/>
		<path class="st6" d="M525.9,114h-31.1v18.9h15.1v19.3h1v-19.3h15V114z M524.9,131.9h-29V115h29V131.9z"/>
	</g>
	<polygon class="st8" points="498.7,124.7 504.9,129.4 504.4,126.2 522.1,123.9 521.5,119.6 503.9,121.9 503.4,118.6 	"/>
	<g>
		<path class="st13" d="M112.4,230.2c-0.4,0.6-0.4,1.4-0.4,2.2c0,0.6,0.5,1,1,1c0,0,0,0,0,0c1.1,0,1.3-1.1,1.6-2
			c0.8-2.5,0.6-6.1,2.7-7.9c0.9-0.8,2.1-1.3,3.2-1.7c1.1-0.4,2.3-0.9,3.5-0.5c1.1,0.4,1.7,1.9,2.1,2.9c0.6,1.5,1.1,3,2,4.4
			c0.9,1.4,2.1,2.6,3.7,3.1c0.5,0.1,1,0.2,1.3-0.2c0.2-0.2,0.2-0.6,0.2-0.9c-0.1-0.6-0.6-1-1.1-1.5c-1.7-1.8-2.5-4.4-3.1-6.8
			c-2-8.5-2.5-17.4-1.5-26.2c0-0.3,0.1-0.7,0.4-0.9c0.2-0.2,0.5-0.1,0.8-0.1c1.7,0.1,3.4,0.5,5,1.1c0.6,0.2,1.3,0.5,1.9,0.3
			c0.3-0.1,0.5-0.2,0.7-0.4c0.5-0.7-0.1-1.4-0.7-1.7c-0.5-0.2-1.1-0.2-1.7-0.3c-2.2-0.4-4-2.1-5-4.1c-1-2-1.4-4.3-1.8-6.5
			c-0.4-2.7,0.8-4.2,2.1-6.5c0.1-0.2,0.3-0.5,0.5-0.6c0.4-0.2,0.8,0,1.2,0c0.9,0,1.7-0.7,1.9-1.5c0.2-0.8,0-1.8-0.5-2.5
			c-0.7-1-2.3-1.6-3.2-0.8c-0.4,0.4-0.6,0.9-0.8,1.4c-1,1.8-3.3,3-4.8,4.8c-2.2,2.7-3.8,6.1-4.9,9.6c-1.5,4.6-2.8,8.5-3.6,13.4
			C112.9,214,113.3,228.6,112.4,230.2z"/>
		<path class="st8" d="M113.1,233.7C113.1,233.7,113,233.7,113.1,233.7c-0.8,0-1.5-0.6-1.5-1.4c0-1,0.1-1.8,0.5-2.4l0,0
			c0.3-0.6,0.5-4,0.7-8c0.3-5.8,0.7-13.8,1.9-21.4c0.8-5,2.1-9.1,3.6-13.4c1.4-4.2,3-7.4,5-9.7c0.7-0.8,1.5-1.5,2.3-2.1
			c1-0.8,2-1.6,2.5-2.6c0.1-0.1,0.1-0.2,0.2-0.4c0.2-0.4,0.4-0.8,0.7-1.1c0.4-0.4,1-0.6,1.6-0.5c0.8,0.1,1.7,0.6,2.2,1.3
			c0.6,0.9,0.8,1.9,0.6,2.8c-0.3,1.1-1.3,1.8-2.3,1.8c-0.1,0-0.3,0-0.4,0c-0.3,0-0.5-0.1-0.6,0c-0.1,0.1-0.3,0.3-0.4,0.5
			c-0.2,0.4-0.4,0.8-0.7,1.2c-1,1.8-1.8,3-1.4,5.1c0.4,2.2,0.7,4.4,1.7,6.4c1.1,2.1,2.9,3.6,4.8,3.9c0.2,0,0.3,0,0.5,0.1
			c0.4,0,0.9,0.1,1.3,0.3c0.5,0.2,0.9,0.7,1.1,1.2c0.1,0.4,0,0.8-0.2,1.1c-0.2,0.3-0.5,0.5-0.9,0.6c-0.7,0.2-1.4-0.1-2-0.3l-0.1,0
			c-1.6-0.6-3.2-0.9-4.9-1c-0.2,0-0.4,0-0.5,0.1c-0.1,0.1-0.2,0.3-0.2,0.6c-1,8.7-0.5,17.5,1.5,26c0.5,2.3,1.2,4.8,3,6.7l0.2,0.2
			c0.4,0.4,0.8,0.8,1,1.5c0.1,0.4,0,0.9-0.2,1.2c-0.4,0.5-1,0.6-1.7,0.4c-1.9-0.6-3.2-2.1-3.9-3.3c-0.6-1-1.1-2.2-1.5-3.2
			c-0.2-0.4-0.3-0.8-0.5-1.2l-0.1-0.2c-0.4-1-0.9-2.2-1.8-2.5c-1-0.3-2.1,0.1-3.1,0.5l-0.1,0c-1.3,0.5-2.3,0.9-3.1,1.7
			c-1.3,1.2-1.7,3.1-2,5c-0.2,1-0.3,1.9-0.6,2.7l-0.1,0.2C114.7,232.6,114.3,233.7,113.1,233.7z M112.7,230.3
			c-0.3,0.5-0.4,1.1-0.4,2c0,0.3,0.3,0.6,0.7,0.6l0.1,0c0.6,0,0.8-0.5,1.1-1.5l0.1-0.2c0.3-0.8,0.4-1.7,0.6-2.6
			c0.4-2,0.7-4.1,2.2-5.5c1-0.8,2.2-1.4,3.3-1.8l0.1,0c1.1-0.4,2.4-0.9,3.6-0.5c1.2,0.4,1.8,1.9,2.3,2.9l0.1,0.2
			c0.2,0.4,0.3,0.8,0.5,1.2c0.4,1.1,0.8,2.1,1.4,3.1c0.7,1.1,1.8,2.5,3.5,2.9c0.6,0.2,0.8,0,0.9-0.1c0.1-0.1,0.1-0.4,0.1-0.6
			c-0.1-0.4-0.4-0.8-0.8-1.1l-0.2-0.2c-1.8-1.9-2.6-4.5-3.2-7c-2-8.6-2.5-17.5-1.5-26.3c0-0.3,0.1-0.8,0.5-1.1
			c0.3-0.3,0.8-0.2,1-0.2c1.7,0.1,3.4,0.5,5,1.1l0.1,0c0.6,0.2,1.1,0.4,1.6,0.2c0.2-0.1,0.4-0.2,0.5-0.3c0.1-0.2,0.1-0.3,0.1-0.5
			c-0.1-0.3-0.3-0.5-0.6-0.7c-0.3-0.1-0.7-0.2-1.1-0.2c-0.2,0-0.3,0-0.5-0.1c-2.1-0.3-4.1-1.9-5.3-4.3c-1.1-2.1-1.4-4.4-1.8-6.6
			c-0.4-2.3,0.5-3.9,1.5-5.6c0.2-0.4,0.4-0.7,0.7-1.1c0.2-0.3,0.3-0.6,0.7-0.8c0.4-0.2,0.7-0.1,1.1-0.1c0.1,0,0.2,0,0.3,0
			c0.7,0,1.3-0.5,1.5-1.2c0.2-0.7,0-1.5-0.5-2.2c-0.4-0.5-1-0.9-1.7-1c-0.3,0-0.7,0-1,0.3c-0.2,0.2-0.4,0.5-0.5,0.9
			c-0.1,0.1-0.1,0.3-0.2,0.4c-0.6,1.1-1.6,2-2.7,2.8c-0.8,0.6-1.6,1.3-2.2,2c-1.9,2.3-3.5,5.4-4.8,9.5c-1.4,4.3-2.8,8.4-3.6,13.3
			c-1.2,7.6-1.6,15.5-1.9,21.3C113.3,227.1,113.2,229.6,112.7,230.3L112.7,230.3z"/>
	</g>
	<g>
		
			<rect x="202.5" y="115.3" transform="matrix(-1 -4.496859e-11 4.496859e-11 -1 442.2977 251.3607)" class="st17" width="37.2" height="20.8"/>
		<path class="st6" d="M202.5,136.9h18.2v22.4l1.2,0.9v-23.3h18.3V114h-37.6V136.9z M203.8,115.3h35.1v20.3h-35.1V115.3z"/>
	</g>
	<polygon class="st8" points="235.6,125 229,131.7 228.9,127.8 207.5,127.9 207.4,122.6 228.9,122.5 228.9,118.4 	"/>
</g>
</svg>
